Crimson Text New-Regular.ufo
<glyph name="exclam" format="1">
  <advance width="266"/>
  <unicode hex="0021"/>
  <note>
    exclam
  </note>
  <outline>
    <contour>
      <point x="114" y="182" type="curve"/>
      <point x="152" y="182" type="line"/>
      <point x="157" y="339"/>
      <point x="184" y="529"/>
      <point x="184" y="634" type="curve"/>
      <point x="184" y="673"/>
      <point x="164" y="698"/>
      <point x="133" y="698" type="curve"/>
      <point x="102" y="698"/>
      <point x="82" y="673"/>
      <point x="82" y="634" type="curve"/>
      <point x="82" y="529"/>
      <point x="109" y="339"/>
    </contour>
    <contour>
      <point x="133" y="-10" type="curve"/>
      <point x="169" y="-10"/>
      <point x="196" y="16"/>
      <point x="196" y="51" type="curve"/>
      <point x="196" y="86"/>
      <point x="169" y="112"/>
      <point x="133" y="112" type="curve"/>
      <point x="97" y="112"/>
      <point x="70" y="86"/>
      <point x="70" y="51" type="curve"/>
      <point x="70" y="16"/>
      <point x="97" y="-10"/>
    </contour>
  </outline>
</glyph>
<glyph name="numbersign" format="1">
  <advance width="527"/>
  <unicode hex="0023"/>
  <note>
    numbersign
  </note>
  <outline>
    <contour>
      <point x="388" y="587" type="line"/>
      <point x="265" y="0" type="line"/>
      <point x="315" y="0" type="line"/>
      <point x="439" y="587" type="line"/>
    </contour>
    <contour>
      <point x="32" y="220" type="line"/>
      <point x="32" y="171" type="line"/>
      <point x="477" y="171" type="line"/>
      <point x="477" y="220" type="line"/>
    </contour>
    <contour>
      <point x="212" y="587" type="line"/>
      <point x="88" y="0" type="line"/>
      <point x="139" y="0" type="line"/>
      <point x="262" y="587" type="line"/>
    </contour>
    <contour>
      <point x="50" y="416" type="line"/>
      <point x="50" y="367" type="line"/>
      <point x="495" y="367" type="line"/>
      <point x="495" y="416" type="line"/>
    </contour>
  </outline>
</glyph>
<glyph name="dollar" format="1">
  <advance width="479"/>
  <unicode hex="0024"/>
  <note>
    dollar
  </note>
  <outline>
    <contour>
      <point x="233" y="703" type="line"/>
      <point x="233" y="-116" type="line"/>
      <point x="279" y="-116" type="line"/>
      <point x="279" y="703" type="line"/>
    </contour>
    <contour>
      <point x="230" y="-9" type="curve"/>
      <point x="355" y="-9"/>
      <point x="445" y="61"/>
      <point x="445" y="157" type="curve"/>
      <point x="445" y="338"/>
      <point x="149" y="314"/>
      <point x="149" y="459" type="curve"/>
      <point x="149" y="514"/>
      <point x="193" y="550"/>
      <point x="262" y="550" type="curve"/>
      <point x="296" y="550"/>
      <point x="322" y="544"/>
      <point x="344" y="530" type="curve"/>
      <point x="356" y="503"/>
      <point x="363" y="478"/>
      <point x="372" y="445" type="curve"/>
      <point x="415" y="449" type="line"/>
      <point x="407" y="574" type="line"/>
      <point x="373" y="589"/>
      <point x="325" y="597"/>
      <point x="272" y="597" type="curve"/>
      <point x="148" y="597"/>
      <point x="60" y="530"/>
      <point x="60" y="433" type="curve"/>
      <point x="60" y="243"/>
      <point x="355" y="272"/>
      <point x="355" y="130" type="curve"/>
      <point x="355" y="74"/>
      <point x="311" y="40"/>
      <point x="244" y="40" type="curve"/>
      <point x="201" y="40"/>
      <point x="161" y="52"/>
      <point x="129" y="73" type="curve"/>
      <point x="120" y="102"/>
      <point x="111" y="130"/>
      <point x="101" y="165" type="curve"/>
      <point x="58" y="159" type="line"/>
      <point x="58" y="118"/>
      <point x="60" y="76"/>
      <point x="63" y="30" type="curve"/>
      <point x="102" y="7"/>
      <point x="171" y="-9"/>
    </contour>
  </outline>
</glyph>
<glyph name="percent" format="1">
  <advance width="756"/>
  <unicode hex="0025"/>
  <note>
    percent
  </note>
  <outline>
    <contour>
      <point x="123" y="26" type="line"/>
      <point x="167" y="-13" type="line"/>
      <point x="637" y="562" type="line"/>
      <point x="592" y="601" type="line"/>
    </contour>
    <contour>
      <point x="196" y="286" type="curve"/>
      <point x="282" y="286"/>
      <point x="355" y="353"/>
      <point x="355" y="441" type="curve"/>
      <point x="355" y="532"/>
      <point x="286" y="595"/>
      <point x="196" y="595" type="curve"/>
      <point x="109" y="595"/>
      <point x="35" y="527"/>
      <point x="35" y="441" type="curve"/>
      <point x="35" y="350"/>
      <point x="103" y="286"/>
    </contour>
    <contour>
      <point x="196" y="345" type="curve"/>
      <point x="143" y="345"/>
      <point x="105" y="385"/>
      <point x="105" y="442" type="curve"/>
      <point x="105" y="498"/>
      <point x="143" y="537"/>
      <point x="196" y="537" type="curve"/>
      <point x="247" y="537"/>
      <point x="288" y="499"/>
      <point x="288" y="442" type="curve"/>
      <point x="288" y="384"/>
      <point x="247" y="345"/>
    </contour>
    <contour>
      <point x="561" y="-7" type="curve"/>
      <point x="648" y="-7"/>
      <point x="721" y="59"/>
      <point x="721" y="147" type="curve"/>
      <point x="721" y="238"/>
      <point x="652" y="301"/>
      <point x="561" y="301" type="curve"/>
      <point x="475" y="301"/>
      <point x="401" y="233"/>
      <point x="401" y="147" type="curve"/>
      <point x="401" y="56"/>
      <point x="469" y="-7"/>
    </contour>
    <contour>
      <point x="561" y="52" type="curve"/>
      <point x="509" y="52"/>
      <point x="471" y="91"/>
      <point x="471" y="148" type="curve"/>
      <point x="471" y="204"/>
      <point x="509" y="244"/>
      <point x="561" y="244" type="curve"/>
      <point x="613" y="244"/>
      <point x="654" y="205"/>
      <point x="654" y="148" type="curve"/>
      <point x="654" y="90"/>
      <point x="613" y="52"/>
    </contour>
  </outline>
</glyph>
<glyph name="ampersand" format="1">
  <advance width="712"/>
  <unicode hex="0026"/>
  <note>
    ampersand
  </note>
  <outline>
    <contour>
      <point x="250" y="-8" type="curve"/>
      <point x="400" y="-8"/>
      <point x="498" y="90"/>
      <point x="596" y="281" type="curve"/>
      <point x="618" y="286"/>
      <point x="645" y="291"/>
      <point x="663" y="293" type="curve"/>
      <point x="660" y="331" type="line"/>
      <point x="630" y="330"/>
      <point x="592" y="329"/>
      <point x="562" y="329" type="curve"/>
      <point x="525" y="329"/>
      <point x="490" y="329"/>
      <point x="458" y="330" type="curve"/>
      <point x="456" y="292" type="line"/>
      <point x="477" y="290"/>
      <point x="501" y="286"/>
      <point x="523" y="281" type="curve"/>
      <point x="460" y="109"/>
      <point x="383" y="50"/>
      <point x="275" y="50" type="curve"/>
      <point x="187" y="50"/>
      <point x="128" y="97"/>
      <point x="128" y="166" type="curve"/>
      <point x="128" y="225"/>
      <point x="157" y="269"/>
      <point x="240" y="314" type="curve"/>
      <point x="408" y="399"/>
      <point x="461" y="462"/>
      <point x="461" y="542" type="curve"/>
      <point x="461" y="620"/>
      <point x="402" y="668"/>
      <point x="319" y="668" type="curve"/>
      <point x="218" y="668"/>
      <point x="148" y="590"/>
      <point x="148" y="493" type="curve"/>
      <point x="148" y="397"/>
      <point x="192" y="325"/>
      <point x="284" y="199" type="curve"/>
      <point x="388" y="57"/>
      <point x="472" y="-8"/>
      <point x="580" y="-8" type="curve"/>
      <point x="641" y="-8"/>
      <point x="691" y="15"/>
      <point x="724" y="57" type="curve"/>
      <point x="706" y="82" type="line"/>
      <point x="673" y="60"/>
      <point x="647" y="51"/>
      <point x="611" y="51" type="curve"/>
      <point x="526" y="51"/>
      <point x="447" y="114"/>
      <point x="347" y="252" type="curve"/>
      <point x="269" y="360"/>
      <point x="228" y="428"/>
      <point x="228" y="514" type="curve"/>
      <point x="228" y="586"/>
      <point x="267" y="624"/>
      <point x="316" y="624" type="curve"/>
      <point x="355" y="624"/>
      <point x="388" y="594"/>
      <point x="388" y="536" type="curve"/>
      <point x="388" y="469"/>
      <point x="345" y="413"/>
      <point x="228" y="355" type="curve"/>
      <point x="77" y="288"/>
      <point x="37" y="212"/>
      <point x="37" y="146" type="curve"/>
      <point x="37" y="65"/>
      <point x="103" y="-8"/>
    </contour>
  </outline>
</glyph>
<glyph name="quotesingle" format="1">
  <advance width="234"/>
  <unicode hex="0027"/>
  <note>
    quotesingle
  </note>
  <outline>
    <contour>
      <point x="117" y="698" type="curve"/>
      <point x="84" y="698"/>
      <point x="59" y="675"/>
      <point x="59" y="623" type="curve"/>
      <point x="59" y="582"/>
      <point x="87" y="485"/>
      <point x="100" y="430" type="curve"/>
      <point x="134" y="430" type="line"/>
      <point x="147" y="485"/>
      <point x="175" y="582"/>
      <point x="175" y="623" type="curve"/>
      <point x="175" y="675"/>
      <point x="150" y="698"/>
    </contour>
  </outline>
</glyph>
<glyph name="parenleft" format="1">
  <advance width="360"/>
  <unicode hex="0028"/>
  <note>
    parenleft
  </note>
  <outline>
    <contour>
      <point x="360" y="703" type="curve"/>
      <point x="331" y="729" type="line"/>
      <point x="177" y="605"/>
      <point x="100" y="439"/>
      <point x="100" y="250" type="curve"/>
      <point x="100" y="61"/>
      <point x="177" y="-102"/>
      <point x="331" y="-229" type="curve"/>
      <point x="360" y="-203" type="line"/>
      <point x="249" y="-92"/>
      <point x="191" y="67"/>
      <point x="191" y="250" type="curve"/>
      <point x="191" y="433"/>
      <point x="249" y="592"/>
    </contour>
  </outline>
</glyph>
<glyph name="asterisk" format="1">
  <advance width="440"/>
  <unicode hex="002A"/>
  <note>
    asterisk
  </note>
  <outline>
    <contour>
      <point x="395" y="567" type="curve"/>
      <point x="389" y="587"/>
      <point x="368" y="597"/>
      <point x="341" y="588" type="curve"/>
      <point x="308" y="577"/>
      <point x="269" y="549"/>
      <point x="236" y="532" type="curve"/>
      <point x="241" y="569"/>
      <point x="257" y="617"/>
      <point x="257" y="653" type="curve"/>
      <point x="257" y="682"/>
      <point x="241" y="698"/>
      <point x="220" y="698" type="curve"/>
      <point x="199" y="698"/>
      <point x="183" y="682"/>
      <point x="183" y="653" type="curve"/>
      <point x="183" y="617"/>
      <point x="199" y="569"/>
      <point x="204" y="532" type="curve"/>
      <point x="171" y="549"/>
      <point x="132" y="577"/>
      <point x="99" y="588" type="curve"/>
      <point x="72" y="597"/>
      <point x="52" y="587"/>
      <point x="45" y="567" type="curve"/>
      <point x="38" y="547"/>
      <point x="49" y="527"/>
      <point x="77" y="518" type="curve"/>
      <point x="108" y="508"/>
      <point x="155" y="507"/>
      <point x="191" y="502" type="curve"/>
      <point x="164" y="475"/>
      <point x="124" y="447"/>
      <point x="104" y="418" type="curve"/>
      <point x="87" y="394"/>
      <point x="90" y="372"/>
      <point x="107" y="360" type="curve"/>
      <point x="124" y="348"/>
      <point x="146" y="351"/>
      <point x="163" y="374" type="curve"/>
      <point x="186" y="405"/>
      <point x="202" y="457"/>
      <point x="220" y="490" type="curve"/>
      <point x="238" y="457"/>
      <point x="254" y="405"/>
      <point x="277" y="374" type="curve"/>
      <point x="294" y="351"/>
      <point x="316" y="347"/>
      <point x="333" y="360" type="curve"/>
      <point x="350" y="373"/>
      <point x="353" y="394"/>
      <point x="336" y="418" type="curve"/>
      <point x="316" y="447"/>
      <point x="276" y="475"/>
      <point x="249" y="502" type="curve"/>
      <point x="285" y="507"/>
      <point x="332" y="507"/>
      <point x="363" y="518" type="curve"/>
      <point x="391" y="528"/>
      <point x="401" y="547"/>
    </contour>
  </outline>
</glyph>
<glyph name="plus" format="1">
  <advance width="540"/>
  <unicode hex="002B"/>
  <outline>
    <contour>
      <point x="487" y="221" type="line"/>
      <point x="487" y="286" type="line"/>
      <point x="53" y="286" type="line"/>
      <point x="53" y="221" type="line"/>
    </contour>
    <contour>
      <point x="300" y="471" type="line"/>
      <point x="240" y="471" type="line"/>
      <point x="240" y="37" type="line"/>
      <point x="300" y="37" type="line"/>
    </contour>
  </outline>
</glyph>
<glyph name="comma" format="1">
  <advance width="234"/>
  <unicode hex="002C"/>
  <note>
    comma
  </note>
  <outline>
    <contour>
      <point x="28" y="-147" type="curve"/>
      <point x="43" y="-176" type="line"/>
      <point x="125" y="-144"/>
      <point x="184" y="-59"/>
      <point x="184" y="21" type="curve"/>
      <point x="184" y="83"/>
      <point x="151" y="112"/>
      <point x="116" y="112" type="curve"/>
      <point x="81" y="112"/>
      <point x="57" y="87"/>
      <point x="57" y="58" type="curve"/>
      <point x="57" y="4"/>
      <point x="111" y="7"/>
      <point x="111" y="-44" type="curve"/>
      <point x="111" y="-89"/>
      <point x="81" y="-123"/>
    </contour>
  </outline>
</glyph>
<glyph name="hyphen" format="1">
  <advance width="373"/>
  <unicode hex="002D"/>
  <note>
    hyphen
  </note>
  <outline>
    <contour>
      <point x="80" y="241" type="line"/>
      <point x="80" y="172" type="line"/>
      <point x="293" y="201" type="line"/>
      <point x="293" y="270" type="line"/>
    </contour>
  </outline>
</glyph>
<glyph name="period" format="1">
  <advance width="234"/>
  <unicode hex="002E"/>
  <note>
    period
  </note>
  <outline>
    <contour>
      <point x="117" y="-10" type="curve"/>
      <point x="153" y="-10"/>
      <point x="180" y="16"/>
      <point x="180" y="51" type="curve"/>
      <point x="180" y="86"/>
      <point x="153" y="112"/>
      <point x="117" y="112" type="curve"/>
      <point x="81" y="112"/>
      <point x="54" y="86"/>
      <point x="54" y="51" type="curve"/>
      <point x="54" y="16"/>
      <point x="81" y="-10"/>
    </contour>
  </outline>
</glyph>
<glyph name="slash" format="1">
  <advance width="366"/>
  <unicode hex="002F"/>
  <note>
    slash
  </note>
  <outline>
    <contour>
      <point x="321" y="728" type="line"/>
      <point x="20" y="-180" type="line"/>
      <point x="85" y="-180" type="line"/>
      <point x="386" y="728" type="line"/>
    </contour>
  </outline>
</glyph>
<glyph name="zero" format="1">
  <advance width="584"/>
  <unicode hex="0030"/>
  <note>
    zero
  </note>
  <outline>
    <contour>
      <point x="297" y="-9" type="curve"/>
      <point x="427" y="-9"/>
      <point x="529" y="125"/>
      <point x="529" y="298" type="curve"/>
      <point x="529" y="476"/>
      <point x="435" y="596"/>
      <point x="299" y="596" type="curve"/>
      <point x="158" y="596"/>
      <point x="55" y="469"/>
      <point x="55" y="291" type="curve"/>
      <point x="55" y="112"/>
      <point x="154" y="-9"/>
    </contour>
    <contour>
      <point x="303" y="43" type="curve"/>
      <point x="216" y="43"/>
      <point x="156" y="149"/>
      <point x="156" y="310" type="curve"/>
      <point x="156" y="461"/>
      <point x="208" y="547"/>
      <point x="291" y="547" type="curve"/>
      <point x="375" y="547"/>
      <point x="431" y="442"/>
      <point x="431" y="274" type="curve"/>
      <point x="431" y="130"/>
      <point x="381" y="43"/>
    </contour>
  </outline>
</glyph>
<glyph name="one" format="1">
  <advance width="345"/>
  <unicode hex="0031"/>
  <note>
    one
  </note>
  <outline>
    <contour>
      <point x="225" y="199" type="curve"/>
      <point x="225" y="402" type="line" smooth="yes"/>
      <point x="225" y="478"/>
      <point x="226" y="548"/>
      <point x="229" y="597" type="curve"/>
      <point x="46" y="520" type="line"/>
      <point x="49" y="476" type="line"/>
      <point x="76" y="483"/>
      <point x="118" y="492"/>
      <point x="135" y="495" type="curve"/>
      <point x="137" y="476"/>
      <point x="140" y="439"/>
      <point x="140" y="384" type="curve"/>
      <point x="140" y="199" type="line" smooth="yes"/>
      <point x="140" y="91"/>
      <point x="136" y="59"/>
      <point x="133" y="52" type="curve"/>
      <point x="124" y="48"/>
      <point x="84" y="41"/>
      <point x="54" y="38" type="curve"/>
      <point x="57" y="-3" type="line"/>
      <point x="97" y="-1"/>
      <point x="150" y="2"/>
      <point x="183" y="2" type="curve"/>
      <point x="215" y="2"/>
      <point x="268" y="-1"/>
      <point x="308" y="-3" type="curve"/>
      <point x="311" y="38" type="line"/>
      <point x="280" y="41"/>
      <point x="241" y="48"/>
      <point x="232" y="52" type="curve"/>
      <point x="228" y="59"/>
      <point x="225" y="91"/>
    </contour>
  </outline>
</glyph>
<glyph name="two" format="1">
  <advance width="501"/>
  <unicode hex="0032"/>
  <note>
    two
  </note>
  <outline>
    <contour>
      <point x="57" y="35" type="curve"/>
      <point x="61" y="-2" type="line"/>
      <point x="85" y="-1"/>
      <point x="110" y="0"/>
      <point x="135" y="0" type="curve"/>
      <point x="335" y="0" type="line" smooth="yes"/>
      <point x="375" y="0"/>
      <point x="409" y="-1"/>
      <point x="440" y="-4" type="curve"/>
      <point x="464" y="160" type="line"/>
      <point x="422" y="165" type="line"/>
      <point x="411" y="135"/>
      <point x="400" y="111"/>
      <point x="389" y="82" type="curve"/>
      <point x="380" y="80"/>
      <point x="366" y="79"/>
      <point x="351" y="79" type="curve"/>
      <point x="145" y="79" type="line"/>
      <point x="141" y="62" type="line"/>
      <point x="318" y="189"/>
      <point x="409" y="313"/>
      <point x="409" y="422" type="curve"/>
      <point x="409" y="526"/>
      <point x="334" y="596"/>
      <point x="226" y="596" type="curve"/>
      <point x="141" y="596"/>
      <point x="70" y="547"/>
      <point x="37" y="465" type="curve"/>
      <point x="66" y="444" type="line"/>
      <point x="99" y="496"/>
      <point x="145" y="524"/>
      <point x="199" y="524" type="curve"/>
      <point x="271" y="524"/>
      <point x="314" y="475"/>
      <point x="314" y="402" type="curve"/>
      <point x="314" y="297"/>
      <point x="246" y="198"/>
    </contour>
  </outline>
</glyph>
<glyph name="three" format="1">
  <advance width="484"/>
  <unicode hex="0033"/>
  <note>
    three
  </note>
  <outline>
    <contour>
      <point x="254" y="325" type="curve"/>
      <point x="249" y="311" type="line"/>
      <point x="336" y="339"/>
      <point x="393" y="393"/>
      <point x="393" y="466" type="curve"/>
      <point x="393" y="542"/>
      <point x="331" y="596"/>
      <point x="233" y="596" type="curve"/>
      <point x="155" y="596"/>
      <point x="86" y="554"/>
      <point x="54" y="485" type="curve"/>
      <point x="83" y="464" type="line"/>
      <point x="114" y="505"/>
      <point x="157" y="525"/>
      <point x="203" y="525" type="curve"/>
      <point x="264" y="525"/>
      <point x="302" y="493"/>
      <point x="302" y="439" type="curve"/>
      <point x="302" y="373"/>
      <point x="251" y="331"/>
      <point x="152" y="320" type="curve"/>
      <point x="158" y="274" type="line"/>
      <point x="176" y="277"/>
      <point x="195" y="278"/>
      <point x="214" y="278" type="curve"/>
      <point x="292" y="278"/>
      <point x="342" y="233"/>
      <point x="342" y="162" type="curve"/>
      <point x="342" y="77"/>
      <point x="269" y="25"/>
      <point x="173" y="40" type="curve"/>
      <point x="219" y="26" type="line"/>
      <point x="155" y="80" type="line" smooth="yes"/>
      <point x="130" y="101"/>
      <point x="118" y="107"/>
      <point x="97" y="107" type="curve"/>
      <point x="74" y="107"/>
      <point x="57" y="90"/>
      <point x="57" y="67" type="curve"/>
      <point x="57" y="22"/>
      <point x="116" y="-9"/>
      <point x="199" y="-9" type="curve"/>
      <point x="329" y="-9"/>
      <point x="433" y="77"/>
      <point x="433" y="177" type="curve"/>
      <point x="433" y="266"/>
      <point x="364" y="321"/>
    </contour>
  </outline>
</glyph>
<glyph name="four" format="1">
  <advance width="526"/>
  <unicode hex="0034"/>
  <note>
    four
  </note>
  <outline>
    <contour>
      <point x="390" y="164" type="curve"/>
      <point x="389" y="442" type="line"/>
      <point x="389" y="493"/>
      <point x="390" y="543"/>
      <point x="392" y="591" type="curve"/>
      <point x="350" y="591" type="line"/>
      <point x="39" y="199" type="line"/>
      <point x="47" y="164" type="line"/>
      <point x="479" y="164" type="line"/>
      <point x="479" y="229" type="line"/>
      <point x="171" y="229" type="line" smooth="yes"/>
      <point x="148" y="229"/>
      <point x="125" y="231"/>
      <point x="103" y="232" type="curve"/>
      <point x="112" y="208" type="line"/>
      <point x="331" y="491" type="line"/>
      <point x="306" y="495" type="line"/>
      <point x="306" y="164" type="line"/>
      <point x="306" y="87"/>
      <point x="306" y="65"/>
      <point x="305" y="52" type="curve"/>
      <point x="295" y="48"/>
      <point x="257" y="41"/>
      <point x="226" y="38" type="curve"/>
      <point x="229" y="-3" type="line"/>
      <point x="269" y="-1"/>
      <point x="315" y="2"/>
      <point x="348" y="2" type="curve"/>
      <point x="380" y="2"/>
      <point x="421" y="-1"/>
      <point x="452" y="-3" type="curve"/>
      <point x="454" y="38" type="line"/>
      <point x="431" y="41"/>
      <point x="400" y="48"/>
      <point x="393" y="52" type="curve"/>
      <point x="391" y="65"/>
      <point x="390" y="87"/>
    </contour>
  </outline>
</glyph>
<glyph name="five" format="1">
  <advance width="484"/>
  <unicode hex="0035"/>
  <note>
    five
  </note>
  <outline>
    <contour>
      <point x="189" y="-9" type="curve"/>
      <point x="319" y="-9"/>
      <point x="423" y="77"/>
      <point x="423" y="173" type="curve"/>
      <point x="423" y="284"/>
      <point x="334" y="344"/>
      <point x="132" y="368" type="curve"/>
      <point x="158" y="327" type="line"/>
      <point x="178" y="505" type="line"/>
      <point x="388" y="505" type="line"/>
      <point x="396" y="587" type="line"/>
      <point x="135" y="587" type="line"/>
      <point x="100" y="291" type="line"/>
      <point x="281" y="268"/>
      <point x="332" y="234"/>
      <point x="332" y="152" type="curve"/>
      <point x="332" y="77"/>
      <point x="259" y="25"/>
      <point x="163" y="40" type="curve"/>
      <point x="209" y="26" type="line"/>
      <point x="145" y="80" type="line" smooth="yes"/>
      <point x="120" y="101"/>
      <point x="108" y="107"/>
      <point x="87" y="107" type="curve"/>
      <point x="64" y="107"/>
      <point x="47" y="90"/>
      <point x="47" y="67" type="curve"/>
      <point x="47" y="22"/>
      <point x="106" y="-9"/>
    </contour>
  </outline>
</glyph>
<glyph name="six" format="1">
  <advance width="525"/>
  <unicode hex="0036"/>
  <note>
    six
  </note>
  <outline>
    <contour>
      <point x="144" y="246" type="curve"/>
      <point x="147" y="208" type="line"/>
      <point x="175" y="252"/>
      <point x="217" y="279"/>
      <point x="265" y="279" type="curve"/>
      <point x="331" y="279"/>
      <point x="376" y="230"/>
      <point x="376" y="157" type="curve"/>
      <point x="376" y="88"/>
      <point x="334" y="39"/>
      <point x="278" y="39" type="curve"/>
      <point x="206" y="39"/>
      <point x="161" y="109"/>
      <point x="161" y="215" type="curve"/>
      <point x="161" y="398"/>
      <point x="253" y="513"/>
      <point x="433" y="559" type="curve"/>
      <point x="417" y="605" type="line"/>
      <point x="203" y="571"/>
      <point x="65" y="411"/>
      <point x="65" y="215" type="curve"/>
      <point x="65" y="80"/>
      <point x="147" y="-9"/>
      <point x="271" y="-9" type="curve"/>
      <point x="379" y="-9"/>
      <point x="469" y="77"/>
      <point x="469" y="182" type="curve"/>
      <point x="469" y="277"/>
      <point x="395" y="347"/>
      <point x="299" y="347" type="curve"/>
      <point x="238" y="347"/>
      <point x="179" y="308"/>
    </contour>
  </outline>
</glyph>
<glyph name="seven" format="1">
  <advance width="475"/>
  <unicode hex="0037"/>
  <note>
    seven
  </note>
  <outline>
    <contour>
      <point x="146" y="0" type="line"/>
      <point x="227" y="0" type="line"/>
      <point x="452" y="552" type="line"/>
      <point x="448" y="588" type="line"/>
      <point x="423" y="588"/>
      <point x="396" y="587"/>
      <point x="372" y="587" type="curve"/>
      <point x="160" y="587" type="line" smooth="yes"/>
      <point x="120" y="587"/>
      <point x="85" y="588"/>
      <point x="56" y="591" type="curve"/>
      <point x="33" y="426" type="line"/>
      <point x="74" y="421" type="line"/>
      <point x="86" y="451"/>
      <point x="95" y="478"/>
      <point x="104" y="501" type="curve"/>
      <point x="113" y="503"/>
      <point x="128" y="504"/>
      <point x="142" y="504" type="curve"/>
      <point x="394" y="504" type="line"/>
      <point x="394" y="539" type="line"/>
      <point x="146" y="31" type="line"/>
    </contour>
  </outline>
</glyph>
<glyph name="eight" format="1">
  <advance width="556"/>
  <unicode hex="0038"/>
  <note>
    eight
  </note>
  <outline>
    <contour>
      <point x="271" y="-9" type="curve"/>
      <point x="399" y="-9"/>
      <point x="487" y="61"/>
      <point x="487" y="160" type="curve"/>
      <point x="487" y="343"/>
      <point x="179" y="306"/>
      <point x="179" y="461" type="curve"/>
      <point x="179" y="516"/>
      <point x="220" y="550"/>
      <point x="276" y="550" type="curve"/>
      <point x="343" y="550"/>
      <point x="382" y="505"/>
      <point x="382" y="438" type="curve"/>
      <point x="382" y="388"/>
      <point x="365" y="350"/>
      <point x="324" y="307" type="curve"/>
      <point x="345" y="294" type="line"/>
      <point x="420" y="323"/>
      <point x="466" y="376"/>
      <point x="466" y="449" type="curve"/>
      <point x="466" y="533"/>
      <point x="392" y="596"/>
      <point x="285" y="596" type="curve"/>
      <point x="174" y="596"/>
      <point x="91" y="529"/>
      <point x="91" y="438" type="curve"/>
      <point x="91" y="241"/>
      <point x="398" y="283"/>
      <point x="398" y="132" type="curve"/>
      <point x="398" y="77"/>
      <point x="355" y="42"/>
      <point x="286" y="42" type="curve"/>
      <point x="203" y="42"/>
      <point x="157" y="91"/>
      <point x="157" y="153" type="curve"/>
      <point x="157" y="202"/>
      <point x="183" y="245"/>
      <point x="251" y="283" type="curve"/>
      <point x="222" y="301" type="line"/>
      <point x="126" y="277"/>
      <point x="68" y="223"/>
      <point x="68" y="145" type="curve"/>
      <point x="68" y="56"/>
      <point x="149" y="-9"/>
    </contour>
  </outline>
</glyph>
<glyph name="semicolon" format="1">
  <advance width="234"/>
  <unicode hex="003B"/>
  <note>
    semicolon
  </note>
  <outline>
    <contour>
      <point x="28" y="-147" type="curve"/>
      <point x="43" y="-176" type="line"/>
      <point x="125" y="-144"/>
      <point x="184" y="-59"/>
      <point x="184" y="21" type="curve"/>
      <point x="184" y="83"/>
      <point x="151" y="112"/>
      <point x="116" y="112" type="curve"/>
      <point x="81" y="112"/>
      <point x="57" y="87"/>
      <point x="57" y="58" type="curve"/>
      <point x="57" y="4"/>
      <point x="111" y="7"/>
      <point x="111" y="-44" type="curve"/>
      <point x="111" y="-89"/>
      <point x="81" y="-123"/>
    </contour>
    <contour>
      <point x="117" y="318" type="curve"/>
      <point x="153" y="318"/>
      <point x="180" y="344"/>
      <point x="180" y="379" type="curve"/>
      <point x="180" y="414"/>
      <point x="153" y="440"/>
      <point x="117" y="440" type="curve"/>
      <point x="81" y="440"/>
      <point x="54" y="414"/>
      <point x="54" y="379" type="curve"/>
      <point x="54" y="344"/>
      <point x="81" y="318"/>
    </contour>
  </outline>
</glyph>
<glyph name="less" format="1">
  <advance width="540"/>
  <unicode hex="003C"/>
  <outline>
    <contour>
      <point x="53" y="288" type="line"/>
      <point x="53" y="220" type="line"/>
      <point x="487" y="29" type="line"/>
      <point x="487" y="99" type="line"/>
      <point x="83" y="275" type="line"/>
      <point x="83" y="232" type="line"/>
      <point x="487" y="408" type="line"/>
      <point x="487" y="479" type="line"/>
    </contour>
  </outline>
</glyph>
<glyph name="A" format="1">
  <advance width="587"/>
  <unicode hex="0041"/>
  <note>
    A
  </note>
  <outline>
    <contour>
      <point x="2" y="38" type="curve"/>
      <point x="4" y="-2" type="line"/>
      <point x="32" y="0"/>
      <point x="63" y="1"/>
      <point x="86" y="1" type="curve"/>
      <point x="110" y="1"/>
      <point x="141" y="0"/>
      <point x="172" y="-2" type="curve"/>
      <point x="174" y="38" type="line"/>
      <point x="150" y="40"/>
      <point x="123" y="46"/>
      <point x="112" y="49" type="curve"/>
      <point x="166" y="201" type="line"/>
      <point x="177" y="231" type="line"/>
      <point x="284" y="516" type="line"/>
      <point x="258" y="503" type="line"/>
      <point x="367" y="231" type="line"/>
      <point x="378" y="200" type="line"/>
      <point x="438" y="50" type="line"/>
      <point x="430" y="47"/>
      <point x="400" y="40"/>
      <point x="377" y="38" type="curve"/>
      <point x="379" y="-2" type="line"/>
      <point x="409" y="0"/>
      <point x="448" y="1"/>
      <point x="481" y="1" type="curve"/>
      <point x="512" y="1"/>
      <point x="554" y="0"/>
      <point x="582" y="-2" type="curve"/>
      <point x="584" y="38" type="line"/>
      <point x="563" y="41"/>
      <point x="547" y="45"/>
      <point x="534" y="50" type="curve"/>
      <point x="315" y="605" type="line"/>
      <point x="257" y="570" type="line"/>
      <point x="51" y="49" type="line"/>
      <point x="40" y="45"/>
      <point x="22" y="40"/>
    </contour>
    <contour>
      <point x="144" y="238" type="curve"/>
      <point x="144" y="185" type="line"/>
      <point x="172" y="186"/>
      <point x="214" y="187"/>
      <point x="277" y="187" type="curve"/>
      <point x="340" y="187"/>
      <point x="382" y="186"/>
      <point x="409" y="185" type="curve"/>
      <point x="409" y="238" type="line"/>
      <point x="385" y="237"/>
      <point x="340" y="235"/>
      <point x="277" y="235" type="curve"/>
      <point x="214" y="235"/>
      <point x="169" y="237"/>
    </contour>
    <contour>
      <point x="275" y="0" type="move" name="bottom"/>
    </contour>
    <contour>
      <point x="544" y="0" type="move" name="ogonek"/>
    </contour>
    <contour>
      <point x="286" y="587" type="move" name="top"/>
    </contour>
  </outline>
</glyph>
<glyph name="B" format="1">
  <advance width="565"/>
  <unicode hex="0042"/>
  <note>
    B
  </note>
  <outline>
    <contour>
      <point x="106" y="52" type="curve"/>
      <point x="100" y="48"/>
      <point x="69" y="40"/>
      <point x="46" y="38" type="curve"/>
      <point x="48" y="-3" type="line"/>
      <point x="68" y="-1"/>
      <point x="123" y="2"/>
      <point x="172" y="2" type="curve"/>
      <point x="203" y="2"/>
      <point x="233" y="-1"/>
      <point x="267" y="-1" type="curve"/>
      <point x="431" y="-1"/>
      <point x="516" y="72"/>
      <point x="516" y="169" type="curve"/>
      <point x="516" y="259"/>
      <point x="448" y="313"/>
      <point x="319" y="317" type="curve"/>
      <point x="330" y="310" type="line"/>
      <point x="433" y="318"/>
      <point x="486" y="381"/>
      <point x="486" y="447" type="curve"/>
      <point x="486" y="538"/>
      <point x="417" y="589"/>
      <point x="291" y="589" type="curve"/>
      <point x="224" y="589"/>
      <point x="178" y="587"/>
      <point x="146" y="587" type="curve"/>
      <point x="113" y="587"/>
      <point x="82" y="586"/>
      <point x="48" y="588" type="curve"/>
      <point x="46" y="546" type="line"/>
      <point x="69" y="547"/>
      <point x="100" y="541"/>
      <point x="106" y="536" type="curve"/>
      <point x="110" y="530"/>
      <point x="114" y="496"/>
      <point x="114" y="387" type="curve"/>
      <point x="114" y="199" type="line" smooth="yes"/>
      <point x="114" y="91"/>
      <point x="109" y="58"/>
    </contour>
    <contour>
      <point x="198" y="177" type="curve"/>
      <point x="198" y="413" type="line" smooth="yes"/>
      <point x="198" y="494"/>
      <point x="199" y="532"/>
      <point x="200" y="539" type="curve"/>
      <point x="212" y="542"/>
      <point x="240" y="545"/>
      <point x="270" y="545" type="curve"/>
      <point x="345" y="545"/>
      <point x="395" y="511"/>
      <point x="395" y="437" type="curve"/>
      <point x="395" y="369"/>
      <point x="350" y="325"/>
      <point x="258" y="325" type="curve"/>
      <point x="234" y="325"/>
      <point x="208" y="325"/>
      <point x="185" y="327" type="curve"/>
      <point x="185" y="276" type="line"/>
      <point x="208" y="278"/>
      <point x="232" y="278"/>
      <point x="263" y="278" type="curve"/>
      <point x="369" y="278"/>
      <point x="425" y="239"/>
      <point x="425" y="159" type="curve"/>
      <point x="425" y="85"/>
      <point x="377" y="46"/>
      <point x="271" y="46" type="curve"/>
      <point x="247" y="46"/>
      <point x="213" y="50"/>
      <point x="201" y="53" type="curve"/>
      <point x="200" y="62"/>
      <point x="198" y="109"/>
    </contour>
    <contour>
      <point x="280" y="0" type="move" name="bottom"/>
    </contour>
    <contour>
      <point x="280" y="587" type="move" name="top"/>
    </contour>
  </outline>
</glyph>
<glyph name="C" format="1">
  <advance width="605"/>
  <unicode hex="0043"/>
  <note>
    C
  </note>
  <outline>
    <contour>
      <point x="369" y="-9" type="curve"/>
      <point x="438" y="-9"/>
      <point x="503" y="11"/>
      <point x="549" y="35" type="curve"/>
      <point x="560" y="76"/>
      <point x="570" y="119"/>
      <point x="577" y="161" type="curve"/>
      <point x="531" y="166" type="line"/>
      <point x="515" y="129"/>
      <point x="503" y="102"/>
      <point x="487" y="72" type="curve"/>
      <point x="456" y="53"/>
      <point x="421" y="44"/>
      <point x="379" y="44" type="curve"/>
      <point x="257" y="44"/>
      <point x="159" y="136"/>
      <point x="159" y="307" type="curve"/>
      <point x="159" y="436"/>
      <point x="223" y="545"/>
      <point x="373" y="545" type="curve"/>
      <point x="411" y="545"/>
      <point x="457" y="536"/>
      <point x="483" y="519" type="curve"/>
      <point x="495" y="488"/>
      <point x="504" y="456"/>
      <point x="513" y="424" type="curve"/>
      <point x="558" y="428" type="line"/>
      <point x="551" y="565" type="line"/>
      <point x="503" y="585"/>
      <point x="436" y="596"/>
      <point x="382" y="596" type="curve"/>
      <point x="174" y="596"/>
      <point x="53" y="456"/>
      <point x="53" y="289" type="curve"/>
      <point x="53" y="92"/>
      <point x="195" y="-9"/>
    </contour>
    <contour>
      <point x="350" y="0" type="move" name="bottom"/>
    </contour>
    <contour>
      <point x="350" y="587" type="move" name="top"/>
    </contour>
  </outline>
</glyph>
<glyph name="D" format="1">
  <advance width="681"/>
  <unicode hex="0044"/>
  <note>
    D
  </note>
  <outline>
    <contour>
      <point x="48" y="588" type="curve"/>
      <point x="46" y="546" type="line"/>
      <point x="69" y="546"/>
      <point x="100" y="541"/>
      <point x="107" y="536" type="curve"/>
      <point x="110" y="530"/>
      <point x="114" y="496"/>
      <point x="114" y="387" type="curve"/>
      <point x="114" y="199" type="line" smooth="yes"/>
      <point x="114" y="91"/>
      <point x="109" y="58"/>
      <point x="107" y="52" type="curve"/>
      <point x="100" y="48"/>
      <point x="69" y="40"/>
      <point x="46" y="38" type="curve"/>
      <point x="48" y="-3" type="line"/>
      <point x="68" y="-1"/>
      <point x="140" y="2"/>
      <point x="180" y="2" type="curve"/>
      <point x="217" y="2"/>
      <point x="266" y="-1"/>
      <point x="305" y="-1" type="curve"/>
      <point x="480" y="-1"/>
      <point x="628" y="110"/>
      <point x="628" y="300" type="curve"/>
      <point x="628" y="476"/>
      <point x="510" y="588"/>
      <point x="292" y="588" type="curve"/>
      <point x="240" y="588"/>
      <point x="188" y="586"/>
      <point x="149" y="586" type="curve"/>
      <point x="118" y="586"/>
      <point x="79" y="586"/>
    </contour>
    <contour>
      <point x="201" y="533" type="curve"/>
      <point x="223" y="538"/>
      <point x="252" y="540"/>
      <point x="281" y="540" type="curve"/>
      <point x="441" y="540"/>
      <point x="526" y="443"/>
      <point x="526" y="271" type="curve"/>
      <point x="526" y="125"/>
      <point x="448" y="52"/>
      <point x="311" y="52" type="curve"/>
      <point x="269" y="52"/>
      <point x="236" y="56"/>
      <point x="204" y="61" type="curve"/>
      <point x="202" y="77"/>
      <point x="199" y="111"/>
      <point x="199" y="199" type="curve"/>
      <point x="199" y="387" type="line" smooth="yes"/>
      <point x="199" y="484"/>
      <point x="201" y="514"/>
    </contour>
    <contour>
      <point x="344" y="0" type="move" name="bottom"/>
    </contour>
    <contour>
      <point x="344" y="294" type="move" name="center"/>
    </contour>
    <contour>
      <point x="201" y="294" type="move" name="stroke"/>
    </contour>
    <contour>
      <point x="344" y="587" type="move" name="top"/>
    </contour>
  </outline>
</glyph>
<glyph name="F" format="1">
  <advance width="508"/>
  <unicode hex="0046"/>
  <note>
    F
  </note>
  <outline>
    <contour>
      <point x="52" y="38" type="curve"/>
      <point x="54" y="-3" type="line"/>
      <point x="82" y="-1"/>
      <point x="136" y="1"/>
      <point x="168" y="1" type="curve"/>
      <point x="199" y="1"/>
      <point x="254" y="-1"/>
      <point x="285" y="-3" type="curve"/>
      <point x="287" y="40" type="line"/>
      <point x="262" y="43"/>
      <point x="217" y="50"/>
      <point x="206" y="52" type="curve"/>
      <point x="202" y="59"/>
      <point x="199" y="91"/>
      <point x="199" y="188" type="curve"/>
      <point x="199" y="423" type="line" smooth="yes"/>
      <point x="199" y="468"/>
      <point x="200" y="525"/>
      <point x="201" y="535" type="curve"/>
      <point x="215" y="537"/>
      <point x="242" y="539"/>
      <point x="262" y="539" type="curve"/>
      <point x="372" y="539" type="line" smooth="yes"/>
      <point x="384" y="539"/>
      <point x="398" y="538"/>
      <point x="409" y="536" type="curve"/>
      <point x="422" y="512"/>
      <point x="433" y="486"/>
      <point x="444" y="452" type="curve"/>
      <point x="489" y="459" type="line"/>
      <point x="469" y="591" type="line"/>
      <point x="437" y="589"/>
      <point x="400" y="587"/>
      <point x="369" y="587" type="curve"/>
      <point x="159" y="587" type="line" smooth="yes"/>
      <point x="128" y="587"/>
      <point x="80" y="588"/>
      <point x="49" y="589" type="curve"/>
      <point x="47" y="548" type="line"/>
      <point x="71" y="547"/>
      <point x="102" y="539"/>
      <point x="108" y="534" type="curve"/>
      <point x="112" y="528"/>
      <point x="115" y="496"/>
      <point x="115" y="387" type="curve"/>
      <point x="115" y="199" type="line" smooth="yes"/>
      <point x="115" y="91"/>
      <point x="112" y="59"/>
      <point x="108" y="52" type="curve"/>
      <point x="102" y="48"/>
      <point x="72" y="40"/>
    </contour>
    <contour>
      <point x="374" y="198" type="curve"/>
      <point x="417" y="198" type="line"/>
      <point x="416" y="232"/>
      <point x="415" y="269"/>
      <point x="415" y="299" type="curve"/>
      <point x="415" y="328"/>
      <point x="416" y="363"/>
      <point x="417" y="395" type="curve"/>
      <point x="374" y="395" type="line"/>
      <point x="371" y="374"/>
      <point x="366" y="343"/>
      <point x="361" y="327" type="curve"/>
      <point x="353" y="325"/>
      <point x="337" y="323"/>
      <point x="312" y="323" type="curve"/>
      <point x="229" y="323" type="line" smooth="yes"/>
      <point x="211" y="323"/>
      <point x="193" y="325"/>
      <point x="177" y="326" type="curve"/>
      <point x="177" y="272" type="line"/>
      <point x="193" y="273"/>
      <point x="211" y="274"/>
      <point x="229" y="274" type="curve"/>
      <point x="312" y="274" type="line" smooth="yes"/>
      <point x="337" y="274"/>
      <point x="353" y="273"/>
      <point x="361" y="270" type="curve"/>
      <point x="366" y="254"/>
      <point x="371" y="220"/>
    </contour>
    <contour>
      <point x="158" y="0" type="move" name="bottom"/>
    </contour>
    <contour>
      <point x="262" y="587" type="move" name="top"/>
    </contour>
  </outline>
</glyph>
<glyph name="G" format="1">
  <advance width="657"/>
  <unicode hex="0047"/>
  <note>
    G
  </note>
  <outline>
    <contour>
      <point x="376" y="-9" type="curve"/>
      <point x="440" y="-9"/>
      <point x="520" y="12"/>
      <point x="572" y="46" type="curve"/>
      <point x="570" y="81"/>
      <point x="569" y="109"/>
      <point x="569" y="155" type="curve"/>
      <point x="569" y="191"/>
      <point x="569" y="218"/>
      <point x="570" y="225" type="curve"/>
      <point x="577" y="230"/>
      <point x="599" y="235"/>
      <point x="614" y="237" type="curve"/>
      <point x="612" y="277" type="line"/>
      <point x="594" y="276"/>
      <point x="557" y="274"/>
      <point x="525" y="274" type="curve"/>
      <point x="493" y="274"/>
      <point x="447" y="274"/>
      <point x="415" y="276" type="curve"/>
      <point x="414" y="235" type="line"/>
      <point x="439" y="234"/>
      <point x="471" y="228"/>
      <point x="479" y="224" type="curve"/>
      <point x="482" y="217"/>
      <point x="486" y="191"/>
      <point x="486" y="128" type="curve"/>
      <point x="486" y="23" type="line"/>
      <point x="510" y="79" type="line"/>
      <point x="474" y="54"/>
      <point x="424" y="44"/>
      <point x="387" y="44" type="curve"/>
      <point x="256" y="44"/>
      <point x="157" y="136"/>
      <point x="157" y="307" type="curve"/>
      <point x="157" y="436"/>
      <point x="222" y="545"/>
      <point x="376" y="545" type="curve"/>
      <point x="413" y="545"/>
      <point x="460" y="537"/>
      <point x="486" y="519" type="curve"/>
      <point x="498" y="491"/>
      <point x="507" y="461"/>
      <point x="515" y="430" type="curve"/>
      <point x="560" y="434" type="line"/>
      <point x="553" y="565" type="line"/>
      <point x="507" y="585"/>
      <point x="439" y="596"/>
      <point x="385" y="596" type="curve"/>
      <point x="174" y="596"/>
      <point x="52" y="456"/>
      <point x="52" y="288" type="curve"/>
      <point x="52" y="92"/>
      <point x="194" y="-9"/>
    </contour>
    <contour>
      <point x="353" y="0" type="move" name="bottom"/>
    </contour>
    <contour>
      <point x="353" y="587" type="move" name="top"/>
    </contour>
  </outline>
</glyph>
<glyph name="H" format="1">
  <advance width="675"/>
  <unicode hex="0048"/>
  <note>
    H
  </note>
  <outline>
    <contour>
      <point x="409" y="38" type="curve"/>
      <point x="411" y="-3" type="line"/>
      <point x="442" y="-1"/>
      <point x="486" y="2"/>
      <point x="519" y="2" type="curve"/>
      <point x="552" y="2"/>
      <point x="596" y="-1"/>
      <point x="627" y="-3" type="curve"/>
      <point x="629" y="38" type="line"/>
      <point x="606" y="40"/>
      <point x="575" y="48"/>
      <point x="568" y="52" type="curve"/>
      <point x="564" y="59"/>
      <point x="561" y="91"/>
      <point x="561" y="199" type="curve"/>
      <point x="561" y="387" type="line" smooth="yes"/>
      <point x="561" y="496"/>
      <point x="564" y="528"/>
      <point x="568" y="534" type="curve"/>
      <point x="575" y="539"/>
      <point x="606" y="547"/>
      <point x="629" y="548" type="curve"/>
      <point x="627" y="589" type="line"/>
      <point x="596" y="587"/>
      <point x="552" y="585"/>
      <point x="519" y="585" type="curve"/>
      <point x="487" y="585"/>
      <point x="442" y="587"/>
      <point x="411" y="589" type="curve"/>
      <point x="409" y="548" type="line"/>
      <point x="432" y="547"/>
      <point x="462" y="539"/>
      <point x="469" y="534" type="curve"/>
      <point x="473" y="528"/>
      <point x="476" y="496"/>
      <point x="476" y="387" type="curve"/>
      <point x="476" y="199" type="line" smooth="yes"/>
      <point x="476" y="91"/>
      <point x="473" y="59"/>
      <point x="469" y="52" type="curve"/>
      <point x="462" y="48"/>
      <point x="432" y="40"/>
    </contour>
    <contour>
      <point x="46" y="38" type="curve"/>
      <point x="48" y="-3" type="line"/>
      <point x="79" y="-1"/>
      <point x="124" y="2"/>
      <point x="157" y="2" type="curve"/>
      <point x="190" y="2"/>
      <point x="234" y="-1"/>
      <point x="265" y="-3" type="curve"/>
      <point x="267" y="38" type="line"/>
      <point x="243" y="40"/>
      <point x="213" y="48"/>
      <point x="206" y="52" type="curve"/>
      <point x="202" y="59"/>
      <point x="199" y="91"/>
      <point x="199" y="199" type="curve"/>
      <point x="199" y="387" type="line" smooth="yes"/>
      <point x="199" y="496"/>
      <point x="202" y="528"/>
      <point x="206" y="534" type="curve"/>
      <point x="213" y="539"/>
      <point x="243" y="547"/>
      <point x="267" y="548" type="curve"/>
      <point x="265" y="589" type="line"/>
      <point x="234" y="587"/>
      <point x="190" y="585"/>
      <point x="157" y="585" type="curve"/>
      <point x="124" y="585"/>
      <point x="79" y="587"/>
      <point x="48" y="589" type="curve"/>
      <point x="46" y="548" type="line"/>
      <point x="70" y="547"/>
      <point x="101" y="539"/>
      <point x="108" y="534" type="curve"/>
      <point x="111" y="528"/>
      <point x="114" y="496"/>
      <point x="114" y="387" type="curve"/>
      <point x="114" y="199" type="line" smooth="yes"/>
      <point x="114" y="91"/>
      <point x="111" y="59"/>
      <point x="108" y="52" type="curve"/>
      <point x="101" y="48"/>
      <point x="70" y="40"/>
    </contour>
    <contour>
      <point x="189" y="331" type="curve"/>
      <point x="189" y="272" type="line"/>
      <point x="218" y="274"/>
      <point x="265" y="276"/>
      <point x="338" y="276" type="curve"/>
      <point x="411" y="276"/>
      <point x="457" y="274"/>
      <point x="486" y="272" type="curve"/>
      <point x="486" y="331" type="line"/>
      <point x="460" y="329"/>
      <point x="411" y="328"/>
      <point x="338" y="328" type="curve"/>
      <point x="265" y="328"/>
      <point x="215" y="329"/>
    </contour>
    <contour>
      <point x="338" y="0" type="move" name="bottom"/>
    </contour>
    <contour>
      <point x="338" y="434" type="move" name="center"/>
    </contour>
    <contour>
      <point x="338" y="587" type="move" name="top"/>
    </contour>
    <contour>
      <point x="27" y="587" type="move" name="topleft"/>
    </contour>
  </outline>
</glyph>
<glyph name="J" format="1">
  <advance width="313"/>
  <unicode hex="004A"/>
  <note>
    J
  </note>
  <outline>
    <contour>
      <point x="209" y="534" type="curve"/>
      <point x="215" y="537"/>
      <point x="245" y="547"/>
      <point x="266" y="548" type="curve"/>
      <point x="264" y="589" type="line"/>
      <point x="235" y="587"/>
      <point x="191" y="585"/>
      <point x="160" y="585" type="curve"/>
      <point x="127" y="585"/>
      <point x="79" y="587"/>
      <point x="45" y="589" type="curve"/>
      <point x="43" y="548" type="line"/>
      <point x="70" y="547"/>
      <point x="104" y="537"/>
      <point x="111" y="534" type="curve"/>
      <point x="114" y="526"/>
      <point x="117" y="496"/>
      <point x="117" y="387" type="curve"/>
      <point x="116" y="-27" type="line"/>
      <point x="116" y="-148"/>
      <point x="83" y="-169"/>
      <point x="36" y="-161" type="curve"/>
      <point x="71" y="-173" type="line"/>
      <point x="19" y="-121" type="line" smooth="yes"/>
      <point x="1" y="-103"/>
      <point x="-15" y="-95"/>
      <point x="-33" y="-95" type="curve"/>
      <point x="-56" y="-95"/>
      <point x="-72" y="-109"/>
      <point x="-72" y="-132" type="curve"/>
      <point x="-72" y="-171"/>
      <point x="-18" y="-203"/>
      <point x="41" y="-203" type="curve"/>
      <point x="131" y="-203"/>
      <point x="203" y="-132"/>
      <point x="203" y="16" type="curve"/>
      <point x="202" y="387" type="line"/>
      <point x="202" y="496"/>
      <point x="205" y="528"/>
    </contour>
    <contour>
      <point x="160" y="587" type="move" name="top"/>
    </contour>
  </outline>
</glyph>
<glyph name="K" format="1">
  <advance width="596"/>
  <unicode hex="004B"/>
  <note>
    K
  </note>
  <outline>
    <contour>
      <point x="363" y="38" type="curve"/>
      <point x="365" y="-3" type="line"/>
      <point x="396" y="-1"/>
      <point x="443" y="2"/>
      <point x="476" y="2" type="curve"/>
      <point x="513" y="2"/>
      <point x="557" y="1"/>
      <point x="601" y="-2" type="curve"/>
      <point x="601" y="39" type="line"/>
      <point x="580" y="42"/>
      <point x="565" y="45"/>
      <point x="547" y="51" type="curve"/>
      <point x="532" y="64"/>
      <point x="511" y="89"/>
      <point x="478" y="126" type="curve"/>
      <point x="287" y="339" type="line"/>
      <point x="284" y="309" type="line"/>
      <point x="525" y="537" type="line"/>
      <point x="543" y="541"/>
      <point x="567" y="545"/>
      <point x="583" y="547" type="curve"/>
      <point x="581" y="588" type="line"/>
      <point x="556" y="587"/>
      <point x="516" y="586"/>
      <point x="489" y="586" type="curve"/>
      <point x="463" y="586"/>
      <point x="415" y="586"/>
      <point x="386" y="587" type="curve"/>
      <point x="385" y="546" type="line"/>
      <point x="403" y="545"/>
      <point x="428" y="541"/>
      <point x="447" y="536" type="curve"/>
      <point x="241" y="323" type="line"/>
      <point x="188" y="309" type="line"/>
      <point x="188" y="272" type="line"/>
      <point x="229" y="272" type="line"/>
      <point x="382" y="98" type="line" smooth="yes"/>
      <point x="400" y="78"/>
      <point x="413" y="61"/>
      <point x="422" y="49" type="curve"/>
      <point x="414" y="46"/>
      <point x="385" y="40"/>
    </contour>
    <contour>
      <point x="48" y="38" type="curve"/>
      <point x="50" y="-3" type="line"/>
      <point x="80" y="-1"/>
      <point x="124" y="2"/>
      <point x="157" y="2" type="curve"/>
      <point x="190" y="2"/>
      <point x="234" y="-1"/>
      <point x="264" y="-3" type="curve"/>
      <point x="266" y="38" type="line"/>
      <point x="244" y="40"/>
      <point x="213" y="48"/>
      <point x="205" y="52" type="curve"/>
      <point x="202" y="59"/>
      <point x="200" y="91"/>
      <point x="200" y="199" type="curve"/>
      <point x="200" y="387" type="line" smooth="yes"/>
      <point x="200" y="496"/>
      <point x="203" y="529"/>
      <point x="207" y="535" type="curve"/>
      <point x="214" y="540"/>
      <point x="244" y="548"/>
      <point x="268" y="548" type="curve"/>
      <point x="266" y="589" type="line"/>
      <point x="235" y="587"/>
      <point x="190" y="585"/>
      <point x="157" y="585" type="curve"/>
      <point x="124" y="585"/>
      <point x="79" y="587"/>
      <point x="48" y="589" type="curve"/>
      <point x="46" y="548" type="line"/>
      <point x="70" y="548"/>
      <point x="101" y="540"/>
      <point x="108" y="535" type="curve"/>
      <point x="111" y="529"/>
      <point x="114" y="496"/>
      <point x="114" y="387" type="curve"/>
      <point x="114" y="199" type="line" smooth="yes"/>
      <point x="114" y="91"/>
      <point x="111" y="59"/>
      <point x="108" y="52" type="curve"/>
      <point x="101" y="48"/>
      <point x="71" y="40"/>
    </contour>
    <contour>
      <point x="316" y="0" type="move" name="bottom"/>
    </contour>
    <contour>
      <point x="316" y="587" type="move" name="top"/>
    </contour>
  </outline>
</glyph>
<glyph name="L" format="1">
  <advance width="520"/>
  <unicode hex="004C"/>
  <note>
    L
  </note>
  <outline>
    <contour>
      <point x="470" y="-5" type="curve"/>
      <point x="511" y="148" type="line"/>
      <point x="466" y="158" type="line"/>
      <point x="448" y="120"/>
      <point x="432" y="88"/>
      <point x="414" y="60" type="curve"/>
      <point x="389" y="56"/>
      <point x="369" y="56"/>
      <point x="342" y="56" type="curve"/>
      <point x="268" y="56" type="line" smooth="yes"/>
      <point x="239" y="56"/>
      <point x="221" y="57"/>
      <point x="205" y="59" type="curve"/>
      <point x="204" y="69"/>
      <point x="202" y="115"/>
      <point x="202" y="199" type="curve"/>
      <point x="202" y="387" type="line" smooth="yes"/>
      <point x="202" y="496"/>
      <point x="205" y="528"/>
      <point x="209" y="534" type="curve"/>
      <point x="216" y="539"/>
      <point x="249" y="544"/>
      <point x="292" y="547" type="curve"/>
      <point x="290" y="589" type="line"/>
      <point x="254" y="587"/>
      <point x="209" y="586"/>
      <point x="171" y="586" type="curve"/>
      <point x="139" y="586"/>
      <point x="81" y="587"/>
      <point x="50" y="589" type="curve"/>
      <point x="48" y="548" type="line"/>
      <point x="72" y="546"/>
      <point x="103" y="539"/>
      <point x="110" y="534" type="curve"/>
      <point x="113" y="528"/>
      <point x="116" y="496"/>
      <point x="116" y="387" type="curve"/>
      <point x="116" y="199" type="line" smooth="yes"/>
      <point x="116" y="91"/>
      <point x="113" y="59"/>
      <point x="110" y="52" type="curve"/>
      <point x="103" y="48"/>
      <point x="72" y="40"/>
      <point x="48" y="38" type="curve"/>
      <point x="50" y="-3" type="line"/>
      <point x="81" y="-1"/>
      <point x="129" y="0"/>
      <point x="160" y="0" type="curve"/>
      <point x="373" y="0" type="line" smooth="yes"/>
      <point x="405" y="0"/>
      <point x="439" y="-2"/>
    </contour>
    <contour>
      <point x="282" y="0" type="move" name="bottom"/>
    </contour>
    <contour>
      <point x="195" y="303" type="move" name="center"/>
    </contour>
    <contour>
      <point x="349" y="320" type="move" name="dotacc"/>
    </contour>
    <contour>
      <point x="159" y="587" type="move" name="top"/>
    </contour>
    <contour>
      <point x="368" y="587" type="move" name="topright"/>
    </contour>
  </outline>
</glyph>
<glyph name="M" format="1">
  <advance width="853"/>
  <unicode hex="004D"/>
  <note>
    M
  </note>
  <outline>
    <contour>
      <point x="53" y="588" type="curve"/>
      <point x="51" y="547" type="line"/>
      <point x="75" y="546"/>
      <point x="108" y="539"/>
      <point x="116" y="534" type="curve"/>
      <point x="117" y="520"/>
      <point x="118" y="493"/>
      <point x="117" y="401" type="curve"/>
      <point x="114" y="203" type="line" smooth="yes"/>
      <point x="113" y="122"/>
      <point x="112" y="65"/>
      <point x="109" y="52" type="curve"/>
      <point x="102" y="48"/>
      <point x="71" y="40"/>
      <point x="45" y="39" type="curve"/>
      <point x="47" y="-3" type="line"/>
      <point x="80" y="-1"/>
      <point x="112" y="1"/>
      <point x="143" y="1" type="curve"/>
      <point x="168" y="1"/>
      <point x="205" y="-1"/>
      <point x="238" y="-3" type="curve"/>
      <point x="240" y="39" type="line"/>
      <point x="214" y="40"/>
      <point x="183" y="48"/>
      <point x="176" y="52" type="curve"/>
      <point x="173" y="66"/>
      <point x="173" y="128"/>
      <point x="173" y="219" type="curve"/>
      <point x="172" y="558" type="line"/>
      <point x="148" y="558" type="line"/>
      <point x="394" y="-3" type="line"/>
      <point x="429" y="-3" type="line"/>
      <point x="671" y="558" type="line"/>
      <point x="645" y="558" type="line"/>
      <point x="648" y="203" type="line" smooth="yes"/>
      <point x="649" y="106"/>
      <point x="649" y="66"/>
      <point x="647" y="52" type="curve"/>
      <point x="640" y="48"/>
      <point x="609" y="40"/>
      <point x="585" y="38" type="curve"/>
      <point x="587" y="-3" type="line"/>
      <point x="618" y="-1"/>
      <point x="665" y="2"/>
      <point x="692" y="2" type="curve"/>
      <point x="722" y="2"/>
      <point x="770" y="-1"/>
      <point x="802" y="-3" type="curve"/>
      <point x="804" y="38" type="line"/>
      <point x="781" y="40"/>
      <point x="750" y="48"/>
      <point x="743" y="52" type="curve"/>
      <point x="740" y="72"/>
      <point x="741" y="118"/>
      <point x="738" y="218" type="curve"/>
      <point x="732" y="401" type="line" smooth="yes"/>
      <point x="729" y="493"/>
      <point x="731" y="528"/>
      <point x="732" y="535" type="curve"/>
      <point x="740" y="539"/>
      <point x="770" y="546"/>
      <point x="797" y="547" type="curve"/>
      <point x="795" y="588" type="line"/>
      <point x="765" y="587"/>
      <point x="730" y="586"/>
      <point x="705" y="586" type="curve"/>
      <point x="681" y="586"/>
      <point x="655" y="587"/>
      <point x="629" y="588" type="curve"/>
      <point x="422" y="109" type="line"/>
      <point x="440" y="109" type="line"/>
      <point x="231" y="588" type="line"/>
      <point x="204" y="587"/>
      <point x="169" y="586"/>
      <point x="143" y="586" type="curve"/>
      <point x="110" y="586"/>
      <point x="81" y="587"/>
    </contour>
    <contour>
      <point x="414" y="0" type="move" name="bottom"/>
    </contour>
    <contour>
      <point x="414" y="587" type="move" name="top"/>
    </contour>
  </outline>
</glyph>
<glyph name="N" format="1">
  <advance width="675"/>
  <unicode hex="004E"/>
  <note>
    N
  </note>
  <outline>
    <contour>
      <point x="506" y="367" type="curve"/>
      <point x="506" y="146" type="line"/>
      <point x="524" y="146" type="line"/>
      <point x="187" y="588" type="line"/>
      <point x="170" y="587"/>
      <point x="143" y="586"/>
      <point x="121" y="586" type="curve"/>
      <point x="99" y="586"/>
      <point x="79" y="586"/>
      <point x="48" y="588" type="curve"/>
      <point x="46" y="547" type="line"/>
      <point x="69" y="548"/>
      <point x="100" y="539"/>
      <point x="107" y="534" type="curve"/>
      <point x="111" y="522"/>
      <point x="114" y="496"/>
      <point x="114" y="394" type="curve"/>
      <point x="114" y="223" type="line" smooth="yes"/>
      <point x="114" y="103"/>
      <point x="110" y="59"/>
      <point x="107" y="52" type="curve"/>
      <point x="100" y="48"/>
      <point x="68" y="40"/>
      <point x="42" y="38" type="curve"/>
      <point x="44" y="-3" type="line"/>
      <point x="77" y="-1"/>
      <point x="111" y="1"/>
      <point x="138" y="1" type="curve"/>
      <point x="166" y="1"/>
      <point x="208" y="-1"/>
      <point x="242" y="-3" type="curve"/>
      <point x="244" y="38" type="line"/>
      <point x="218" y="40"/>
      <point x="185" y="48"/>
      <point x="179" y="52" type="curve"/>
      <point x="175" y="59"/>
      <point x="171" y="103"/>
      <point x="171" y="223" type="curve"/>
      <point x="171" y="488" type="line"/>
      <point x="149" y="488" type="line"/>
      <point x="518" y="-4" type="line"/>
      <point x="562" y="-4" type="line"/>
      <point x="562" y="43"/>
      <point x="561" y="87"/>
      <point x="561" y="129" type="curve"/>
      <point x="561" y="367" type="line" smooth="yes"/>
      <point x="561" y="484"/>
      <point x="565" y="529"/>
      <point x="568" y="535" type="curve"/>
      <point x="575" y="540"/>
      <point x="608" y="547"/>
      <point x="633" y="548" type="curve"/>
      <point x="631" y="589" type="line"/>
      <point x="598" y="587"/>
      <point x="565" y="586"/>
      <point x="537" y="586" type="curve"/>
      <point x="510" y="586"/>
      <point x="469" y="587"/>
      <point x="436" y="589" type="curve"/>
      <point x="434" y="548" type="line"/>
      <point x="460" y="547"/>
      <point x="492" y="540"/>
      <point x="499" y="535" type="curve"/>
      <point x="502" y="529"/>
      <point x="506" y="484"/>
    </contour>
    <contour>
      <point x="338" y="0" type="move" name="bottom"/>
    </contour>
    <contour>
      <point x="338" y="587" type="move" name="top"/>
    </contour>
  </outline>
</glyph>
<glyph name="O" format="1">
  <advance width="689"/>
  <unicode hex="004F"/>
  <note>
    O
  </note>
  <outline>
    <contour>
      <point x="350" y="-9" type="curve"/>
      <point x="504" y="-9"/>
      <point x="637" y="119"/>
      <point x="637" y="298" type="curve"/>
      <point x="637" y="474"/>
      <point x="520" y="596"/>
      <point x="353" y="596" type="curve"/>
      <point x="180" y="596"/>
      <point x="52" y="466"/>
      <point x="52" y="291" type="curve"/>
      <point x="52" y="114"/>
      <point x="175" y="-9"/>
    </contour>
    <contour>
      <point x="360" y="45" type="curve"/>
      <point x="241" y="45"/>
      <point x="156" y="155"/>
      <point x="156" y="310" type="curve"/>
      <point x="156" y="456"/>
      <point x="226" y="546"/>
      <point x="341" y="546" type="curve"/>
      <point x="457" y="546"/>
      <point x="536" y="435"/>
      <point x="536" y="274" type="curve"/>
      <point x="536" y="134"/>
      <point x="467" y="45"/>
    </contour>
    <contour>
      <point x="344" y="0" type="move" name="bottom"/>
    </contour>
    <contour>
      <point x="344" y="294" type="move" name="center"/>
    </contour>
    <contour>
      <point x="418" y="0" type="move" name="ogonek"/>
    </contour>
    <contour>
      <point x="344" y="587" type="move" name="top"/>
    </contour>
    <contour>
      <point x="19" y="587" type="move" name="topleft"/>
    </contour>
    <contour>
      <point x="670" y="587" type="move" name="topright"/>
    </contour>
  </outline>
</glyph>
<glyph name="P" format="1">
  <advance width="516"/>
  <unicode hex="0050"/>
  <note>
    P
  </note>
  <outline>
    <contour>
      <point x="51" y="38" type="curve"/>
      <point x="53" y="-3" type="line"/>
      <point x="81" y="-1"/>
      <point x="134" y="1"/>
      <point x="167" y="1" type="curve"/>
      <point x="200" y="1"/>
      <point x="252" y="-1"/>
      <point x="283" y="-3" type="curve"/>
      <point x="285" y="39" type="line"/>
      <point x="250" y="43"/>
      <point x="217" y="50"/>
      <point x="206" y="53" type="curve"/>
      <point x="202" y="59"/>
      <point x="199" y="91"/>
      <point x="199" y="188" type="curve"/>
      <point x="199" y="407" type="line" smooth="yes"/>
      <point x="199" y="466"/>
      <point x="200" y="528"/>
      <point x="201" y="538" type="curve"/>
      <point x="219" y="542"/>
      <point x="232" y="543"/>
      <point x="254" y="543" type="curve"/>
      <point x="326" y="543"/>
      <point x="383" y="500"/>
      <point x="383" y="405" type="curve"/>
      <point x="383" y="323"/>
      <point x="336" y="284"/>
      <point x="268" y="284" type="curve"/>
      <point x="234" y="284"/>
      <point x="212" y="289"/>
      <point x="183" y="297" type="curve"/>
      <point x="183" y="242" type="line"/>
      <point x="205" y="238"/>
      <point x="230" y="235"/>
      <point x="268" y="235" type="curve"/>
      <point x="378" y="235"/>
      <point x="473" y="306"/>
      <point x="473" y="418" type="curve"/>
      <point x="473" y="527"/>
      <point x="395" y="588"/>
      <point x="263" y="588" type="curve"/>
      <point x="224" y="588"/>
      <point x="194" y="586"/>
      <point x="167" y="586" type="curve"/>
      <point x="121" y="586"/>
      <point x="79" y="587"/>
      <point x="48" y="588" type="curve"/>
      <point x="46" y="547" type="line"/>
      <point x="70" y="546"/>
      <point x="101" y="539"/>
      <point x="108" y="534" type="curve"/>
      <point x="111" y="528"/>
      <point x="114" y="496"/>
      <point x="114" y="387" type="curve"/>
      <point x="114" y="199" type="line" smooth="yes"/>
      <point x="114" y="91"/>
      <point x="111" y="59"/>
      <point x="108" y="52" type="curve"/>
      <point x="101" y="48"/>
      <point x="71" y="40"/>
    </contour>
    <contour>
      <point x="157" y="0" type="move" name="bottom"/>
    </contour>
    <contour>
      <point x="255" y="587" type="move" name="top"/>
    </contour>
  </outline>
</glyph>
<glyph name="Q" format="1">
  <advance width="689"/>
  <unicode hex="0051"/>
  <note>
    Q
  </note>
  <outline>
    <contour>
      <point x="350" y="-8" type="curve"/>
      <point x="360" y="-6" type="line"/>
      <point x="507" y="-6"/>
      <point x="637" y="119"/>
      <point x="637" y="298" type="curve"/>
      <point x="637" y="474"/>
      <point x="520" y="596"/>
      <point x="353" y="596" type="curve"/>
      <point x="180" y="596"/>
      <point x="52" y="466"/>
      <point x="52" y="291" type="curve"/>
      <point x="52" y="114"/>
      <point x="175" y="-8"/>
    </contour>
    <contour>
      <point x="601" y="-135" type="curve"/>
      <point x="649" y="-135"/>
      <point x="695" y="-123"/>
      <point x="729" y="-103" type="curve"/>
      <point x="720" y="-63" type="line"/>
      <point x="699" y="-69"/>
      <point x="678" y="-72"/>
      <point x="658" y="-72" type="curve"/>
      <point x="616" y="-72"/>
      <point x="578" y="-61"/>
      <point x="529" y="-33" type="curve"/>
      <point x="490" y="-11"/>
      <point x="456" y="2"/>
      <point x="410" y="7" type="curve"/>
      <point x="276" y="7" type="line"/>
      <point x="320" y="-5"/>
      <point x="390" y="-58"/>
      <point x="434" y="-83" type="curve"/>
      <point x="504" y="-123"/>
      <point x="546" y="-135"/>
    </contour>
    <contour>
      <point x="360" y="45" type="curve"/>
      <point x="241" y="45"/>
      <point x="156" y="155"/>
      <point x="156" y="310" type="curve"/>
      <point x="156" y="456"/>
      <point x="226" y="546"/>
      <point x="341" y="546" type="curve"/>
      <point x="457" y="546"/>
      <point x="536" y="435"/>
      <point x="536" y="274" type="curve"/>
      <point x="536" y="134"/>
      <point x="467" y="45"/>
    </contour>
    <contour>
      <point x="344" y="0" type="move" name="bottom"/>
    </contour>
    <contour>
      <point x="344" y="587" type="move" name="top"/>
    </contour>
  </outline>
</glyph>
<glyph name="R" format="1">
  <advance width="571"/>
  <unicode hex="0052"/>
  <note>
    R
  </note>
  <outline>
    <contour>
      <point x="49" y="38" type="curve"/>
      <point x="51" y="-3" type="line"/>
      <point x="80" y="-1"/>
      <point x="125" y="2"/>
      <point x="157" y="2" type="curve"/>
      <point x="190" y="2"/>
      <point x="232" y="-1"/>
      <point x="263" y="-3" type="curve"/>
      <point x="265" y="38" type="line"/>
      <point x="242" y="40"/>
      <point x="214" y="48"/>
      <point x="204" y="52" type="curve"/>
      <point x="201" y="59"/>
      <point x="198" y="91"/>
      <point x="198" y="199" type="curve"/>
      <point x="198" y="402" type="line" smooth="yes"/>
      <point x="198" y="488"/>
      <point x="198" y="533"/>
      <point x="200" y="540" type="curve"/>
      <point x="211" y="544"/>
      <point x="234" y="546"/>
      <point x="258" y="546" type="curve"/>
      <point x="329" y="546"/>
      <point x="373" y="510"/>
      <point x="373" y="435" type="curve"/>
      <point x="373" y="361"/>
      <point x="324" y="318"/>
      <point x="243" y="318" type="curve"/>
      <point x="224" y="318"/>
      <point x="208" y="318"/>
      <point x="186" y="320" type="curve"/>
      <point x="186" y="273" type="line"/>
      <point x="249" y="273" type="line" smooth="yes"/>
      <point x="373" y="273"/>
      <point x="463" y="344"/>
      <point x="463" y="444" type="curve"/>
      <point x="463" y="539"/>
      <point x="396" y="589"/>
      <point x="269" y="589" type="curve"/>
      <point x="220" y="589"/>
      <point x="177" y="586"/>
      <point x="145" y="586" type="curve"/>
      <point x="113" y="586"/>
      <point x="83" y="586"/>
      <point x="48" y="588" type="curve"/>
      <point x="46" y="546" type="line"/>
      <point x="70" y="547"/>
      <point x="101" y="541"/>
      <point x="108" y="536" type="curve"/>
      <point x="111" y="530"/>
      <point x="114" y="496"/>
      <point x="114" y="387" type="curve"/>
      <point x="114" y="199" type="line" smooth="yes"/>
      <point x="114" y="91"/>
      <point x="111" y="59"/>
      <point x="110" y="52" type="curve"/>
      <point x="101" y="48"/>
      <point x="71" y="40"/>
    </contour>
    <contour>
      <point x="527" y="-10" type="curve"/>
      <point x="540" y="-10"/>
      <point x="557" y="-8"/>
      <point x="570" y="-6" type="curve"/>
      <point x="571" y="30" type="line"/>
      <point x="524" y="38"/>
      <point x="494" y="59"/>
      <point x="429" y="148" type="curve"/>
      <point x="321" y="307" type="line"/>
      <point x="246" y="290" type="line"/>
      <point x="314" y="166" type="line" smooth="yes"/>
      <point x="387" y="33"/>
      <point x="438" y="-10"/>
    </contour>
    <contour>
      <point x="312" y="0" type="move" name="bottom"/>
    </contour>
    <contour>
      <point x="269" y="587" type="move" name="top"/>
    </contour>
  </outline>
</glyph>
<glyph name="S" format="1">
  <advance width="479"/>
  <unicode hex="0053"/>
  <note>
    S
  </note>
  <outline>
    <contour>
      <point x="230" y="-9" type="curve"/>
      <point x="355" y="-9"/>
      <point x="445" y="61"/>
      <point x="445" y="157" type="curve"/>
      <point x="445" y="338"/>
      <point x="151" y="314"/>
      <point x="151" y="459" type="curve"/>
      <point x="151" y="513"/>
      <point x="195" y="549"/>
      <point x="262" y="549" type="curve"/>
      <point x="296" y="549"/>
      <point x="322" y="543"/>
      <point x="344" y="529" type="curve"/>
      <point x="356" y="503"/>
      <point x="363" y="478"/>
      <point x="372" y="445" type="curve"/>
      <point x="415" y="449" type="line"/>
      <point x="407" y="574" type="line"/>
      <point x="373" y="589"/>
      <point x="325" y="597"/>
      <point x="272" y="597" type="curve"/>
      <point x="148" y="597"/>
      <point x="60" y="530"/>
      <point x="60" y="433" type="curve"/>
      <point x="60" y="243"/>
      <point x="353" y="272"/>
      <point x="353" y="130" type="curve"/>
      <point x="353" y="75"/>
      <point x="309" y="41"/>
      <point x="244" y="41" type="curve"/>
      <point x="201" y="41"/>
      <point x="161" y="53"/>
      <point x="129" y="74" type="curve"/>
      <point x="120" y="102"/>
      <point x="111" y="130"/>
      <point x="101" y="165" type="curve"/>
      <point x="58" y="159" type="line"/>
      <point x="58" y="118"/>
      <point x="60" y="76"/>
      <point x="63" y="30" type="curve"/>
      <point x="102" y="7"/>
      <point x="171" y="-9"/>
    </contour>
    <contour>
      <point x="247" y="0" type="move" name="bottom"/>
    </contour>
    <contour>
      <point x="247" y="587" type="move" name="top"/>
    </contour>
  </outline>
</glyph>
<glyph name="T" format="1">
  <advance width="562"/>
  <unicode hex="0054"/>
  <note>
    T
  </note>
  <outline>
    <contour>
      <point x="520" y="591" type="curve"/>
      <point x="488" y="589"/>
      <point x="454" y="587"/>
      <point x="423" y="587" type="curve"/>
      <point x="137" y="587" type="line" smooth="yes"/>
      <point x="106" y="587"/>
      <point x="72" y="589"/>
      <point x="40" y="591" type="curve"/>
      <point x="34" y="537"/>
      <point x="27" y="483"/>
      <point x="19" y="429" type="curve"/>
      <point x="63" y="423" type="line"/>
      <point x="80" y="474"/>
      <point x="96" y="518"/>
      <point x="105" y="537" type="curve"/>
      <point x="116" y="539"/>
      <point x="129" y="540"/>
      <point x="141" y="540" type="curve"/>
      <point x="179" y="540" type="line" smooth="yes"/>
      <point x="193" y="540"/>
      <point x="219" y="540"/>
      <point x="236" y="538" type="curve"/>
      <point x="237" y="523"/>
      <point x="238" y="430"/>
      <point x="238" y="358" type="curve"/>
      <point x="238" y="223" type="line" smooth="yes"/>
      <point x="238" y="138"/>
      <point x="236" y="71"/>
      <point x="235" y="52" type="curve"/>
      <point x="215" y="48"/>
      <point x="170" y="42"/>
      <point x="153" y="40" type="curve"/>
      <point x="155" y="-3" type="line"/>
      <point x="187" y="-1"/>
      <point x="248" y="2"/>
      <point x="282" y="2" type="curve"/>
      <point x="316" y="2"/>
      <point x="375" y="-1"/>
      <point x="408" y="-3" type="curve"/>
      <point x="410" y="40" type="line"/>
      <point x="393" y="42"/>
      <point x="348" y="48"/>
      <point x="327" y="52" type="curve"/>
      <point x="326" y="71"/>
      <point x="324" y="138"/>
      <point x="324" y="223" type="curve"/>
      <point x="324" y="358" type="line" smooth="yes"/>
      <point x="324" y="430"/>
      <point x="325" y="523"/>
      <point x="326" y="538" type="curve"/>
      <point x="343" y="540"/>
      <point x="370" y="540"/>
      <point x="383" y="540" type="curve"/>
      <point x="419" y="540" type="line" smooth="yes"/>
      <point x="431" y="540"/>
      <point x="445" y="539"/>
      <point x="456" y="537" type="curve"/>
      <point x="465" y="518"/>
      <point x="482" y="474"/>
      <point x="498" y="424" type="curve"/>
      <point x="542" y="429" type="line"/>
      <point x="533" y="483"/>
      <point x="527" y="537"/>
    </contour>
    <contour>
      <point x="282" y="0" type="move" name="bottom"/>
    </contour>
    <contour>
      <point x="281" y="303" type="move" name="stroke"/>
    </contour>
    <contour>
      <point x="281" y="587" type="move" name="top"/>
    </contour>
  </outline>
</glyph>
<glyph name="U" format="1">
  <advance width="668"/>
  <unicode hex="0055"/>
  <note>
    U
  </note>
  <outline>
    <contour>
      <point x="45" y="588" type="curve"/>
      <point x="43" y="547" type="line"/>
      <point x="67" y="547"/>
      <point x="98" y="539"/>
      <point x="105" y="534" type="curve"/>
      <point x="108" y="528"/>
      <point x="111" y="496"/>
      <point x="111" y="387" type="curve"/>
      <point x="111" y="221" type="line" smooth="yes"/>
      <point x="111" y="75"/>
      <point x="198" y="-9"/>
      <point x="343" y="-9" type="curve"/>
      <point x="466" y="-9"/>
      <point x="558" y="67"/>
      <point x="558" y="235" type="curve"/>
      <point x="558" y="369" type="line" smooth="yes"/>
      <point x="558" y="490"/>
      <point x="562" y="528"/>
      <point x="566" y="534" type="curve"/>
      <point x="573" y="539"/>
      <point x="613" y="547"/>
      <point x="627" y="547" type="curve"/>
      <point x="625" y="588" type="line"/>
      <point x="593" y="587"/>
      <point x="554" y="586"/>
      <point x="525" y="586" type="curve"/>
      <point x="494" y="586"/>
      <point x="462" y="587"/>
      <point x="431" y="588" type="curve"/>
      <point x="429" y="547" type="line"/>
      <point x="453" y="547"/>
      <point x="484" y="539"/>
      <point x="491" y="534" type="curve"/>
      <point x="494" y="528"/>
      <point x="498" y="490"/>
      <point x="498" y="369" type="curve"/>
      <point x="498" y="240" type="line" smooth="yes"/>
      <point x="498" y="108"/>
      <point x="440" y="57"/>
      <point x="353" y="57" type="curve"/>
      <point x="261" y="57"/>
      <point x="199" y="107"/>
      <point x="198" y="233" type="curve"/>
      <point x="198" y="387" type="line"/>
      <point x="197" y="496"/>
      <point x="201" y="525"/>
      <point x="205" y="534" type="curve"/>
      <point x="212" y="539"/>
      <point x="243" y="547"/>
      <point x="267" y="547" type="curve"/>
      <point x="265" y="588" type="line"/>
      <point x="233" y="587"/>
      <point x="188" y="586"/>
      <point x="154" y="586" type="curve"/>
      <point x="121" y="586"/>
      <point x="76" y="587"/>
    </contour>
    <contour>
      <point x="348" y="0" type="move" name="bottom"/>
    </contour>
    <contour>
      <point x="413" y="0" type="move" name="ogonek"/>
    </contour>
    <contour>
      <point x="349" y="587" type="move" name="top"/>
    </contour>
    <contour>
      <point x="643" y="587" type="move" name="topright"/>
    </contour>
  </outline>
</glyph>
<glyph name="V" format="1">
  <advance width="591"/>
  <unicode hex="0056"/>
  <note>
    V
  </note>
  <outline>
    <contour>
      <point x="53" y="536" type="curve"/>
      <point x="272" y="-3" type="line"/>
      <point x="314" y="-3" type="line"/>
      <point x="537" y="536" type="line"/>
      <point x="543" y="539"/>
      <point x="567" y="546"/>
      <point x="586" y="547" type="curve"/>
      <point x="584" y="588" type="line"/>
      <point x="561" y="587"/>
      <point x="534" y="586"/>
      <point x="504" y="586" type="curve"/>
      <point x="477" y="586"/>
      <point x="435" y="587"/>
      <point x="406" y="588" type="curve"/>
      <point x="404" y="547" type="line"/>
      <point x="429" y="546"/>
      <point x="459" y="539"/>
      <point x="468" y="537" type="curve"/>
      <point x="305" y="99" type="line"/>
      <point x="328" y="99" type="line"/>
      <point x="155" y="537" type="line"/>
      <point x="162" y="539"/>
      <point x="193" y="546"/>
      <point x="218" y="547" type="curve"/>
      <point x="216" y="588" type="line"/>
      <point x="183" y="586"/>
      <point x="141" y="585"/>
      <point x="109" y="585" type="curve"/>
      <point x="76" y="585"/>
      <point x="33" y="586"/>
      <point x="6" y="588" type="curve"/>
      <point x="4" y="547" type="line"/>
      <point x="23" y="546"/>
      <point x="47" y="539"/>
    </contour>
    <contour>
      <point x="290" y="0" type="move" name="bottom"/>
    </contour>
    <contour>
      <point x="290" y="587" type="move" name="top"/>
    </contour>
  </outline>
</glyph>
<glyph name="W" format="1">
  <advance width="946"/>
  <unicode hex="0057"/>
  <note>
    W
  </note>
  <outline>
    <contour>
      <point x="311" y="-3" type="line"/>
      <point x="489" y="439" type="line"/>
      <point x="459" y="520" type="line"/>
      <point x="300" y="99" type="line"/>
      <point x="324" y="99" type="line"/>
      <point x="161" y="537" type="line"/>
      <point x="167" y="539"/>
      <point x="190" y="546"/>
      <point x="208" y="547" type="curve"/>
      <point x="206" y="588" type="line"/>
      <point x="182" y="587"/>
      <point x="145" y="586"/>
      <point x="114" y="586" type="curve"/>
      <point x="81" y="586"/>
      <point x="39" y="587"/>
      <point x="12" y="588" type="curve"/>
      <point x="10" y="547" type="line"/>
      <point x="29" y="546"/>
      <point x="53" y="539"/>
      <point x="59" y="536" type="curve"/>
      <point x="268" y="-3" type="line"/>
    </contour>
    <contour>
      <point x="423" y="536" type="curve"/>
      <point x="629" y="-3" type="line"/>
      <point x="672" y="-3" type="line"/>
      <point x="888" y="536" type="line"/>
      <point x="894" y="539"/>
      <point x="918" y="546"/>
      <point x="937" y="547" type="curve"/>
      <point x="935" y="588" type="line"/>
      <point x="912" y="588"/>
      <point x="889" y="587"/>
      <point x="859" y="587" type="curve"/>
      <point x="832" y="587"/>
      <point x="785" y="588"/>
      <point x="755" y="588" type="curve"/>
      <point x="753" y="547" type="line"/>
      <point x="779" y="546"/>
      <point x="811" y="539"/>
      <point x="819" y="537" type="curve"/>
      <point x="660" y="99" type="line"/>
      <point x="684" y="99" type="line"/>
      <point x="523" y="537" type="line"/>
      <point x="531" y="539"/>
      <point x="563" y="546"/>
      <point x="589" y="547" type="curve"/>
      <point x="587" y="588" type="line"/>
      <point x="553" y="587"/>
      <point x="516" y="586"/>
      <point x="484" y="586" type="curve"/>
      <point x="452" y="586"/>
      <point x="403" y="587"/>
      <point x="378" y="588" type="curve"/>
      <point x="376" y="547" type="line"/>
      <point x="394" y="546"/>
      <point x="417" y="539"/>
    </contour>
    <contour>
      <point x="474" y="0" type="move" name="bottom"/>
    </contour>
    <contour>
      <point x="474" y="587" type="move" name="top"/>
    </contour>
  </outline>
</glyph>
<glyph name="X" format="1">
  <advance width="586"/>
  <unicode hex="0058"/>
  <note>
    X
  </note>
  <outline>
    <contour>
      <point x="580" y="-3" type="curve"/>
      <point x="582" y="39" type="line"/>
      <point x="563" y="42"/>
      <point x="539" y="49"/>
      <point x="533" y="53" type="curve"/>
      <point x="337" y="326" type="line"/>
      <point x="309" y="367" type="line"/>
      <point x="189" y="535" type="line"/>
      <point x="196" y="539"/>
      <point x="225" y="547"/>
      <point x="248" y="547" type="curve"/>
      <point x="246" y="588" type="line"/>
      <point x="216" y="587"/>
      <point x="169" y="586"/>
      <point x="131" y="586" type="curve"/>
      <point x="90" y="586"/>
      <point x="54" y="587"/>
      <point x="30" y="588" type="curve"/>
      <point x="28" y="547" type="line"/>
      <point x="46" y="546"/>
      <point x="71" y="539"/>
      <point x="76" y="535" type="curve"/>
      <point x="250" y="294" type="line"/>
      <point x="282" y="253" type="line"/>
      <point x="421" y="53" type="line"/>
      <point x="414" y="49"/>
      <point x="383" y="41"/>
      <point x="360" y="39" type="curve"/>
      <point x="362" y="-3" type="line"/>
      <point x="393" y="-1"/>
      <point x="450" y="2"/>
      <point x="481" y="2" type="curve"/>
      <point x="513" y="2"/>
      <point x="555" y="-1"/>
    </contour>
    <contour>
      <point x="426" y="535" type="curve"/>
      <point x="309" y="367" type="line"/>
      <point x="250" y="294" type="line"/>
      <point x="71" y="53" type="line"/>
      <point x="65" y="49"/>
      <point x="41" y="42"/>
      <point x="21" y="39" type="curve"/>
      <point x="23" y="-2" type="line"/>
      <point x="49" y="-1"/>
      <point x="87" y="1"/>
      <point x="107" y="1" type="curve"/>
      <point x="126" y="1"/>
      <point x="169" y="-1"/>
      <point x="199" y="-2" type="curve"/>
      <point x="201" y="39" type="line"/>
      <point x="178" y="40"/>
      <point x="146" y="50"/>
      <point x="141" y="53" type="curve"/>
      <point x="282" y="253" type="line"/>
      <point x="337" y="326" type="line"/>
      <point x="495" y="535" type="line"/>
      <point x="500" y="539"/>
      <point x="524" y="546"/>
      <point x="543" y="547" type="curve"/>
      <point x="541" y="588" type="line"/>
      <point x="517" y="587"/>
      <point x="488" y="586"/>
      <point x="467" y="586" type="curve"/>
      <point x="439" y="586"/>
      <point x="391" y="587"/>
      <point x="372" y="588" type="curve"/>
      <point x="370" y="547" type="line"/>
      <point x="392" y="547"/>
      <point x="422" y="539"/>
    </contour>
    <contour>
      <point x="292" y="0" type="move" name="bottom"/>
    </contour>
    <contour>
      <point x="292" y="587" type="move" name="top"/>
    </contour>
  </outline>
</glyph>
<glyph name="Y" format="1">
  <advance width="543"/>
  <unicode hex="0059"/>
  <note>
    Y
  </note>
  <outline>
    <contour>
      <point x="288" y="218" type="line"/>
      <point x="494" y="537" type="line"/>
      <point x="506" y="541"/>
      <point x="530" y="546"/>
      <point x="542" y="547" type="curve"/>
      <point x="540" y="588" type="line"/>
      <point x="518" y="588"/>
      <point x="492" y="587"/>
      <point x="466" y="587" type="curve"/>
      <point x="440" y="587"/>
      <point x="394" y="588"/>
      <point x="364" y="588" type="curve"/>
      <point x="362" y="547" type="line"/>
      <point x="380" y="545"/>
      <point x="411" y="540"/>
      <point x="426" y="537" type="curve"/>
      <point x="284" y="299" type="line"/>
      <point x="299" y="299" type="line"/>
      <point x="151" y="537" type="line"/>
      <point x="165" y="540"/>
      <point x="197" y="545"/>
      <point x="217" y="547" type="curve"/>
      <point x="215" y="588" type="line"/>
      <point x="182" y="587"/>
      <point x="136" y="586"/>
      <point x="105" y="586" type="curve"/>
      <point x="72" y="586"/>
      <point x="30" y="587"/>
      <point x="3" y="588" type="curve"/>
      <point x="1" y="547" type="line"/>
      <point x="14" y="546"/>
      <point x="38" y="541"/>
      <point x="50" y="537" type="curve"/>
      <point x="249" y="218" type="line"/>
      <point x="229" y="286" type="line"/>
      <point x="229" y="191" type="line" smooth="yes"/>
      <point x="229" y="91"/>
      <point x="225" y="59"/>
      <point x="223" y="52" type="curve"/>
      <point x="216" y="48"/>
      <point x="186" y="40"/>
      <point x="153" y="39" type="curve"/>
      <point x="155" y="-3" type="line"/>
      <point x="195" y="-1"/>
      <point x="239" y="2"/>
      <point x="271" y="2" type="curve"/>
      <point x="304" y="2"/>
      <point x="346" y="-1"/>
      <point x="386" y="-3" type="curve"/>
      <point x="388" y="39" type="line"/>
      <point x="356" y="40"/>
      <point x="326" y="48"/>
      <point x="319" y="52" type="curve"/>
      <point x="317" y="59"/>
      <point x="313" y="91"/>
      <point x="313" y="191" type="curve"/>
      <point x="313" y="286" type="line"/>
    </contour>
    <contour>
      <point x="271" y="0" type="move" name="bottom"/>
    </contour>
    <contour>
      <point x="271" y="587" type="move" name="top"/>
    </contour>
    <contour>
      <point x="21" y="587" type="move" name="topleft"/>
    </contour>
  </outline>
</glyph>
<glyph name="Z" format="1">
  <advance width="538"/>
  <unicode hex="005A"/>
  <note>
    Z
  </note>
  <outline>
    <contour>
      <point x="488" y="-4" type="curve"/>
      <point x="512" y="160" type="line"/>
      <point x="471" y="165" type="line"/>
      <point x="454" y="115"/>
      <point x="441" y="79"/>
      <point x="428" y="54" type="curve"/>
      <point x="417" y="52"/>
      <point x="404" y="51"/>
      <point x="391" y="51" type="curve"/>
      <point x="156" y="51" type="line"/>
      <point x="156" y="17" type="line"/>
      <point x="484" y="553" type="line"/>
      <point x="484" y="589" type="line"/>
      <point x="459" y="588"/>
      <point x="433" y="587"/>
      <point x="408" y="587" type="curve"/>
      <point x="134" y="587" type="line" smooth="yes"/>
      <point x="109" y="587"/>
      <point x="81" y="587"/>
      <point x="51" y="588" type="curve"/>
      <point x="52" y="434" type="line"/>
      <point x="95" y="434" type="line"/>
      <point x="99" y="477"/>
      <point x="103" y="510"/>
      <point x="108" y="535" type="curve"/>
      <point x="126" y="538"/>
      <point x="145" y="539"/>
      <point x="174" y="539" type="curve"/>
      <point x="398" y="539" type="line"/>
      <point x="398" y="572" type="line"/>
      <point x="68" y="34" type="line"/>
      <point x="68" y="-2" type="line"/>
      <point x="93" y="-1"/>
      <point x="114" y="0"/>
      <point x="139" y="0" type="curve"/>
      <point x="391" y="0" type="line" smooth="yes"/>
      <point x="422" y="0"/>
      <point x="456" y="-2"/>
    </contour>
    <contour>
      <point x="270" y="0" type="move" name="bottom"/>
    </contour>
    <contour>
      <point x="270" y="587" type="move" name="top"/>
    </contour>
  </outline>
</glyph>
<glyph name="bracketleft" format="1">
  <advance width="325"/>
  <unicode hex="005B"/>
  <note>
    bracketleft
  </note>
  <outline>
    <contour>
      <point x="105" y="-220" type="line"/>
      <point x="280" y="-220" type="line"/>
      <point x="280" y="-173" type="line"/>
      <point x="185" y="-173" type="line"/>
      <point x="185" y="675" type="line"/>
      <point x="280" y="675" type="line"/>
      <point x="280" y="722" type="line"/>
      <point x="105" y="722" type="line"/>
    </contour>
  </outline>
</glyph>
<glyph name="backslash" format="1">
  <advance width="366"/>
  <unicode hex="005C"/>
  <note>
    backslash
  </note>
  <outline>
    <contour>
      <point x="281" y="-220" type="line"/>
      <point x="346" y="-220" type="line"/>
      <point x="45" y="728" type="line"/>
      <point x="-20" y="728" type="line"/>
    </contour>
  </outline>
</glyph>
<glyph name="bracketright" format="1">
  <advance width="325"/>
  <unicode hex="005D"/>
  <note>
    bracketright
  </note>
  <outline>
    <contour>
      <point x="45" y="-173" type="line"/>
      <point x="45" y="-220" type="line"/>
      <point x="220" y="-220" type="line"/>
      <point x="220" y="722" type="line"/>
      <point x="45" y="722" type="line"/>
      <point x="45" y="675" type="line"/>
      <point x="140" y="675" type="line"/>
      <point x="140" y="-173" type="line"/>
    </contour>
  </outline>
</glyph>
<glyph name="asciicircum" format="1">
  <advance width="550"/>
  <unicode hex="005E"/>
  <outline>
    <contour>
      <point x="500" y="126" type="line"/>
      <point x="308" y="560" type="line"/>
      <point x="244" y="560" type="line"/>
      <point x="51" y="126" type="line"/>
      <point x="118" y="126" type="line"/>
      <point x="296" y="529" type="line"/>
      <point x="255" y="529" type="line"/>
      <point x="433" y="126" type="line"/>
    </contour>
  </outline>
</glyph>
<glyph name="underscore" format="1">
  <advance width="405"/>
  <unicode hex="005F"/>
  <note>
    underscore
  </note>
  <outline>
    <contour>
      <point x="20" y="0" type="line"/>
      <point x="20" y="-58" type="line"/>
      <point x="385" y="-58" type="line"/>
      <point x="385" y="0" type="line"/>
    </contour>
  </outline>
</glyph>
<glyph name="e" format="1">
  <advance width="463"/>
  <unicode hex="0065"/>
  <note>
    e
  </note>
  <outline>
    <contour>
      <point x="250" y="-8" type="curve"/>
      <point x="321" y="-8"/>
      <point x="380" y="26"/>
      <point x="418" y="95" type="curve"/>
      <point x="392" y="118" type="line"/>
      <point x="355" y="73"/>
      <point x="320" y="59"/>
      <point x="275" y="59" type="curve"/>
      <point x="190" y="59"/>
      <point x="130" y="123"/>
      <point x="130" y="233" type="curve"/>
      <point x="130" y="245" type="line" smooth="yes"/>
      <point x="130" y="349"/>
      <point x="185" y="397"/>
      <point x="244" y="397" type="curve"/>
      <point x="303" y="397"/>
      <point x="339" y="353"/>
      <point x="339" y="276" type="curve"/>
      <point x="339" y="255" type="line"/>
      <point x="351" y="269" type="line"/>
      <point x="109" y="269" type="line"/>
      <point x="109" y="224" type="line"/>
      <point x="416" y="224" type="line"/>
      <point x="416" y="241" type="line" smooth="yes"/>
      <point x="416" y="358"/>
      <point x="362" y="437"/>
      <point x="252" y="438" type="curve"/>
      <point x="142" y="439"/>
      <point x="44" y="352"/>
      <point x="44" y="206" type="curve"/>
      <point x="44" y="74"/>
      <point x="134" y="-8"/>
    </contour>
    <contour>
      <point x="242" y="0" type="move" name="bottom"/>
    </contour>
    <contour>
      <point x="365" y="0" type="move" name="ogonek"/>
    </contour>
    <contour>
      <point x="242" y="430" type="move" name="top"/>
    </contour>
  </outline>
</glyph>
<glyph name="h" format="1">
  <advance width="556"/>
  <unicode hex="0068"/>
  <note>
    h
  </note>
  <outline>
    <contour>
      <point x="27" y="37" type="curve"/>
      <point x="30" y="-3" type="line"/>
      <point x="65" y="0"/>
      <point x="103" y="2"/>
      <point x="136" y="2" type="curve"/>
      <point x="169" y="2"/>
      <point x="210" y="0"/>
      <point x="245" y="-3" type="curve"/>
      <point x="248" y="36" type="line"/>
      <point x="229" y="37"/>
      <point x="188" y="47"/>
      <point x="179" y="51" type="curve"/>
      <point x="177" y="57"/>
      <point x="173" y="81"/>
      <point x="173" y="165" type="curve"/>
      <point x="173" y="316" type="line"/>
      <point x="203" y="358"/>
      <point x="243" y="377"/>
      <point x="283" y="377" type="curve"/>
      <point x="334" y="377"/>
      <point x="384" y="342"/>
      <point x="384" y="258" type="curve"/>
      <point x="384" y="148" type="line" smooth="yes"/>
      <point x="384" y="81"/>
      <point x="382" y="58"/>
      <point x="379" y="51" type="curve"/>
      <point x="371" y="47"/>
      <point x="334" y="38"/>
      <point x="315" y="37" type="curve"/>
      <point x="318" y="-3" type="line"/>
      <point x="353" y="0"/>
      <point x="391" y="2"/>
      <point x="424" y="2" type="curve"/>
      <point x="457" y="2"/>
      <point x="498" y="0"/>
      <point x="533" y="-3" type="curve"/>
      <point x="536" y="36" type="line"/>
      <point x="517" y="37"/>
      <point x="476" y="47"/>
      <point x="467" y="51" type="curve"/>
      <point x="465" y="57"/>
      <point x="460" y="78"/>
      <point x="460" y="155" type="curve"/>
      <point x="460" y="264" type="line" smooth="yes"/>
      <point x="460" y="382"/>
      <point x="390" y="438"/>
      <point x="317" y="438" type="curve"/>
      <point x="263" y="438"/>
      <point x="219" y="416"/>
      <point x="175" y="367" type="curve"/>
      <point x="172" y="368" type="line"/>
      <point x="174" y="525"/>
      <point x="175" y="597"/>
      <point x="178" y="680" type="curve"/>
      <point x="159" y="694" type="line"/>
      <point x="120" y="678"/>
      <point x="75" y="662"/>
      <point x="27" y="651" type="curve"/>
      <point x="29" y="620" type="line"/>
      <point x="46" y="619"/>
      <point x="75" y="617"/>
      <point x="93" y="615" type="curve"/>
      <point x="95" y="591"/>
      <point x="97" y="454"/>
      <point x="97" y="363" type="curve"/>
      <point x="97" y="238" type="line" smooth="yes"/>
      <point x="97" y="111"/>
      <point x="94" y="58"/>
      <point x="91" y="51" type="curve"/>
      <point x="83" y="47"/>
      <point x="46" y="38"/>
    </contour>
    <contour>
      <point x="279" y="0" type="move" name="bottom"/>
    </contour>
    <contour>
      <point x="198" y="519" type="move" name="stroke"/>
    </contour>
    <contour>
      <point x="135" y="660" type="move" name="top"/>
    </contour>
  </outline>
</glyph>
<glyph name="m" format="1">
  <advance width="829"/>
  <unicode hex="006D"/>
  <note>
    m
  </note>
  <outline>
    <contour>
      <point x="29" y="37" type="curve"/>
      <point x="32" y="-3" type="line"/>
      <point x="67" y="0"/>
      <point x="105" y="2"/>
      <point x="138" y="2" type="curve"/>
      <point x="171" y="2"/>
      <point x="209" y="0"/>
      <point x="242" y="-3" type="curve"/>
      <point x="245" y="36" type="line"/>
      <point x="231" y="38"/>
      <point x="190" y="47"/>
      <point x="181" y="51" type="curve"/>
      <point x="179" y="57"/>
      <point x="175" y="81"/>
      <point x="175" y="165" type="curve"/>
      <point x="175" y="316" type="line"/>
      <point x="203" y="358"/>
      <point x="241" y="377"/>
      <point x="281" y="377" type="curve"/>
      <point x="331" y="377"/>
      <point x="378" y="344"/>
      <point x="378" y="259" type="curve"/>
      <point x="378" y="148" type="line"/>
      <point x="378" y="81"/>
      <point x="376" y="58"/>
      <point x="373" y="51" type="curve"/>
      <point x="365" y="47"/>
      <point x="330" y="39"/>
      <point x="312" y="37" type="curve"/>
      <point x="315" y="-3" type="line"/>
      <point x="349" y="0"/>
      <point x="384" y="2"/>
      <point x="417" y="2" type="curve"/>
      <point x="450" y="2"/>
      <point x="488" y="0"/>
      <point x="521" y="-3" type="curve"/>
      <point x="524" y="36" type="line"/>
      <point x="507" y="39"/>
      <point x="470" y="47"/>
      <point x="461" y="51" type="curve"/>
      <point x="459" y="57"/>
      <point x="454" y="78"/>
      <point x="454" y="155" type="curve"/>
      <point x="454" y="261" type="line"/>
      <point x="454" y="383"/>
      <point x="378" y="438"/>
      <point x="309" y="438" type="curve"/>
      <point x="262" y="438"/>
      <point x="217" y="417"/>
      <point x="176" y="365" type="curve"/>
      <point x="173" y="366" type="line"/>
      <point x="178" y="421" type="line"/>
      <point x="163" y="436" type="line"/>
      <point x="119" y="422"/>
      <point x="75" y="411"/>
      <point x="27" y="403" type="curve"/>
      <point x="27" y="370" type="line"/>
      <point x="51" y="366"/>
      <point x="75" y="360"/>
      <point x="90" y="353" type="curve"/>
      <point x="93" y="340"/>
      <point x="100" y="301"/>
      <point x="99" y="236" type="curve"/>
      <point x="98" y="158" type="line" smooth="yes"/>
      <point x="97" y="81"/>
      <point x="96" y="58"/>
      <point x="93" y="51" type="curve"/>
      <point x="85" y="47"/>
      <point x="48" y="38"/>
    </contour>
    <contour>
      <point x="591" y="37" type="curve"/>
      <point x="594" y="-3" type="line"/>
      <point x="627" y="0"/>
      <point x="662" y="2"/>
      <point x="695" y="2" type="curve"/>
      <point x="728" y="2"/>
      <point x="770" y="0"/>
      <point x="805" y="-3" type="curve"/>
      <point x="808" y="36" type="line"/>
      <point x="789" y="37"/>
      <point x="748" y="47"/>
      <point x="739" y="51" type="curve"/>
      <point x="737" y="57"/>
      <point x="732" y="78"/>
      <point x="732" y="155" type="curve"/>
      <point x="732" y="267" type="line" smooth="yes"/>
      <point x="732" y="365"/>
      <point x="675" y="438"/>
      <point x="582" y="438" type="curve"/>
      <point x="523" y="438"/>
      <point x="471" y="409"/>
      <point x="428" y="349" type="curve"/>
      <point x="443" y="309" type="line"/>
      <point x="474" y="354"/>
      <point x="512" y="377"/>
      <point x="558" y="377" type="curve"/>
      <point x="604" y="377"/>
      <point x="656" y="345"/>
      <point x="656" y="260" type="curve"/>
      <point x="656" y="148" type="line" smooth="yes"/>
      <point x="656" y="81"/>
      <point x="654" y="58"/>
      <point x="651" y="51" type="curve"/>
      <point x="643" y="47"/>
      <point x="608" y="39"/>
    </contour>
    <contour>
      <point x="416" y="0" type="move" name="bottom"/>
    </contour>
    <contour>
      <point x="416" y="430" type="move" name="top"/>
    </contour>
  </outline>
</glyph>
<glyph name="n" format="1">
  <advance width="557"/>
  <unicode hex="006E"/>
  <note>
    n
  </note>
  <outline>
    <contour>
      <point x="28" y="37" type="curve"/>
      <point x="31" y="-3" type="line"/>
      <point x="66" y="0"/>
      <point x="104" y="2"/>
      <point x="137" y="2" type="curve"/>
      <point x="170" y="2"/>
      <point x="211" y="0"/>
      <point x="246" y="-3" type="curve"/>
      <point x="249" y="36" type="line"/>
      <point x="230" y="37"/>
      <point x="189" y="47"/>
      <point x="180" y="51" type="curve"/>
      <point x="178" y="57"/>
      <point x="174" y="81"/>
      <point x="174" y="165" type="curve"/>
      <point x="174" y="316" type="line"/>
      <point x="204" y="358"/>
      <point x="244" y="377"/>
      <point x="284" y="377" type="curve"/>
      <point x="335" y="377"/>
      <point x="385" y="342"/>
      <point x="385" y="258" type="curve"/>
      <point x="385" y="148" type="line" smooth="yes"/>
      <point x="385" y="81"/>
      <point x="383" y="58"/>
      <point x="380" y="51" type="curve"/>
      <point x="372" y="47"/>
      <point x="335" y="38"/>
      <point x="316" y="37" type="curve"/>
      <point x="319" y="-3" type="line"/>
      <point x="354" y="0"/>
      <point x="392" y="2"/>
      <point x="425" y="2" type="curve"/>
      <point x="458" y="2"/>
      <point x="499" y="0"/>
      <point x="534" y="-3" type="curve"/>
      <point x="537" y="36" type="line"/>
      <point x="518" y="37"/>
      <point x="477" y="47"/>
      <point x="468" y="51" type="curve"/>
      <point x="466" y="57"/>
      <point x="461" y="78"/>
      <point x="461" y="155" type="curve"/>
      <point x="461" y="264" type="line" smooth="yes"/>
      <point x="461" y="382"/>
      <point x="391" y="438"/>
      <point x="318" y="438" type="curve"/>
      <point x="264" y="438"/>
      <point x="221" y="416"/>
      <point x="175" y="367" type="curve"/>
      <point x="172" y="368" type="line"/>
      <point x="177" y="421" type="line"/>
      <point x="162" y="436" type="line"/>
      <point x="118" y="422"/>
      <point x="74" y="411"/>
      <point x="26" y="403" type="curve"/>
      <point x="26" y="370" type="line"/>
      <point x="50" y="366"/>
      <point x="74" y="360"/>
      <point x="89" y="353" type="curve"/>
      <point x="92" y="340"/>
      <point x="98" y="301"/>
      <point x="98" y="236" type="curve"/>
      <point x="97" y="158" type="line" smooth="yes"/>
      <point x="96" y="81"/>
      <point x="95" y="58"/>
      <point x="92" y="51" type="curve"/>
      <point x="84" y="47"/>
      <point x="47" y="38"/>
    </contour>
    <contour>
      <point x="280" y="0" type="move" name="bottom"/>
    </contour>
    <contour>
      <point x="280" y="430" type="move" name="top"/>
    </contour>
  </outline>
</glyph>
<glyph name="s" format="1">
  <advance width="411"/>
  <unicode hex="0073"/>
  <note>
    s
  </note>
  <outline>
    <contour>
      <point x="200" y="-8" type="curve"/>
      <point x="296" y="-8"/>
      <point x="366" y="43"/>
      <point x="366" y="115" type="curve"/>
      <point x="366" y="170"/>
      <point x="335" y="205"/>
      <point x="247" y="244" type="curve"/>
      <point x="169" y="279"/>
      <point x="143" y="298"/>
      <point x="143" y="338" type="curve"/>
      <point x="143" y="373"/>
      <point x="174" y="397"/>
      <point x="221" y="397" type="curve"/>
      <point x="241" y="397"/>
      <point x="261" y="392"/>
      <point x="275" y="384" type="curve"/>
      <point x="282" y="366"/>
      <point x="290" y="348"/>
      <point x="299" y="317" type="curve"/>
      <point x="346" y="317" type="line"/>
      <point x="335" y="421" type="line"/>
      <point x="308" y="432"/>
      <point x="266" y="438"/>
      <point x="229" y="438" type="curve"/>
      <point x="130" y="438"/>
      <point x="61" y="387"/>
      <point x="61" y="316" type="curve"/>
      <point x="61" y="256"/>
      <point x="95" y="225"/>
      <point x="189" y="184" type="curve"/>
      <point x="262" y="152"/>
      <point x="283" y="130"/>
      <point x="283" y="95" type="curve"/>
      <point x="283" y="58"/>
      <point x="251" y="34"/>
      <point x="207" y="34" type="curve"/>
      <point x="175" y="34"/>
      <point x="150" y="42"/>
      <point x="126" y="58" type="curve"/>
      <point x="116" y="86"/>
      <point x="113" y="104"/>
      <point x="107" y="130" type="curve"/>
      <point x="57" y="130" type="line"/>
      <point x="58" y="91"/>
      <point x="60" y="57"/>
      <point x="62" y="23" type="curve"/>
      <point x="97" y="4"/>
      <point x="150" y="-8"/>
    </contour>
    <contour>
      <point x="206" y="0" type="move" name="bottom"/>
    </contour>
    <contour>
      <point x="210" y="430" type="move" name="top"/>
    </contour>
  </outline>
</glyph>
<glyph name="t" format="1">
  <advance width="352"/>
  <unicode hex="0074"/>
  <note>
    t
  </note>
  <outline>
    <contour>
      <point x="356" y="62" type="curve"/>
      <point x="338" y="88" type="line"/>
      <point x="317" y="68"/>
      <point x="290" y="56"/>
      <point x="259" y="56" type="curve"/>
      <point x="205" y="56"/>
      <point x="174" y="88"/>
      <point x="174" y="156" type="curve"/>
      <point x="175" y="402" type="line"/>
      <point x="177" y="518" type="line"/>
      <point x="153" y="518" type="line"/>
      <point x="111" y="477"/>
      <point x="70" y="440"/>
      <point x="24" y="403" type="curve"/>
      <point x="24" y="378" type="line"/>
      <point x="98" y="378" type="line"/>
      <point x="96" y="140" type="line"/>
      <point x="96" y="42"/>
      <point x="154" y="-8"/>
      <point x="235" y="-8" type="curve"/>
      <point x="283" y="-8"/>
      <point x="330" y="18"/>
    </contour>
    <contour>
      <point x="121" y="428" type="line"/>
      <point x="121" y="378" type="line"/>
      <point x="325" y="378" type="line"/>
      <point x="325" y="428" type="line"/>
    </contour>
    <contour>
      <point x="205" y="0" type="move" name="bottom"/>
    </contour>
    <contour>
      <point x="135" y="270" type="move" name="stroke"/>
    </contour>
    <contour>
      <point x="175" y="500" type="move" name="top"/>
    </contour>
    <contour>
      <point x="215" y="688" type="move" name="topright"/>
    </contour>
  </outline>
</glyph>
<glyph name="u" format="1">
  <advance width="557"/>
  <unicode hex="0075"/>
  <note>
    u
  </note>
  <outline>
    <contour>
      <point x="462" y="69" type="curve"/>
      <point x="459" y="77"/>
      <point x="454" y="135"/>
      <point x="454" y="209" type="curve"/>
      <point x="454" y="281" type="line" smooth="yes"/>
      <point x="454" y="352"/>
      <point x="455" y="387"/>
      <point x="456" y="421" type="curve"/>
      <point x="441" y="436" type="line"/>
      <point x="398" y="422"/>
      <point x="360" y="411"/>
      <point x="309" y="403" type="curve"/>
      <point x="309" y="370" type="line"/>
      <point x="336" y="366"/>
      <point x="355" y="360"/>
      <point x="372" y="353" type="curve"/>
      <point x="374" y="340"/>
      <point x="379" y="291"/>
      <point x="379" y="246" type="curve"/>
      <point x="379" y="118" type="line"/>
      <point x="351" y="73"/>
      <point x="310" y="56"/>
      <point x="277" y="56" type="curve"/>
      <point x="217" y="56"/>
      <point x="176" y="88"/>
      <point x="176" y="170" type="curve"/>
      <point x="176" y="281" type="line"/>
      <point x="176" y="342"/>
      <point x="178" y="387"/>
      <point x="181" y="421" type="curve"/>
      <point x="166" y="436" type="line"/>
      <point x="118" y="422"/>
      <point x="77" y="411"/>
      <point x="30" y="403" type="curve"/>
      <point x="30" y="370" type="line"/>
      <point x="53" y="366"/>
      <point x="78" y="360"/>
      <point x="93" y="353" type="curve"/>
      <point x="94" y="340"/>
      <point x="98" y="291"/>
      <point x="98" y="245" type="curve"/>
      <point x="98" y="159" type="line" smooth="yes"/>
      <point x="98" y="47"/>
      <point x="166" y="-8"/>
      <point x="254" y="-8" type="curve"/>
      <point x="299" y="-8"/>
      <point x="339" y="11"/>
      <point x="378" y="66" type="curve"/>
      <point x="381" y="65" type="line"/>
      <point x="380" y="2" type="line"/>
      <point x="395" y="-11" type="line"/>
      <point x="436" y="3"/>
      <point x="478" y="14"/>
      <point x="528" y="21" type="curve"/>
      <point x="528" y="53" type="line"/>
      <point x="510" y="56"/>
      <point x="470" y="65"/>
    </contour>
    <contour>
      <point x="279" y="0" type="move" name="bottom"/>
    </contour>
    <contour>
      <point x="431" y="0" type="move" name="ogonek"/>
    </contour>
    <contour>
      <point x="279" y="430" type="move" name="top"/>
    </contour>
    <contour>
      <point x="441" y="430" type="move" name="topright"/>
    </contour>
  </outline>
</glyph>
<glyph name="v" format="1">
  <advance width="481"/>
  <unicode hex="0076"/>
  <note>
    v
  </note>
  <outline>
    <contour>
      <point x="46" y="381" type="curve"/>
      <point x="224" y="-4" type="line"/>
      <point x="254" y="-4" type="line"/>
      <point x="435" y="381" type="line"/>
      <point x="450" y="386"/>
      <point x="469" y="391"/>
      <point x="481" y="393" type="curve"/>
      <point x="479" y="431" type="line"/>
      <point x="459" y="430"/>
      <point x="428" y="429"/>
      <point x="402" y="429" type="curve"/>
      <point x="377" y="429"/>
      <point x="328" y="429"/>
      <point x="308" y="430" type="curve"/>
      <point x="306" y="392" type="line"/>
      <point x="327" y="390"/>
      <point x="353" y="386"/>
      <point x="375" y="381" type="curve"/>
      <point x="245" y="74" type="line"/>
      <point x="273" y="75" type="line"/>
      <point x="135" y="381" type="line"/>
      <point x="157" y="386"/>
      <point x="183" y="390"/>
      <point x="204" y="392" type="curve"/>
      <point x="202" y="430" type="line"/>
      <point x="170" y="429"/>
      <point x="133" y="429"/>
      <point x="103" y="429" type="curve"/>
      <point x="73" y="429"/>
      <point x="31" y="430"/>
      <point x="1" y="431" type="curve"/>
      <point x="-1" y="393" type="line"/>
      <point x="11" y="391"/>
      <point x="31" y="386"/>
    </contour>
    <contour>
      <point x="241" y="0" type="move" name="bottom"/>
    </contour>
    <contour>
      <point x="241" y="430" type="move" name="top"/>
    </contour>
  </outline>
</glyph>
<glyph name="x" format="1">
  <advance width="458"/>
  <unicode hex="0078"/>
  <note>
    x
  </note>
  <outline>
    <contour>
      <point x="445" y="-2" type="curve"/>
      <point x="447" y="38" type="line"/>
      <point x="435" y="41"/>
      <point x="415" y="46"/>
      <point x="400" y="51" type="curve"/>
      <point x="268" y="236" type="line"/>
      <point x="243" y="269" type="line"/>
      <point x="163" y="382" type="line"/>
      <point x="177" y="387"/>
      <point x="192" y="391"/>
      <point x="206" y="393" type="curve"/>
      <point x="205" y="430" type="line"/>
      <point x="175" y="429"/>
      <point x="144" y="429"/>
      <point x="114" y="429" type="curve"/>
      <point x="84" y="429"/>
      <point x="53" y="430"/>
      <point x="23" y="431" type="curve"/>
      <point x="21" y="394" type="line"/>
      <point x="33" y="392"/>
      <point x="51" y="387"/>
      <point x="66" y="382" type="curve"/>
      <point x="189" y="215" type="line"/>
      <point x="214" y="181" type="line"/>
      <point x="305" y="51" type="line"/>
      <point x="291" y="46"/>
      <point x="271" y="43"/>
      <point x="257" y="40" type="curve"/>
      <point x="258" y="-1" type="line"/>
      <point x="288" y="1"/>
      <point x="322" y="2"/>
      <point x="352" y="2" type="curve"/>
      <point x="382" y="2"/>
      <point x="415" y="0"/>
    </contour>
    <contour>
      <point x="323" y="382" type="curve"/>
      <point x="243" y="269" type="line"/>
      <point x="189" y="215" type="line"/>
      <point x="65" y="51" type="line"/>
      <point x="50" y="46"/>
      <point x="30" y="41"/>
      <point x="18" y="38" type="curve"/>
      <point x="20" y="-2" type="line"/>
      <point x="40" y="0"/>
      <point x="71" y="2"/>
      <point x="94" y="2" type="curve"/>
      <point x="115" y="2"/>
      <point x="150" y="1"/>
      <point x="170" y="-1" type="curve"/>
      <point x="171" y="39" type="line"/>
      <point x="157" y="42"/>
      <point x="137" y="46"/>
      <point x="123" y="51" type="curve"/>
      <point x="214" y="181" type="line"/>
      <point x="268" y="236" type="line"/>
      <point x="381" y="382" type="line"/>
      <point x="396" y="387"/>
      <point x="413" y="392"/>
      <point x="425" y="394" type="curve"/>
      <point x="423" y="431" type="line"/>
      <point x="403" y="430"/>
      <point x="373" y="429"/>
      <point x="352" y="429" type="curve"/>
      <point x="332" y="429"/>
      <point x="301" y="429"/>
      <point x="281" y="430" type="curve"/>
      <point x="280" y="393" type="line"/>
      <point x="294" y="391"/>
      <point x="309" y="387"/>
    </contour>
    <contour>
      <point x="229" y="0" type="move" name="bottom"/>
    </contour>
    <contour>
      <point x="229" y="430" type="move" name="top"/>
    </contour>
  </outline>
</glyph>
<glyph name="z" format="1">
  <advance width="422"/>
  <unicode hex="007A"/>
  <note>
    z
  </note>
  <outline>
    <contour>
      <point x="125" y="46" type="line"/>
      <point x="126" y="17" type="line"/>
      <point x="375" y="400" type="line"/>
      <point x="375" y="432" type="line"/>
      <point x="347" y="431"/>
      <point x="318" y="430"/>
      <point x="290" y="430" type="curve"/>
      <point x="126" y="430" type="line" smooth="yes"/>
      <point x="99" y="430"/>
      <point x="69" y="430"/>
      <point x="36" y="431" type="curve"/>
      <point x="37" y="391"/>
      <point x="37" y="347"/>
      <point x="37" y="304" type="curve"/>
      <point x="83" y="304" type="line"/>
      <point x="87" y="338"/>
      <point x="91" y="364"/>
      <point x="97" y="381" type="curve"/>
      <point x="116" y="384"/>
      <point x="138" y="385"/>
      <point x="158" y="385" type="curve"/>
      <point x="293" y="385" type="line"/>
      <point x="296" y="413" type="line"/>
      <point x="43" y="30" type="line"/>
      <point x="43" y="-2" type="line"/>
      <point x="71" y="-1"/>
      <point x="100" y="0"/>
      <point x="128" y="0" type="curve"/>
      <point x="288" y="0" type="line" smooth="yes"/>
      <point x="315" y="0"/>
      <point x="346" y="0"/>
      <point x="379" y="-1" type="curve"/>
      <point x="383" y="41"/>
      <point x="390" y="85"/>
      <point x="396" y="133" type="curve"/>
      <point x="349" y="133" type="line"/>
      <point x="340" y="94"/>
      <point x="332" y="68"/>
      <point x="325" y="50" type="curve"/>
      <point x="303" y="47"/>
      <point x="282" y="46"/>
      <point x="262" y="46" type="curve"/>
    </contour>
    <contour>
      <point x="211" y="0" type="move" name="bottom"/>
    </contour>
    <contour>
      <point x="211" y="430" type="move" name="top"/>
    </contour>
  </outline>
</glyph>
<glyph name="bar" format="1">
  <advance width="274"/>
  <unicode hex="007C"/>
  <note>
    bar
  </note>
  <outline>
    <contour>
      <point x="105" y="722" type="line"/>
      <point x="105" y="-220" type="line"/>
      <point x="169" y="-220" type="line"/>
      <point x="169" y="722" type="line"/>
    </contour>
  </outline>
</glyph>
<glyph name="asciitilde" format="1">
  <advance width="540"/>
  <unicode hex="007E"/>
  <outline>
    <contour>
      <point x="487" y="279" type="curve"/>
      <point x="457" y="299" type="line"/>
      <point x="439" y="267"/>
      <point x="416" y="249"/>
      <point x="384" y="249" type="curve"/>
      <point x="332" y="249"/>
      <point x="246" y="320"/>
      <point x="169" y="320" type="curve"/>
      <point x="117" y="320"/>
      <point x="75" y="286"/>
      <point x="53" y="228" type="curve"/>
      <point x="83" y="208" type="line"/>
      <point x="100" y="241"/>
      <point x="125" y="259"/>
      <point x="156" y="259" type="curve"/>
      <point x="208" y="259"/>
      <point x="294" y="187"/>
      <point x="371" y="187" type="curve"/>
      <point x="423" y="187"/>
      <point x="465" y="222"/>
    </contour>
  </outline>
</glyph>
<glyph name="exclamdown" format="1">
  <advance width="266"/>
  <unicode hex="00A1"/>
  <note>
    exclamdown
  </note>
  <outline>
    <contour>
      <point x="152" y="246" type="curve"/>
      <point x="114" y="246" type="line"/>
      <point x="109" y="102"/>
      <point x="82" y="-73"/>
      <point x="82" y="-169" type="curve"/>
      <point x="82" y="-206"/>
      <point x="102" y="-228"/>
      <point x="133" y="-228" type="curve"/>
      <point x="164" y="-228"/>
      <point x="184" y="-206"/>
      <point x="184" y="-169" type="curve"/>
      <point x="184" y="-73"/>
      <point x="157" y="102"/>
    </contour>
    <contour>
      <point x="133" y="438" type="curve"/>
      <point x="97" y="438"/>
      <point x="70" y="412"/>
      <point x="70" y="377" type="curve"/>
      <point x="70" y="342"/>
      <point x="97" y="316"/>
      <point x="133" y="316" type="curve"/>
      <point x="169" y="316"/>
      <point x="196" y="342"/>
      <point x="196" y="377" type="curve"/>
      <point x="196" y="412"/>
      <point x="169" y="438"/>
    </contour>
  </outline>
</glyph>
<glyph name="cent" format="1">
  <advance width="443"/>
  <unicode hex="00A2"/>
  <note>
    cent
  </note>
  <outline>
    <contour>
      <point x="251" y="-8" type="curve"/>
      <point x="324" y="-8"/>
      <point x="382" y="26"/>
      <point x="420" y="95" type="curve"/>
      <point x="394" y="118" type="line"/>
      <point x="360" y="75"/>
      <point x="326" y="58"/>
      <point x="275" y="58" type="curve"/>
      <point x="194" y="58"/>
      <point x="133" y="117"/>
      <point x="133" y="225" type="curve"/>
      <point x="133" y="354"/>
      <point x="216" y="411"/>
      <point x="295" y="394" type="curve"/>
      <point x="259" y="405" type="line"/>
      <point x="311" y="353" type="line" smooth="yes"/>
      <point x="334" y="330"/>
      <point x="345" y="323"/>
      <point x="367" y="323" type="curve"/>
      <point x="391" y="323"/>
      <point x="406" y="338"/>
      <point x="406" y="361" type="curve"/>
      <point x="406" y="401"/>
      <point x="357" y="438"/>
      <point x="270" y="438" type="curve"/>
      <point x="142" y="438"/>
      <point x="44" y="338"/>
      <point x="44" y="207" type="curve"/>
      <point x="44" y="72"/>
      <point x="138" y="-8"/>
    </contour>
    <contour>
      <point x="230" y="540" type="line"/>
      <point x="230" y="-110" type="line"/>
      <point x="276" y="-110" type="line"/>
      <point x="276" y="540" type="line"/>
    </contour>
  </outline>
</glyph>
<glyph name="currency" format="1">
  <advance width="540"/>
  <unicode hex="00A4"/>
  <note>
    currency
  </note>
  <outline>
    <contour>
      <point x="272" y="105" type="curve"/>
      <point x="392" y="105"/>
      <point x="490" y="205"/>
      <point x="490" y="330" type="curve"/>
      <point x="490" y="455"/>
      <point x="392" y="555"/>
      <point x="272" y="555" type="curve"/>
      <point x="151" y="555"/>
      <point x="53" y="455"/>
      <point x="53" y="330" type="curve"/>
      <point x="53" y="205"/>
      <point x="151" y="105"/>
    </contour>
    <contour>
      <point x="24" y="112" type="line"/>
      <point x="57" y="77" type="line"/>
      <point x="155" y="177" type="line"/>
      <point x="125" y="215" type="line"/>
    </contour>
    <contour>
      <point x="387" y="174" type="line"/>
      <point x="482" y="77" type="line"/>
      <point x="516" y="112" type="line"/>
      <point x="423" y="207" type="line"/>
    </contour>
    <contour>
      <point x="271" y="147" type="curve"/>
      <point x="196" y="147"/>
      <point x="137" y="226"/>
      <point x="137" y="328" type="curve"/>
      <point x="137" y="430"/>
      <point x="196" y="510"/>
      <point x="271" y="510" type="curve"/>
      <point x="345" y="510"/>
      <point x="405" y="430"/>
      <point x="405" y="328" type="curve"/>
      <point x="405" y="226"/>
      <point x="345" y="147"/>
    </contour>
    <contour>
      <point x="24" y="548" type="line"/>
      <point x="119" y="450" type="line"/>
      <point x="151" y="486" type="line"/>
      <point x="57" y="583" type="line"/>
    </contour>
    <contour>
      <point x="391" y="490" type="line"/>
      <point x="425" y="455" type="line"/>
      <point x="516" y="548" type="line"/>
      <point x="482" y="583" type="line"/>
    </contour>
  </outline>
</glyph>
<glyph name="yen" format="1">
  <advance width="543"/>
  <unicode hex="00A5"/>
  <note>
    yen
  </note>
  <outline>
    <contour>
      <point x="81" y="289" type="line"/>
      <point x="81" y="244" type="line"/>
      <point x="460" y="244" type="line"/>
      <point x="460" y="289" type="line"/>
    </contour>
    <contour>
      <point x="81" y="169" type="line"/>
      <point x="81" y="124" type="line"/>
      <point x="460" y="124" type="line"/>
      <point x="460" y="169" type="line"/>
    </contour>
    <contour>
      <point x="288" y="218" type="line"/>
      <point x="494" y="537" type="line"/>
      <point x="506" y="541"/>
      <point x="530" y="546"/>
      <point x="542" y="547" type="curve"/>
      <point x="540" y="588" type="line"/>
      <point x="518" y="588"/>
      <point x="492" y="587"/>
      <point x="466" y="587" type="curve"/>
      <point x="440" y="587"/>
      <point x="394" y="588"/>
      <point x="364" y="588" type="curve"/>
      <point x="362" y="547" type="line"/>
      <point x="380" y="545"/>
      <point x="411" y="540"/>
      <point x="426" y="537" type="curve"/>
      <point x="284" y="299" type="line"/>
      <point x="299" y="299" type="line"/>
      <point x="151" y="537" type="line"/>
      <point x="165" y="540"/>
      <point x="197" y="545"/>
      <point x="217" y="547" type="curve"/>
      <point x="215" y="588" type="line"/>
      <point x="182" y="587"/>
      <point x="136" y="586"/>
      <point x="105" y="586" type="curve"/>
      <point x="72" y="586"/>
      <point x="30" y="587"/>
      <point x="3" y="588" type="curve"/>
      <point x="1" y="547" type="line"/>
      <point x="14" y="546"/>
      <point x="38" y="541"/>
      <point x="50" y="537" type="curve"/>
      <point x="249" y="218" type="line"/>
      <point x="229" y="286" type="line"/>
      <point x="229" y="121" type="line" smooth="yes"/>
      <point x="229" y="91"/>
      <point x="227" y="59"/>
      <point x="227" y="52" type="curve"/>
      <point x="218" y="48"/>
      <point x="186" y="40"/>
      <point x="153" y="39" type="curve"/>
      <point x="155" y="-3" type="line"/>
      <point x="195" y="-1"/>
      <point x="239" y="2"/>
      <point x="271" y="2" type="curve"/>
      <point x="304" y="2"/>
      <point x="346" y="-1"/>
      <point x="386" y="-3" type="curve"/>
      <point x="388" y="39" type="line"/>
      <point x="356" y="40"/>
      <point x="324" y="48"/>
      <point x="315" y="52" type="curve"/>
      <point x="315" y="59"/>
      <point x="313" y="91"/>
      <point x="313" y="121" type="curve"/>
      <point x="313" y="286" type="line"/>
    </contour>
  </outline>
</glyph>
<glyph name="brokenbar" format="1">
  <advance width="274"/>
  <unicode hex="00A6"/>
  <note>
    brokenbar
  </note>
  <outline>
    <contour>
      <point x="105" y="722" type="line"/>
      <point x="105" y="350" type="line"/>
      <point x="169" y="350" type="line"/>
      <point x="169" y="722" type="line"/>
    </contour>
    <contour>
      <point x="105" y="152" type="line"/>
      <point x="105" y="-220" type="line"/>
      <point x="169" y="-220" type="line"/>
      <point x="169" y="152" type="line"/>
    </contour>
  </outline>
</glyph>
<glyph name="section" format="1">
  <advance width="472"/>
  <unicode hex="00A7"/>
  <note>
    section
  </note>
  <outline>
    <contour>
      <point x="235" y="242" type="curve"/>
      <point x="248" y="223" type="line"/>
      <point x="334" y="227"/>
      <point x="414" y="283"/>
      <point x="414" y="363" type="curve"/>
      <point x="414" y="500"/>
      <point x="171" y="500"/>
      <point x="171" y="596" type="curve"/>
      <point x="171" y="631"/>
      <point x="202" y="655"/>
      <point x="258" y="655" type="curve"/>
      <point x="275" y="655"/>
      <point x="288" y="652"/>
      <point x="302" y="646" type="curve"/>
      <point x="309" y="627"/>
      <point x="316" y="609"/>
      <point x="325" y="583" type="curve"/>
      <point x="372" y="583" type="line"/>
      <point x="369" y="616"/>
      <point x="365" y="648"/>
      <point x="362" y="681" type="curve"/>
      <point x="335" y="691"/>
      <point x="293" y="696"/>
      <point x="260" y="696" type="curve"/>
      <point x="158" y="696"/>
      <point x="89" y="645"/>
      <point x="89" y="574" type="curve"/>
      <point x="89" y="432"/>
      <point x="334" y="455"/>
      <point x="334" y="333" type="curve"/>
      <point x="334" y="286"/>
      <point x="289" y="252"/>
    </contour>
    <contour>
      <point x="208" y="-8" type="curve"/>
      <point x="314" y="-8"/>
      <point x="383" y="43"/>
      <point x="383" y="114" type="curve"/>
      <point x="383" y="253"/>
      <point x="138" y="234"/>
      <point x="138" y="355" type="curve"/>
      <point x="138" y="402"/>
      <point x="183" y="436"/>
      <point x="237" y="446" type="curve"/>
      <point x="224" y="465" type="line"/>
      <point x="138" y="461"/>
      <point x="58" y="405"/>
      <point x="58" y="325" type="curve"/>
      <point x="58" y="188"/>
      <point x="301" y="188"/>
      <point x="301" y="92" type="curve"/>
      <point x="301" y="57"/>
      <point x="270" y="34"/>
      <point x="219" y="34" type="curve"/>
      <point x="196" y="34"/>
      <point x="176" y="38"/>
      <point x="162" y="46" type="curve"/>
      <point x="155" y="64"/>
      <point x="148" y="82"/>
      <point x="139" y="109" type="curve"/>
      <point x="92" y="109" type="line"/>
      <point x="95" y="76"/>
      <point x="99" y="42"/>
      <point x="102" y="9" type="curve"/>
      <point x="129" y="-2"/>
      <point x="171" y="-8"/>
    </contour>
  </outline>
</glyph>
<glyph name="ordfeminine" format="1">
  <advance width="394"/>
  <unicode hex="00AA"/>
  <note>
    ordfeminine
  </note>
  <outline>
    <contour>
      <point x="152" y="233" type="curve"/>
      <point x="181" y="233"/>
      <point x="215" y="248"/>
      <point x="253" y="295" type="curve"/>
      <point x="240" y="299" type="line"/>
      <point x="251" y="264" type="line" smooth="yes"/>
      <point x="257" y="245"/>
      <point x="267" y="233"/>
      <point x="285" y="233" type="curve"/>
      <point x="305" y="233"/>
      <point x="330" y="247"/>
      <point x="371" y="263" type="curve"/>
      <point x="371" y="293" type="line"/>
      <point x="356" y="295"/>
      <point x="330" y="299"/>
      <point x="320" y="304" type="curve"/>
      <point x="317" y="314"/>
      <point x="314" y="331"/>
      <point x="314" y="357" type="curve"/>
      <point x="314" y="477" type="line"/>
      <point x="316" y="550"/>
      <point x="260" y="595"/>
      <point x="178" y="595" type="curve"/>
      <point x="123" y="588"/>
      <point x="43" y="541"/>
      <point x="43" y="501" type="curve"/>
      <point x="43" y="470"/>
      <point x="77" y="455"/>
      <point x="118" y="466" type="curve"/>
      <point x="121" y="510" type="line" smooth="yes"/>
      <point x="123" y="538"/>
      <point x="128" y="545"/>
      <point x="154" y="545" type="curve"/>
      <point x="198" y="545"/>
      <point x="239" y="513"/>
      <point x="239" y="476" type="curve"/>
      <point x="239" y="443" type="line"/>
      <point x="114" y="405" type="line" smooth="yes"/>
      <point x="59" y="388"/>
      <point x="39" y="363"/>
      <point x="39" y="327" type="curve"/>
      <point x="39" y="286"/>
      <point x="83" y="233"/>
    </contour>
    <contour>
      <point x="182" y="295" type="curve"/>
      <point x="154" y="295"/>
      <point x="124" y="318"/>
      <point x="124" y="347" type="curve"/>
      <point x="124" y="368"/>
      <point x="134" y="381"/>
      <point x="162" y="386" type="curve"/>
      <point x="239" y="401" type="line"/>
      <point x="239" y="319" type="line"/>
      <point x="221" y="301"/>
      <point x="202" y="295"/>
    </contour>
  </outline>
</glyph>
<glyph name="logicalnot" format="1">
  <advance width="540"/>
  <unicode hex="00AC"/>
  <outline>
    <contour>
      <point x="487" y="130" type="line"/>
      <point x="487" y="378" type="line"/>
      <point x="53" y="378" type="line"/>
      <point x="53" y="313" type="line"/>
      <point x="426" y="313" type="line"/>
      <point x="426" y="130" type="line"/>
    </contour>
  </outline>
</glyph>
<glyph name="degree" format="1">
  <advance width="361"/>
  <unicode hex="00B0"/>
  <note>
    degree
  </note>
  <outline>
    <contour>
      <point x="181" y="308" type="curve"/>
      <point x="263" y="308"/>
      <point x="326" y="369"/>
      <point x="326" y="452" type="curve"/>
      <point x="326" y="534"/>
      <point x="263" y="595"/>
      <point x="181" y="595" type="curve"/>
      <point x="98" y="595"/>
      <point x="35" y="534"/>
      <point x="35" y="452" type="curve"/>
      <point x="35" y="369"/>
      <point x="98" y="308"/>
    </contour>
    <contour>
      <point x="181" y="360" type="curve"/>
      <point x="130" y="360"/>
      <point x="93" y="398"/>
      <point x="93" y="452" type="curve"/>
      <point x="93" y="505"/>
      <point x="130" y="543"/>
      <point x="181" y="543" type="curve"/>
      <point x="231" y="543"/>
      <point x="268" y="505"/>
      <point x="268" y="452" type="curve"/>
      <point x="268" y="398"/>
      <point x="231" y="360"/>
    </contour>
  </outline>
</glyph>
<glyph name="plusminus" format="1">
  <advance width="540"/>
  <unicode hex="00B1"/>
  <outline>
    <contour>
      <point x="487" y="262" type="line"/>
      <point x="487" y="323" type="line"/>
      <point x="53" y="323" type="line"/>
      <point x="53" y="262" type="line"/>
    </contour>
    <contour>
      <point x="300" y="471" type="line"/>
      <point x="240" y="471" type="line"/>
      <point x="240" y="114" type="line"/>
      <point x="300" y="114" type="line"/>
    </contour>
    <contour>
      <point x="487" y="0" type="line"/>
      <point x="487" y="64" type="line"/>
      <point x="53" y="64" type="line"/>
      <point x="53" y="0" type="line"/>
    </contour>
  </outline>
</glyph>
<glyph name="paragraph" format="1">
  <advance width="506"/>
  <unicode hex="00B6"/>
  <note>
    paragraph
  </note>
  <outline>
    <contour>
      <point x="475" y="-3" type="curve"/>
      <point x="477" y="38" type="line"/>
      <point x="456" y="40"/>
      <point x="427" y="48"/>
      <point x="420" y="52" type="curve"/>
      <point x="417" y="59"/>
      <point x="413" y="91"/>
      <point x="413" y="199" type="curve"/>
      <point x="413" y="387" type="line" smooth="yes"/>
      <point x="413" y="496"/>
      <point x="417" y="528"/>
      <point x="420" y="534" type="curve"/>
      <point x="427" y="539"/>
      <point x="458" y="546"/>
      <point x="481" y="547" type="curve"/>
      <point x="479" y="588" type="line"/>
      <point x="449" y="587"/>
      <point x="407" y="586"/>
      <point x="344" y="586" type="curve"/>
      <point x="309" y="586"/>
      <point x="279" y="588"/>
      <point x="255" y="588" type="curve"/>
      <point x="113" y="588"/>
      <point x="24" y="517"/>
      <point x="24" y="409" type="curve"/>
      <point x="24" y="297"/>
      <point x="114" y="236"/>
      <point x="250" y="236" type="curve"/>
      <point x="291" y="236"/>
      <point x="343" y="242"/>
      <point x="378" y="253" type="curve"/>
      <point x="378" y="307" type="line"/>
      <point x="340" y="294"/>
      <point x="300" y="285"/>
      <point x="253" y="285" type="curve"/>
      <point x="166" y="285"/>
      <point x="115" y="334"/>
      <point x="115" y="417" type="curve"/>
      <point x="115" y="499"/>
      <point x="168" y="544"/>
      <point x="242" y="544" type="curve"/>
      <point x="253" y="544"/>
      <point x="264" y="544"/>
      <point x="275" y="543" type="curve"/>
      <point x="276" y="530"/>
      <point x="277" y="468"/>
      <point x="277" y="409" type="curve"/>
      <point x="277" y="188" type="line" smooth="yes"/>
      <point x="277" y="91"/>
      <point x="274" y="59"/>
      <point x="270" y="53" type="curve"/>
      <point x="259" y="50"/>
      <point x="216" y="43"/>
      <point x="191" y="40" type="curve"/>
      <point x="193" y="-3" type="line"/>
      <point x="224" y="-1"/>
      <point x="276" y="1"/>
      <point x="334" y="1" type="curve"/>
      <point x="394" y="1"/>
      <point x="447" y="-1"/>
    </contour>
    <contour>
      <point x="326" y="45" type="line"/>
      <point x="326" y="544" type="line"/>
      <point x="369" y="544" type="line"/>
      <point x="365" y="45" type="line"/>
    </contour>
  </outline>
</glyph>
<glyph name="periodcentered" format="1">
  <advance width="246"/>
  <unicode hex="00B7"/>
  <note>
    periodcentered
  </note>
  <outline>
    <contour>
      <point x="123" y="159" type="curve"/>
      <point x="159" y="159"/>
      <point x="186" y="185"/>
      <point x="186" y="220" type="curve"/>
      <point x="186" y="255"/>
      <point x="159" y="281"/>
      <point x="123" y="281" type="curve"/>
      <point x="87" y="281"/>
      <point x="60" y="255"/>
      <point x="60" y="220" type="curve"/>
      <point x="60" y="185"/>
      <point x="87" y="159"/>
    </contour>
  </outline>
</glyph>
<glyph name="ordmasculine" format="1">
  <advance width="428"/>
  <unicode hex="00BA"/>
  <note>
    ordmasculine
  </note>
  <outline>
    <contour>
      <point x="217" y="233" type="curve"/>
      <point x="314" y="233"/>
      <point x="391" y="314"/>
      <point x="391" y="417" type="curve"/>
      <point x="391" y="522"/>
      <point x="322" y="595"/>
      <point x="220" y="595" type="curve"/>
      <point x="122" y="595"/>
      <point x="37" y="526"/>
      <point x="37" y="411" type="curve"/>
      <point x="37" y="306"/>
      <point x="110" y="233"/>
    </contour>
    <contour>
      <point x="225" y="278" type="curve"/>
      <point x="167" y="278"/>
      <point x="124" y="342"/>
      <point x="124" y="431" type="curve"/>
      <point x="124" y="505"/>
      <point x="158" y="552"/>
      <point x="209" y="552" type="curve"/>
      <point x="266" y="552"/>
      <point x="305" y="489"/>
      <point x="305" y="395" type="curve"/>
      <point x="305" y="323"/>
      <point x="274" y="278"/>
    </contour>
  </outline>
</glyph>
<glyph name="questiondown" format="1">
  <advance width="358"/>
  <unicode hex="00BF"/>
  <note>
    questiondown
  </note>
  <outline>
    <contour>
      <point x="249" y="246" type="curve"/>
      <point x="209" y="246" type="line"/>
      <point x="213" y="230"/>
      <point x="215" y="213"/>
      <point x="215" y="195" type="curve"/>
      <point x="215" y="119"/>
      <point x="48" y="86"/>
      <point x="48" y="-40" type="curve"/>
      <point x="48" y="-147"/>
      <point x="138" y="-228"/>
      <point x="268" y="-228" type="curve"/>
      <point x="320" y="-228"/>
      <point x="344" y="-206"/>
      <point x="344" y="-179" type="curve"/>
      <point x="344" y="-156"/>
      <point x="325" y="-134"/>
      <point x="288" y="-134" type="curve"/>
      <point x="259" y="-134"/>
      <point x="230" y="-151"/>
      <point x="200" y="-151" type="curve"/>
      <point x="147" y="-151"/>
      <point x="111" y="-120"/>
      <point x="111" y="-79" type="curve"/>
      <point x="111" y="6"/>
      <point x="278" y="79"/>
      <point x="278" y="153" type="curve"/>
      <point x="278" y="184"/>
      <point x="271" y="210"/>
    </contour>
    <contour>
      <point x="228" y="438" type="curve"/>
      <point x="192" y="438"/>
      <point x="165" y="412"/>
      <point x="165" y="377" type="curve"/>
      <point x="165" y="342"/>
      <point x="192" y="316"/>
      <point x="228" y="316" type="curve"/>
      <point x="264" y="316"/>
      <point x="291" y="342"/>
      <point x="291" y="377" type="curve"/>
      <point x="291" y="412"/>
      <point x="264" y="438"/>
    </contour>
  </outline>
</glyph>
<glyph name="AE" format="1">
  <advance width="810"/>
  <unicode hex="00C6"/>
  <note>
    AE
  </note>
  <outline>
    <contour>
      <point x="627" y="205" type="curve"/>
      <point x="669" y="205" type="line"/>
      <point x="668" y="237"/>
      <point x="667" y="273"/>
      <point x="667" y="302" type="curve"/>
      <point x="667" y="332"/>
      <point x="668" y="366"/>
      <point x="669" y="399" type="curve"/>
      <point x="627" y="399" type="line"/>
      <point x="624" y="378"/>
      <point x="619" y="346"/>
      <point x="614" y="330" type="curve"/>
      <point x="606" y="328"/>
      <point x="589" y="327"/>
      <point x="568" y="327" type="curve"/>
      <point x="501" y="327" type="line" smooth="yes"/>
      <point x="483" y="327"/>
      <point x="464" y="328"/>
      <point x="441" y="329" type="curve"/>
      <point x="441" y="275" type="line"/>
      <point x="464" y="276"/>
      <point x="483" y="277"/>
      <point x="501" y="277" type="curve"/>
      <point x="568" y="277" type="line" smooth="yes"/>
      <point x="589" y="277"/>
      <point x="606" y="276"/>
      <point x="614" y="274" type="curve"/>
      <point x="619" y="258"/>
      <point x="624" y="225"/>
    </contour>
    <contour>
      <point x="179" y="234" type="curve"/>
      <point x="167" y="180" type="line"/>
      <point x="197" y="182"/>
      <point x="234" y="182"/>
      <point x="287" y="182" type="curve"/>
      <point x="340" y="182"/>
      <point x="375" y="182"/>
      <point x="398" y="180" type="curve"/>
      <point x="398" y="234" type="line"/>
      <point x="377" y="232"/>
      <point x="340" y="231"/>
      <point x="287" y="231" type="curve"/>
      <point x="234" y="231"/>
      <point x="200" y="232"/>
    </contour>
    <contour>
      <point x="777" y="141" type="line"/>
      <point x="732" y="150" type="line"/>
      <point x="710" y="105"/>
      <point x="692" y="70"/>
      <point x="681" y="52" type="curve"/>
      <point x="669" y="49"/>
      <point x="654" y="48"/>
      <point x="609" y="48" type="curve"/>
      <point x="524" y="48" type="line" smooth="yes"/>
      <point x="495" y="48"/>
      <point x="477" y="50"/>
      <point x="460" y="52" type="curve"/>
      <point x="459" y="62"/>
      <point x="458" y="108"/>
      <point x="458" y="153" type="curve"/>
      <point x="458" y="423" type="line" smooth="yes"/>
      <point x="458" y="468"/>
      <point x="459" y="529"/>
      <point x="460" y="538" type="curve"/>
      <point x="476" y="540"/>
      <point x="495" y="542"/>
      <point x="521" y="542" type="curve"/>
      <point x="625" y="542" type="line" smooth="yes"/>
      <point x="637" y="542"/>
      <point x="651" y="541"/>
      <point x="662" y="539" type="curve"/>
      <point x="674" y="515"/>
      <point x="685" y="486"/>
      <point x="696" y="452" type="curve"/>
      <point x="741" y="459" type="line"/>
      <point x="721" y="591" type="line"/>
      <point x="689" y="589"/>
      <point x="653" y="587"/>
      <point x="621" y="587" type="curve"/>
      <point x="416" y="587" type="line" smooth="yes"/>
      <point x="384" y="587"/>
      <point x="327" y="587"/>
      <point x="291" y="589" type="curve"/>
      <point x="289" y="548" type="line"/>
      <point x="317" y="546"/>
      <point x="356" y="539"/>
      <point x="366" y="534" type="curve"/>
      <point x="368" y="570" type="line"/>
      <point x="35" y="49" type="line"/>
      <point x="23" y="45"/>
      <point x="6" y="40"/>
      <point x="-14" y="38" type="curve"/>
      <point x="-12" y="-2" type="line"/>
      <point x="16" y="0"/>
      <point x="53" y="0"/>
      <point x="77" y="0" type="curve"/>
      <point x="101" y="0"/>
      <point x="131" y="0"/>
      <point x="162" y="-2" type="curve"/>
      <point x="164" y="38" type="line"/>
      <point x="141" y="40"/>
      <point x="113" y="46"/>
      <point x="102" y="49" type="curve"/>
      <point x="401" y="539" type="line"/>
      <point x="372" y="520" type="line"/>
      <point x="372" y="158" type="line" smooth="yes"/>
      <point x="372" y="91"/>
      <point x="371" y="59"/>
      <point x="368" y="52" type="curve"/>
      <point x="360" y="48"/>
      <point x="330" y="40"/>
      <point x="307" y="38" type="curve"/>
      <point x="309" y="-3" type="line"/>
      <point x="340" y="-1"/>
      <point x="384" y="0"/>
      <point x="416" y="0" type="curve"/>
      <point x="643" y="0" type="line" smooth="yes"/>
      <point x="676" y="0"/>
      <point x="707" y="-2"/>
      <point x="738" y="-5" type="curve"/>
    </contour>
    <contour>
      <point x="415" y="0" type="move" name="bottom"/>
    </contour>
    <contour>
      <point x="415" y="587" type="move" name="top"/>
    </contour>
  </outline>
</glyph>
<glyph name="multiply" format="1">
  <advance width="540"/>
  <unicode hex="00D7"/>
  <outline>
    <contour>
      <point x="478" y="416" type="line"/>
      <point x="435" y="462" type="line"/>
      <point x="62" y="91" type="line"/>
      <point x="106" y="46" type="line"/>
    </contour>
    <contour>
      <point x="478" y="91" type="line"/>
      <point x="106" y="462" type="line"/>
      <point x="62" y="416" type="line"/>
      <point x="435" y="46" type="line"/>
    </contour>
  </outline>
</glyph>
<glyph name="Thorn" format="1">
  <advance width="516"/>
  <unicode hex="00DE"/>
  <note>
    Thorn
  </note>
  <outline>
    <contour>
      <point x="46" y="38" type="curve"/>
      <point x="48" y="-3" type="line"/>
      <point x="79" y="-1"/>
      <point x="125" y="2"/>
      <point x="158" y="2" type="curve"/>
      <point x="191" y="2"/>
      <point x="236" y="-1"/>
      <point x="278" y="-3" type="curve"/>
      <point x="280" y="40" type="line"/>
      <point x="246" y="41"/>
      <point x="212" y="48"/>
      <point x="204" y="52" type="curve"/>
      <point x="202" y="59"/>
      <point x="199" y="82"/>
      <point x="199" y="117" type="curve"/>
      <point x="199" y="432" type="line"/>
      <point x="216" y="435"/>
      <point x="232" y="436"/>
      <point x="252" y="436" type="curve"/>
      <point x="326" y="436"/>
      <point x="383" y="393"/>
      <point x="383" y="298" type="curve"/>
      <point x="383" y="216"/>
      <point x="335" y="177"/>
      <point x="262" y="177" type="curve"/>
      <point x="233" y="177"/>
      <point x="208" y="181"/>
      <point x="183" y="188" type="curve"/>
      <point x="183" y="138" type="line"/>
      <point x="205" y="133"/>
      <point x="240" y="130"/>
      <point x="266" y="130" type="curve"/>
      <point x="378" y="130"/>
      <point x="473" y="199"/>
      <point x="473" y="311" type="curve"/>
      <point x="473" y="420"/>
      <point x="395" y="481"/>
      <point x="255" y="481" type="curve"/>
      <point x="228" y="481"/>
      <point x="206" y="479"/>
      <point x="183" y="476" type="curve"/>
      <point x="200" y="451" type="line"/>
      <point x="200" y="492" type="line" smooth="yes"/>
      <point x="200" y="515"/>
      <point x="202" y="528"/>
      <point x="204" y="534" type="curve"/>
      <point x="212" y="539"/>
      <point x="243" y="547"/>
      <point x="265" y="548" type="curve"/>
      <point x="263" y="589" type="line"/>
      <point x="234" y="587"/>
      <point x="191" y="585"/>
      <point x="158" y="585" type="curve"/>
      <point x="125" y="585"/>
      <point x="79" y="587"/>
      <point x="51" y="589" type="curve"/>
      <point x="49" y="548" type="line"/>
      <point x="70" y="547"/>
      <point x="101" y="539"/>
      <point x="108" y="534" type="curve"/>
      <point x="111" y="528"/>
      <point x="114" y="496"/>
      <point x="114" y="387" type="curve"/>
      <point x="114" y="199" type="line" smooth="yes"/>
      <point x="114" y="91"/>
      <point x="111" y="59"/>
      <point x="108" y="52" type="curve"/>
      <point x="101" y="48"/>
      <point x="70" y="40"/>
    </contour>
  </outline>
</glyph>
<glyph name="germandbls" format="1">
  <advance width="579"/>
  <unicode hex="00DF"/>
  <note>
    germandbls
  </note>
  <outline>
    <contour>
      <point x="402" y="-8" type="curve"/>
      <point x="493" y="-8"/>
      <point x="554" y="45"/>
      <point x="554" y="119" type="curve"/>
      <point x="554" y="254"/>
      <point x="345" y="248"/>
      <point x="345" y="364" type="curve"/>
      <point x="345" y="433"/>
      <point x="439" y="492"/>
      <point x="439" y="577" type="curve"/>
      <point x="439" y="650"/>
      <point x="385" y="698"/>
      <point x="292" y="698" type="curve"/>
      <point x="172" y="698"/>
      <point x="95" y="609"/>
      <point x="95" y="484" type="curve"/>
      <point x="95" y="378" type="line"/>
      <point x="97" y="189" type="line" smooth="yes"/>
      <point x="98" y="102"/>
      <point x="96" y="61"/>
      <point x="94" y="52" type="curve"/>
      <point x="88" y="48"/>
      <point x="49" y="40"/>
      <point x="34" y="39" type="curve"/>
      <point x="37" y="-1" type="line"/>
      <point x="67" y="1"/>
      <point x="108" y="3"/>
      <point x="142" y="3" type="curve"/>
      <point x="174" y="3"/>
      <point x="186" y="2"/>
      <point x="233" y="-1" type="curve"/>
      <point x="234" y="39" type="line"/>
      <point x="217" y="40"/>
      <point x="185" y="48"/>
      <point x="177" y="52" type="curve"/>
      <point x="176" y="62"/>
      <point x="172" y="113"/>
      <point x="171" y="196" type="curve"/>
      <point x="169" y="514" type="line"/>
      <point x="169" y="599"/>
      <point x="213" y="655"/>
      <point x="280" y="655" type="curve"/>
      <point x="334" y="655"/>
      <point x="366" y="619"/>
      <point x="366" y="563" type="curve"/>
      <point x="366" y="461"/>
      <point x="272" y="415"/>
      <point x="272" y="331" type="curve"/>
      <point x="272" y="194"/>
      <point x="479" y="203"/>
      <point x="479" y="98" type="curve"/>
      <point x="479" y="57"/>
      <point x="450" y="34"/>
      <point x="411" y="34" type="curve"/>
      <point x="386" y="34"/>
      <point x="361" y="42"/>
      <point x="337" y="56" type="curve"/>
      <point x="330" y="82"/>
      <point x="325" y="106"/>
      <point x="320" y="128" type="curve"/>
      <point x="272" y="128" type="line"/>
      <point x="271" y="94"/>
      <point x="272" y="59"/>
      <point x="275" y="23" type="curve"/>
      <point x="309" y="3"/>
      <point x="359" y="-8"/>
    </contour>
    <contour>
      <point x="23" y="411" type="curve"/>
      <point x="23" y="378" type="line"/>
      <point x="135" y="378" type="line"/>
      <point x="135" y="428" type="line"/>
      <point x="95" y="429" type="line"/>
      <point x="70" y="421"/>
      <point x="48" y="415"/>
    </contour>
  </outline>
</glyph>
<glyph name="divide" format="1">
  <advance width="540"/>
  <unicode hex="00F7"/>
  <outline>
    <contour>
      <point x="487" y="221" type="line"/>
      <point x="487" y="286" type="line"/>
      <point x="53" y="286" type="line"/>
      <point x="53" y="221" type="line"/>
    </contour>
    <contour>
      <point x="266" y="25" type="curve"/>
      <point x="294" y="25"/>
      <point x="317" y="48"/>
      <point x="317" y="77" type="curve"/>
      <point x="317" y="106"/>
      <point x="294" y="129"/>
      <point x="266" y="129" type="curve"/>
      <point x="237" y="129"/>
      <point x="214" y="106"/>
      <point x="214" y="77" type="curve"/>
      <point x="214" y="48"/>
      <point x="237" y="25"/>
    </contour>
    <contour>
      <point x="266" y="378" type="curve"/>
      <point x="294" y="378"/>
      <point x="317" y="401"/>
      <point x="317" y="430" type="curve"/>
      <point x="317" y="459"/>
      <point x="294" y="482"/>
      <point x="266" y="482" type="curve"/>
      <point x="237" y="482"/>
      <point x="214" y="459"/>
      <point x="214" y="430" type="curve"/>
      <point x="214" y="401"/>
      <point x="237" y="378"/>
    </contour>
  </outline>
</glyph>
<glyph name="oslash" format="1">
  <advance width="518"/>
  <unicode hex="00F8"/>
  <note>
    oslash
  </note>
  <outline>
    <component base="o"/>
    <component base="slashlongcomb" xOffset="-41"/>
    <contour>
      <point x="259" y="430" type="move" name="top"/>
    </contour>
  </outline>
</glyph>
<glyph name="thorn" format="1">
  <advance width="544"/>
  <unicode hex="00FE"/>
  <note>
    thorn
  </note>
  <outline>
    <contour>
      <point x="29" y="-185" type="curve"/>
      <point x="32" y="-225" type="line"/>
      <point x="67" y="-222"/>
      <point x="102" y="-220"/>
      <point x="136" y="-220" type="curve"/>
      <point x="170" y="-220"/>
      <point x="220" y="-222"/>
      <point x="252" y="-225" type="curve"/>
      <point x="255" y="-185" type="line"/>
      <point x="230" y="-183"/>
      <point x="189" y="-175"/>
      <point x="180" y="-171" type="curve"/>
      <point x="178" y="-165"/>
      <point x="174" y="-141"/>
      <point x="174" y="-55" type="curve"/>
      <point x="174" y="10" type="line"/>
      <point x="201" y="0"/>
      <point x="238" y="-7"/>
      <point x="269" y="-7" type="curve"/>
      <point x="399" y="-7"/>
      <point x="497" y="93"/>
      <point x="497" y="226" type="curve"/>
      <point x="497" y="349"/>
      <point x="418" y="438"/>
      <point x="308" y="438" type="curve"/>
      <point x="256" y="438"/>
      <point x="211" y="413"/>
      <point x="176" y="366" type="curve"/>
      <point x="173" y="367" type="line"/>
      <point x="175" y="525"/>
      <point x="176" y="597"/>
      <point x="179" y="680" type="curve"/>
      <point x="160" y="694" type="line"/>
      <point x="121" y="678"/>
      <point x="76" y="662"/>
      <point x="28" y="651" type="curve"/>
      <point x="30" y="620" type="line"/>
      <point x="47" y="619"/>
      <point x="78" y="617"/>
      <point x="94" y="615" type="curve"/>
      <point x="96" y="591"/>
      <point x="98" y="454"/>
      <point x="98" y="383" type="curve"/>
      <point x="96" y="14" type="line" smooth="yes"/>
      <point x="95" y="-141"/>
      <point x="94" y="-164"/>
      <point x="91" y="-171" type="curve"/>
      <point x="83" y="-175"/>
      <point x="46" y="-184"/>
    </contour>
    <contour>
      <point x="273" y="42" type="curve"/>
      <point x="236" y="42"/>
      <point x="199" y="53"/>
      <point x="174" y="73" type="curve"/>
      <point x="174" y="315" type="line"/>
      <point x="202" y="353"/>
      <point x="238" y="373"/>
      <point x="281" y="373" type="curve"/>
      <point x="356" y="373"/>
      <point x="410" y="303"/>
      <point x="409" y="207" type="curve"/>
      <point x="408" y="106"/>
      <point x="356" y="42"/>
    </contour>
  </outline>
</glyph>
<glyph name="Aogonek" format="1">
  <advance width="587"/>
  <unicode hex="0104"/>
  <note>
    Aogonek
  </note>
  <outline>
    <contour>
      <point x="491" y="-223" type="curve"/>
      <point x="534" y="-223"/>
      <point x="570" y="-204"/>
      <point x="596" y="-173" type="curve"/>
      <point x="574" y="-146" type="line"/>
      <point x="553" y="-167"/>
      <point x="531" y="-181"/>
      <point x="505" y="-181" type="curve"/>
      <point x="470" y="-181"/>
      <point x="447" y="-158"/>
      <point x="447" y="-122" type="curve"/>
      <point x="447" y="-69"/>
      <point x="501" y="-21"/>
      <point x="582" y="0" type="curve"/>
      <point x="584" y="38" type="line"/>
      <point x="563" y="41"/>
      <point x="547" y="45"/>
      <point x="534" y="50" type="curve"/>
      <point x="315" y="605" type="line"/>
      <point x="257" y="570" type="line"/>
      <point x="51" y="49" type="line"/>
      <point x="40" y="45"/>
      <point x="22" y="40"/>
      <point x="2" y="38" type="curve"/>
      <point x="4" y="-2" type="line"/>
      <point x="32" y="0"/>
      <point x="63" y="0"/>
      <point x="86" y="0" type="curve"/>
      <point x="110" y="0"/>
      <point x="141" y="0"/>
      <point x="172" y="-2" type="curve"/>
      <point x="174" y="38" type="line"/>
      <point x="150" y="40"/>
      <point x="123" y="46"/>
      <point x="112" y="49" type="curve"/>
      <point x="166" y="201" type="line"/>
      <point x="177" y="231" type="line"/>
      <point x="284" y="516" type="line"/>
      <point x="258" y="503" type="line"/>
      <point x="367" y="231" type="line"/>
      <point x="378" y="200" type="line"/>
      <point x="438" y="50" type="line"/>
      <point x="430" y="47"/>
      <point x="400" y="40"/>
      <point x="377" y="38" type="curve"/>
      <point x="379" y="-2" type="line"/>
      <point x="409" y="0"/>
      <point x="448" y="1"/>
      <point x="481" y="1" type="curve"/>
      <point x="542" y="1" type="line"/>
      <point x="534" y="15" type="line"/>
      <point x="436" y="-18"/>
      <point x="377" y="-71"/>
      <point x="377" y="-132" type="curve"/>
      <point x="377" y="-183"/>
      <point x="421" y="-223"/>
    </contour>
    <contour>
      <point x="144" y="238" type="curve"/>
      <point x="144" y="185" type="line"/>
      <point x="172" y="186"/>
      <point x="214" y="187"/>
      <point x="277" y="187" type="curve"/>
      <point x="340" y="187"/>
      <point x="382" y="186"/>
      <point x="409" y="185" type="curve"/>
      <point x="409" y="238" type="line"/>
      <point x="385" y="237"/>
      <point x="340" y="235"/>
      <point x="277" y="235" type="curve"/>
      <point x="214" y="235"/>
      <point x="169" y="237"/>
    </contour>
    <contour>
      <point x="275" y="0" type="move" name="bottom"/>
    </contour>
    <contour>
      <point x="286" y="587" type="move" name="top"/>
    </contour>
  </outline>
</glyph>
<glyph name="Eogonek" format="1">
  <advance width="559"/>
  <unicode hex="0118"/>
  <note>
    Eogonek
  </note>
  <outline>
    <contour>
      <point x="377" y="205" type="curve"/>
      <point x="420" y="205" type="line"/>
      <point x="419" y="237"/>
      <point x="418" y="273"/>
      <point x="418" y="302" type="curve"/>
      <point x="418" y="332"/>
      <point x="419" y="366"/>
      <point x="420" y="399" type="curve"/>
      <point x="377" y="399" type="line"/>
      <point x="374" y="378"/>
      <point x="370" y="346"/>
      <point x="365" y="330" type="curve"/>
      <point x="357" y="328"/>
      <point x="340" y="327"/>
      <point x="319" y="327" type="curve"/>
      <point x="243" y="327" type="line" smooth="yes"/>
      <point x="225" y="327"/>
      <point x="205" y="328"/>
      <point x="183" y="329" type="curve"/>
      <point x="183" y="275" type="line"/>
      <point x="205" y="276"/>
      <point x="225" y="277"/>
      <point x="243" y="277" type="curve"/>
      <point x="319" y="277" type="line" smooth="yes"/>
      <point x="340" y="277"/>
      <point x="357" y="276"/>
      <point x="365" y="274" type="curve"/>
      <point x="370" y="258"/>
      <point x="374" y="225"/>
    </contour>
    <contour>
      <point x="544" y="-173" type="curve"/>
      <point x="522" y="-146" type="line"/>
      <point x="501" y="-167"/>
      <point x="479" y="-181"/>
      <point x="453" y="-181" type="curve"/>
      <point x="418" y="-181"/>
      <point x="395" y="-158"/>
      <point x="395" y="-122" type="curve"/>
      <point x="395" y="-79"/>
      <point x="427" y="-38"/>
      <point x="490" y="0" type="curve"/>
      <point x="528" y="141" type="line"/>
      <point x="483" y="150" type="line"/>
      <point x="461" y="105"/>
      <point x="443" y="73"/>
      <point x="431" y="55" type="curve"/>
      <point x="420" y="52"/>
      <point x="405" y="51"/>
      <point x="360" y="51" type="curve"/>
      <point x="264" y="51" type="line" smooth="yes"/>
      <point x="235" y="51"/>
      <point x="217" y="53"/>
      <point x="200" y="55" type="curve"/>
      <point x="199" y="65"/>
      <point x="198" y="108"/>
      <point x="198" y="153" type="curve"/>
      <point x="198" y="423" type="line" smooth="yes"/>
      <point x="198" y="468"/>
      <point x="199" y="526"/>
      <point x="200" y="535" type="curve"/>
      <point x="216" y="537"/>
      <point x="234" y="539"/>
      <point x="261" y="539" type="curve"/>
      <point x="375" y="539" type="line" smooth="yes"/>
      <point x="388" y="539"/>
      <point x="402" y="538"/>
      <point x="413" y="536" type="curve"/>
      <point x="425" y="512"/>
      <point x="436" y="486"/>
      <point x="447" y="452" type="curve"/>
      <point x="492" y="459" type="line"/>
      <point x="472" y="591" type="line"/>
      <point x="440" y="589"/>
      <point x="404" y="587"/>
      <point x="372" y="587" type="curve"/>
      <point x="158" y="587" type="line" smooth="yes"/>
      <point x="127" y="587"/>
      <point x="79" y="587"/>
      <point x="48" y="589" type="curve"/>
      <point x="46" y="548" type="line"/>
      <point x="70" y="546"/>
      <point x="101" y="539"/>
      <point x="108" y="534" type="curve"/>
      <point x="111" y="528"/>
      <point x="114" y="496"/>
      <point x="114" y="387" type="curve"/>
      <point x="114" y="199" type="line" smooth="yes"/>
      <point x="114" y="91"/>
      <point x="111" y="59"/>
      <point x="108" y="52" type="curve"/>
      <point x="101" y="48"/>
      <point x="70" y="40"/>
      <point x="46" y="38" type="curve"/>
      <point x="48" y="-3" type="line"/>
      <point x="79" y="-1"/>
      <point x="127" y="0"/>
      <point x="158" y="0" type="curve"/>
      <point x="438" y="0" type="line"/>
      <point x="368" y="-35"/>
      <point x="325" y="-81"/>
      <point x="325" y="-132" type="curve"/>
      <point x="325" y="-183"/>
      <point x="369" y="-223"/>
      <point x="439" y="-223" type="curve"/>
      <point x="481" y="-223"/>
      <point x="518" y="-203"/>
    </contour>
    <contour>
      <point x="282" y="0" type="move" name="bottom"/>
    </contour>
    <contour>
      <point x="282" y="587" type="move" name="top"/>
    </contour>
    <contour>
      <point x="27" y="587" type="move" name="topleft"/>
    </contour>
  </outline>
</glyph>
<glyph name="eogonek" format="1">
  <advance width="463"/>
  <unicode hex="0119"/>
  <note>
    eogonek
  </note>
  <outline>
    <contour>
      <point x="419" y="-173" type="curve"/>
      <point x="397" y="-146" type="line"/>
      <point x="376" y="-167"/>
      <point x="354" y="-181"/>
      <point x="328" y="-181" type="curve"/>
      <point x="293" y="-181"/>
      <point x="270" y="-158"/>
      <point x="270" y="-122" type="curve"/>
      <point x="270" y="-79"/>
      <point x="302" y="-38"/>
      <point x="375" y="39" type="curve"/>
      <point x="390" y="55"/>
      <point x="405" y="73"/>
      <point x="418" y="95" type="curve"/>
      <point x="392" y="118" type="line"/>
      <point x="355" y="73"/>
      <point x="320" y="59"/>
      <point x="275" y="59" type="curve"/>
      <point x="190" y="59"/>
      <point x="130" y="123"/>
      <point x="130" y="233" type="curve"/>
      <point x="130" y="245" type="line" smooth="yes"/>
      <point x="130" y="349"/>
      <point x="185" y="397"/>
      <point x="244" y="397" type="curve"/>
      <point x="303" y="397"/>
      <point x="339" y="353"/>
      <point x="339" y="276" type="curve"/>
      <point x="339" y="255" type="line"/>
      <point x="351" y="269" type="line"/>
      <point x="109" y="269" type="line"/>
      <point x="109" y="224" type="line"/>
      <point x="416" y="224" type="line"/>
      <point x="416" y="241" type="line" smooth="yes"/>
      <point x="416" y="358"/>
      <point x="362" y="437"/>
      <point x="252" y="438" type="curve"/>
      <point x="142" y="439"/>
      <point x="44" y="352"/>
      <point x="44" y="206" type="curve"/>
      <point x="44" y="74"/>
      <point x="134" y="-8"/>
      <point x="250" y="-8" type="curve"/>
      <point x="274" y="-8"/>
      <point x="300" y="-5"/>
      <point x="322" y="6" type="curve"/>
      <point x="327" y="19" type="line"/>
      <point x="246" y="-30"/>
      <point x="200" y="-79"/>
      <point x="200" y="-132" type="curve"/>
      <point x="200" y="-183"/>
      <point x="244" y="-223"/>
      <point x="314" y="-223" type="curve"/>
      <point x="357" y="-223"/>
      <point x="393" y="-203"/>
    </contour>
    <contour>
      <point x="242" y="430" type="move" name="top"/>
    </contour>
  </outline>
</glyph>
<glyph name="Iogonek" format="1">
  <advance width="313"/>
  <unicode hex="012E"/>
  <note>
    Iogonek
  </note>
  <outline>
    <contour>
      <point x="199" y="199" type="curve"/>
      <point x="199" y="387" type="line" smooth="yes"/>
      <point x="199" y="496"/>
      <point x="202" y="528"/>
      <point x="206" y="534" type="curve"/>
      <point x="213" y="539"/>
      <point x="243" y="547"/>
      <point x="267" y="548" type="curve"/>
      <point x="265" y="589" type="line"/>
      <point x="234" y="587"/>
      <point x="189" y="585"/>
      <point x="157" y="585" type="curve"/>
      <point x="124" y="585"/>
      <point x="79" y="587"/>
      <point x="48" y="589" type="curve"/>
      <point x="46" y="548" type="line"/>
      <point x="70" y="547"/>
      <point x="101" y="539"/>
      <point x="108" y="534" type="curve"/>
      <point x="111" y="528"/>
      <point x="114" y="496"/>
      <point x="114" y="387" type="curve"/>
      <point x="114" y="199" type="line" smooth="yes"/>
      <point x="114" y="91"/>
      <point x="111" y="59"/>
      <point x="108" y="52" type="curve"/>
      <point x="101" y="48"/>
      <point x="70" y="40"/>
      <point x="46" y="38" type="curve"/>
      <point x="48" y="-3" type="line"/>
      <point x="86" y="0"/>
      <point x="145" y="2"/>
      <point x="191" y="2" type="curve"/>
      <point x="191" y="11" type="line"/>
      <point x="87" y="-9"/>
      <point x="45" y="-69"/>
      <point x="45" y="-125" type="curve"/>
      <point x="45" y="-177"/>
      <point x="89" y="-223"/>
      <point x="160" y="-223" type="curve"/>
      <point x="199" y="-223"/>
      <point x="235" y="-204"/>
      <point x="260" y="-173" type="curve"/>
      <point x="236" y="-147" type="line"/>
      <point x="217" y="-167"/>
      <point x="197" y="-181"/>
      <point x="172" y="-181" type="curve"/>
      <point x="136" y="-181"/>
      <point x="115" y="-158"/>
      <point x="115" y="-115" type="curve"/>
      <point x="115" y="-51"/>
      <point x="182" y="0"/>
      <point x="265" y="0" type="curve"/>
      <point x="267" y="38" type="line"/>
      <point x="243" y="40"/>
      <point x="213" y="48"/>
      <point x="206" y="52" type="curve"/>
      <point x="202" y="59"/>
      <point x="199" y="91"/>
    </contour>
    <contour>
      <point x="157" y="587" type="move" name="top"/>
    </contour>
    <contour>
      <point x="27" y="587" type="move" name="topleft"/>
    </contour>
  </outline>
</glyph>
<glyph name="iogonek" format="1">
  <advance width="275"/>
  <unicode hex="012F"/>
  <note>
    iogonek
  </note>
  <outline>
    <contour>
      <point x="250" y="-3" type="curve"/>
      <point x="253" y="36" type="line"/>
      <point x="231" y="37"/>
      <point x="190" y="47"/>
      <point x="181" y="51" type="curve"/>
      <point x="179" y="57"/>
      <point x="175" y="81"/>
      <point x="175" y="165" type="curve"/>
      <point x="175" y="291" type="line" smooth="yes"/>
      <point x="175" y="352"/>
      <point x="177" y="387"/>
      <point x="181" y="421" type="curve"/>
      <point x="166" y="436" type="line"/>
      <point x="118" y="422"/>
      <point x="75" y="411"/>
      <point x="27" y="403" type="curve"/>
      <point x="27" y="370" type="line"/>
      <point x="51" y="366"/>
      <point x="75" y="360"/>
      <point x="90" y="353" type="curve"/>
      <point x="93" y="340"/>
      <point x="99" y="301"/>
      <point x="99" y="236" type="curve"/>
      <point x="98" y="158" type="line" smooth="yes"/>
      <point x="97" y="81"/>
      <point x="96" y="58"/>
      <point x="93" y="51" type="curve"/>
      <point x="85" y="47"/>
      <point x="48" y="38"/>
      <point x="26" y="37" type="curve"/>
      <point x="29" y="-3" type="line"/>
      <point x="67" y="0"/>
      <point x="106" y="2"/>
      <point x="139" y="2" type="curve"/>
      <point x="194" y="2" type="line"/>
      <point x="175" y="9" type="line"/>
      <point x="92" y="-12"/>
      <point x="30" y="-71"/>
      <point x="30" y="-132" type="curve"/>
      <point x="30" y="-183"/>
      <point x="74" y="-223"/>
      <point x="144" y="-223" type="curve"/>
      <point x="187" y="-223"/>
      <point x="223" y="-203"/>
      <point x="249" y="-173" type="curve"/>
      <point x="227" y="-146" type="line"/>
      <point x="206" y="-167"/>
      <point x="184" y="-181"/>
      <point x="158" y="-181" type="curve"/>
      <point x="123" y="-181"/>
      <point x="100" y="-158"/>
      <point x="100" y="-119" type="curve"/>
      <point x="100" y="-57"/>
      <point x="170" y="-3"/>
    </contour>
    <component base="dotaccentcomb.i" xOffset="-163"/>
  </outline>
</glyph>
<glyph name="Eng" format="1">
  <advance width="675"/>
  <unicode hex="014A"/>
  <note>
    Eng
  </note>
  <outline>
    <contour>
      <point x="404" y="-228" type="curve"/>
      <point x="500" y="-228"/>
      <point x="561" y="-148"/>
      <point x="561" y="16" type="curve"/>
      <point x="561" y="367" type="line" smooth="yes"/>
      <point x="561" y="484"/>
      <point x="565" y="529"/>
      <point x="568" y="535" type="curve"/>
      <point x="575" y="540"/>
      <point x="608" y="547"/>
      <point x="633" y="548" type="curve"/>
      <point x="631" y="589" type="line"/>
      <point x="598" y="587"/>
      <point x="565" y="586"/>
      <point x="537" y="586" type="curve"/>
      <point x="510" y="586"/>
      <point x="469" y="587"/>
      <point x="436" y="589" type="curve"/>
      <point x="434" y="548" type="line"/>
      <point x="460" y="547"/>
      <point x="492" y="540"/>
      <point x="499" y="535" type="curve"/>
      <point x="502" y="529"/>
      <point x="506" y="484"/>
      <point x="506" y="367" type="curve"/>
      <point x="506" y="146" type="line"/>
      <point x="524" y="146" type="line"/>
      <point x="187" y="588" type="line"/>
      <point x="170" y="587"/>
      <point x="143" y="586"/>
      <point x="121" y="586" type="curve"/>
      <point x="99" y="586"/>
      <point x="79" y="586"/>
      <point x="48" y="588" type="curve"/>
      <point x="46" y="547" type="line"/>
      <point x="69" y="548"/>
      <point x="100" y="539"/>
      <point x="107" y="534" type="curve"/>
      <point x="111" y="522"/>
      <point x="114" y="496"/>
      <point x="114" y="394" type="curve"/>
      <point x="114" y="223" type="line" smooth="yes"/>
      <point x="114" y="103"/>
      <point x="110" y="59"/>
      <point x="107" y="52" type="curve"/>
      <point x="100" y="48"/>
      <point x="68" y="40"/>
      <point x="42" y="38" type="curve"/>
      <point x="44" y="-3" type="line"/>
      <point x="77" y="-1"/>
      <point x="111" y="2"/>
      <point x="138" y="2" type="curve"/>
      <point x="166" y="2"/>
      <point x="208" y="-1"/>
      <point x="242" y="-3" type="curve"/>
      <point x="244" y="38" type="line"/>
      <point x="218" y="40"/>
      <point x="185" y="48"/>
      <point x="179" y="52" type="curve"/>
      <point x="175" y="59"/>
      <point x="171" y="103"/>
      <point x="171" y="223" type="curve"/>
      <point x="171" y="488" type="line"/>
      <point x="149" y="488" type="line"/>
      <point x="518" y="-4" type="line"/>
      <point x="504" y="55" type="line"/>
      <point x="504" y="-22" type="line" smooth="yes"/>
      <point x="504" y="-143"/>
      <point x="448" y="-192"/>
      <point x="394" y="-183" type="curve"/>
      <point x="438" y="-196" type="line"/>
      <point x="383" y="-143" type="line" smooth="yes"/>
      <point x="364" y="-125"/>
      <point x="347" y="-116"/>
      <point x="328" y="-116" type="curve"/>
      <point x="303" y="-116"/>
      <point x="287" y="-130"/>
      <point x="287" y="-153" type="curve"/>
      <point x="287" y="-192"/>
      <point x="344" y="-228"/>
    </contour>
  </outline>
</glyph>
<glyph name="eng" format="1">
  <advance width="548"/>
  <unicode hex="014B"/>
  <note>
    eng
  </note>
  <outline>
    <contour>
      <point x="458" y="-16" type="curve"/>
      <point x="457" y="264" type="line"/>
      <point x="457" y="382"/>
      <point x="387" y="438"/>
      <point x="316" y="438" type="curve"/>
      <point x="264" y="438"/>
      <point x="221" y="416"/>
      <point x="175" y="367" type="curve"/>
      <point x="172" y="368" type="line"/>
      <point x="177" y="421" type="line"/>
      <point x="162" y="436" type="line"/>
      <point x="118" y="422"/>
      <point x="74" y="411"/>
      <point x="26" y="403" type="curve"/>
      <point x="26" y="370" type="line"/>
      <point x="50" y="366"/>
      <point x="74" y="360"/>
      <point x="89" y="353" type="curve"/>
      <point x="92" y="340"/>
      <point x="98" y="301"/>
      <point x="98" y="236" type="curve"/>
      <point x="97" y="158" type="line" smooth="yes"/>
      <point x="96" y="81"/>
      <point x="95" y="58"/>
      <point x="92" y="51" type="curve"/>
      <point x="84" y="47"/>
      <point x="47" y="38"/>
      <point x="28" y="37" type="curve"/>
      <point x="31" y="-3" type="line"/>
      <point x="66" y="0"/>
      <point x="104" y="2"/>
      <point x="137" y="2" type="curve"/>
      <point x="170" y="2"/>
      <point x="211" y="0"/>
      <point x="246" y="-3" type="curve"/>
      <point x="249" y="36" type="line"/>
      <point x="230" y="37"/>
      <point x="189" y="47"/>
      <point x="180" y="51" type="curve"/>
      <point x="178" y="57"/>
      <point x="174" y="81"/>
      <point x="174" y="165" type="curve"/>
      <point x="174" y="316" type="line"/>
      <point x="204" y="358"/>
      <point x="244" y="377"/>
      <point x="282" y="377" type="curve"/>
      <point x="331" y="377"/>
      <point x="381" y="342"/>
      <point x="381" y="258" type="curve"/>
      <point x="380" y="-58" type="line"/>
      <point x="380" y="-146"/>
      <point x="354" y="-184"/>
      <point x="321" y="-194" type="curve"/>
      <point x="283" y="-157" type="line" smooth="yes"/>
      <point x="267" y="-141"/>
      <point x="254" y="-135"/>
      <point x="235" y="-135" type="curve"/>
      <point x="216" y="-135"/>
      <point x="203" y="-147"/>
      <point x="203" y="-166" type="curve"/>
      <point x="203" y="-200"/>
      <point x="243" y="-228"/>
      <point x="298" y="-228" type="curve"/>
      <point x="389" y="-228"/>
      <point x="458" y="-149"/>
    </contour>
  </outline>
</glyph>
<glyph name="OE" format="1">
  <advance width="928"/>
  <unicode hex="0152"/>
  <note>
    OE
  </note>
  <outline>
    <contour>
      <point x="390" y="-9" type="curve"/>
      <point x="441" y="-9"/>
      <point x="490" y="0"/>
      <point x="528" y="0" type="curve"/>
      <point x="762" y="0" type="line" smooth="yes"/>
      <point x="795" y="0"/>
      <point x="826" y="-2"/>
      <point x="856" y="-5" type="curve"/>
      <point x="896" y="141" type="line"/>
      <point x="851" y="150" type="line"/>
      <point x="829" y="105"/>
      <point x="811" y="73"/>
      <point x="799" y="55" type="curve"/>
      <point x="788" y="52"/>
      <point x="773" y="51"/>
      <point x="728" y="51" type="curve"/>
      <point x="632" y="51" type="line" smooth="yes"/>
      <point x="603" y="51"/>
      <point x="585" y="53"/>
      <point x="568" y="55" type="curve"/>
      <point x="567" y="65"/>
      <point x="566" y="108"/>
      <point x="566" y="153" type="curve"/>
      <point x="566" y="423" type="line" smooth="yes"/>
      <point x="566" y="468"/>
      <point x="567" y="526"/>
      <point x="568" y="535" type="curve"/>
      <point x="584" y="537"/>
      <point x="602" y="539"/>
      <point x="629" y="539" type="curve"/>
      <point x="743" y="539" type="line" smooth="yes"/>
      <point x="756" y="539"/>
      <point x="770" y="538"/>
      <point x="781" y="536" type="curve"/>
      <point x="793" y="512"/>
      <point x="804" y="486"/>
      <point x="815" y="452" type="curve"/>
      <point x="860" y="459" type="line"/>
      <point x="840" y="591" type="line"/>
      <point x="808" y="589"/>
      <point x="772" y="587"/>
      <point x="740" y="587" type="curve"/>
      <point x="515" y="587" type="line" smooth="yes"/>
      <point x="471" y="587"/>
      <point x="432" y="594"/>
      <point x="385" y="594" type="curve"/>
      <point x="181" y="594"/>
      <point x="53" y="464"/>
      <point x="53" y="288" type="curve"/>
      <point x="53" y="98"/>
      <point x="183" y="-9"/>
    </contour>
    <contour>
      <point x="399" y="45" type="curve"/>
      <point x="248" y="45"/>
      <point x="158" y="142"/>
      <point x="158" y="301" type="curve"/>
      <point x="158" y="447"/>
      <point x="240" y="542"/>
      <point x="380" y="542" type="curve"/>
      <point x="418" y="542"/>
      <point x="449" y="537"/>
      <point x="477" y="529" type="curve"/>
      <point x="479" y="514"/>
      <point x="482" y="479"/>
      <point x="482" y="391" type="curve"/>
      <point x="482" y="203" type="line" smooth="yes"/>
      <point x="482" y="108"/>
      <point x="481" y="75"/>
      <point x="479" y="57" type="curve"/>
      <point x="458" y="50"/>
      <point x="428" y="45"/>
    </contour>
    <contour>
      <point x="745" y="205" type="curve"/>
      <point x="788" y="205" type="line"/>
      <point x="787" y="237"/>
      <point x="786" y="273"/>
      <point x="786" y="302" type="curve"/>
      <point x="786" y="332"/>
      <point x="787" y="366"/>
      <point x="788" y="399" type="curve"/>
      <point x="745" y="399" type="line"/>
      <point x="742" y="378"/>
      <point x="738" y="346"/>
      <point x="733" y="330" type="curve"/>
      <point x="725" y="328"/>
      <point x="708" y="327"/>
      <point x="687" y="327" type="curve"/>
      <point x="611" y="327" type="line" smooth="yes"/>
      <point x="593" y="327"/>
      <point x="573" y="328"/>
      <point x="551" y="329" type="curve"/>
      <point x="551" y="275" type="line"/>
      <point x="573" y="276"/>
      <point x="593" y="277"/>
      <point x="611" y="277" type="curve"/>
      <point x="687" y="277" type="line" smooth="yes"/>
      <point x="708" y="277"/>
      <point x="725" y="276"/>
      <point x="733" y="274" type="curve"/>
      <point x="738" y="258"/>
      <point x="742" y="225"/>
    </contour>
    <contour>
      <point x="524" y="0" type="move" name="bottom"/>
    </contour>
    <contour>
      <point x="524" y="587" type="move" name="top"/>
    </contour>
  </outline>
</glyph>
<glyph name="Uogonek" format="1">
  <advance width="668"/>
  <unicode hex="0172"/>
  <note>
    Uogonek
  </note>
  <outline>
    <contour>
      <point x="627" y="547" type="curve"/>
      <point x="625" y="588" type="line"/>
      <point x="593" y="587"/>
      <point x="554" y="586"/>
      <point x="525" y="586" type="curve"/>
      <point x="494" y="586"/>
      <point x="462" y="587"/>
      <point x="431" y="588" type="curve"/>
      <point x="429" y="547" type="line"/>
      <point x="453" y="547"/>
      <point x="484" y="539"/>
      <point x="491" y="534" type="curve"/>
      <point x="494" y="528"/>
      <point x="498" y="490"/>
      <point x="498" y="369" type="curve"/>
      <point x="498" y="240" type="line" smooth="yes"/>
      <point x="498" y="108"/>
      <point x="440" y="57"/>
      <point x="353" y="57" type="curve"/>
      <point x="261" y="57"/>
      <point x="199" y="107"/>
      <point x="198" y="233" type="curve"/>
      <point x="198" y="387" type="line"/>
      <point x="197" y="496"/>
      <point x="201" y="525"/>
      <point x="205" y="534" type="curve"/>
      <point x="212" y="539"/>
      <point x="243" y="547"/>
      <point x="267" y="547" type="curve"/>
      <point x="265" y="588" type="line"/>
      <point x="233" y="587"/>
      <point x="188" y="586"/>
      <point x="154" y="586" type="curve"/>
      <point x="121" y="586"/>
      <point x="76" y="587"/>
      <point x="45" y="588" type="curve"/>
      <point x="43" y="547" type="line"/>
      <point x="67" y="547"/>
      <point x="98" y="539"/>
      <point x="105" y="534" type="curve"/>
      <point x="108" y="528"/>
      <point x="111" y="496"/>
      <point x="111" y="387" type="curve"/>
      <point x="111" y="221" type="line" smooth="yes"/>
      <point x="111" y="75"/>
      <point x="198" y="-9"/>
      <point x="343" y="-9" type="curve"/>
      <point x="372" y="-9" type="line"/>
      <point x="401" y="18" type="line"/>
      <point x="310" y="-18"/>
      <point x="256" y="-71"/>
      <point x="256" y="-132" type="curve"/>
      <point x="256" y="-183"/>
      <point x="300" y="-223"/>
      <point x="370" y="-223" type="curve"/>
      <point x="413" y="-223"/>
      <point x="449" y="-203"/>
      <point x="475" y="-173" type="curve"/>
      <point x="453" y="-146" type="line"/>
      <point x="432" y="-167"/>
      <point x="410" y="-181"/>
      <point x="384" y="-181" type="curve"/>
      <point x="349" y="-181"/>
      <point x="326" y="-158"/>
      <point x="326" y="-122" type="curve"/>
      <point x="326" y="-79"/>
      <point x="360" y="-23"/>
      <point x="437" y="9" type="curve"/>
      <point x="507" y="38"/>
      <point x="558" y="110"/>
      <point x="558" y="235" type="curve"/>
      <point x="558" y="369" type="line" smooth="yes"/>
      <point x="558" y="490"/>
      <point x="562" y="528"/>
      <point x="566" y="534" type="curve"/>
      <point x="573" y="539"/>
      <point x="613" y="547"/>
    </contour>
    <contour>
      <point x="349" y="587" type="move" name="top"/>
    </contour>
    <contour>
      <point x="643" y="587" type="move" name="topright"/>
    </contour>
  </outline>
</glyph>
<glyph name="uogonek" format="1">
  <advance width="557"/>
  <unicode hex="0173"/>
  <note>
    uogonek
  </note>
  <outline>
    <contour>
      <point x="449" y="-223" type="curve"/>
      <point x="492" y="-223"/>
      <point x="528" y="-203"/>
      <point x="554" y="-173" type="curve"/>
      <point x="532" y="-146" type="line"/>
      <point x="511" y="-167"/>
      <point x="489" y="-181"/>
      <point x="463" y="-181" type="curve"/>
      <point x="428" y="-181"/>
      <point x="405" y="-158"/>
      <point x="405" y="-122" type="curve"/>
      <point x="405" y="-80"/>
      <point x="434" y="-36"/>
      <point x="528" y="21" type="curve"/>
      <point x="528" y="53" type="line"/>
      <point x="510" y="56"/>
      <point x="470" y="65"/>
      <point x="462" y="69" type="curve"/>
      <point x="459" y="77"/>
      <point x="454" y="135"/>
      <point x="454" y="209" type="curve"/>
      <point x="454" y="281" type="line" smooth="yes"/>
      <point x="454" y="352"/>
      <point x="455" y="387"/>
      <point x="456" y="421" type="curve"/>
      <point x="441" y="436" type="line"/>
      <point x="398" y="422"/>
      <point x="360" y="411"/>
      <point x="309" y="403" type="curve"/>
      <point x="309" y="370" type="line"/>
      <point x="336" y="366"/>
      <point x="355" y="360"/>
      <point x="372" y="353" type="curve"/>
      <point x="374" y="340"/>
      <point x="379" y="291"/>
      <point x="379" y="246" type="curve"/>
      <point x="379" y="118" type="line"/>
      <point x="351" y="73"/>
      <point x="310" y="56"/>
      <point x="277" y="56" type="curve"/>
      <point x="217" y="56"/>
      <point x="176" y="88"/>
      <point x="176" y="170" type="curve"/>
      <point x="176" y="281" type="line" smooth="yes"/>
      <point x="176" y="342"/>
      <point x="178" y="387"/>
      <point x="181" y="421" type="curve"/>
      <point x="166" y="436" type="line"/>
      <point x="118" y="422"/>
      <point x="77" y="411"/>
      <point x="30" y="403" type="curve"/>
      <point x="30" y="370" type="line"/>
      <point x="53" y="366"/>
      <point x="78" y="360"/>
      <point x="93" y="353" type="curve"/>
      <point x="94" y="340"/>
      <point x="98" y="291"/>
      <point x="98" y="245" type="curve"/>
      <point x="98" y="159" type="line" smooth="yes"/>
      <point x="98" y="47"/>
      <point x="166" y="-8"/>
      <point x="254" y="-8" type="curve"/>
      <point x="299" y="-8"/>
      <point x="339" y="11"/>
      <point x="378" y="66" type="curve"/>
      <point x="381" y="65" type="line"/>
      <point x="380" y="2" type="line"/>
      <point x="392" y="-8" type="line"/>
      <point x="492" y="14" type="line"/>
      <point x="482" y="19" type="line"/>
      <point x="392" y="-17"/>
      <point x="335" y="-71"/>
      <point x="335" y="-132" type="curve"/>
      <point x="335" y="-183"/>
      <point x="379" y="-223"/>
    </contour>
    <contour>
      <point x="279" y="430" type="move" name="top"/>
    </contour>
    <contour>
      <point x="441" y="430" type="move" name="topright"/>
    </contour>
  </outline>
</glyph>
<glyph name="Schwa" format="1">
  <advance width="652"/>
  <unicode hex="018F"/>
  <outline>
    <contour>
      <point x="317" y="596" type="curve"/>
      <point x="207" y="596"/>
      <point x="108" y="538"/>
      <point x="60" y="444" type="curve"/>
      <point x="93" y="418" type="line"/>
      <point x="139" y="472"/>
      <point x="204" y="504"/>
      <point x="280" y="504" type="curve"/>
      <point x="414" y="504"/>
      <point x="499" y="413"/>
      <point x="499" y="267" type="curve"/>
      <point x="499" y="246" type="line" smooth="yes"/>
      <point x="499" y="121"/>
      <point x="436" y="44"/>
      <point x="334" y="44" type="curve"/>
      <point x="230" y="44"/>
      <point x="168" y="110"/>
      <point x="168" y="212" type="curve"/>
      <point x="168" y="244" type="line"/>
      <point x="149" y="227" type="line"/>
      <point x="532" y="227" type="line"/>
      <point x="532" y="283" type="line"/>
      <point x="56" y="283" type="line"/>
      <point x="56" y="258" type="line" smooth="yes"/>
      <point x="56" y="95"/>
      <point x="160" y="-8"/>
      <point x="326" y="-9" type="curve"/>
      <point x="485" y="-9"/>
      <point x="600" y="122"/>
      <point x="600" y="306" type="curve"/>
      <point x="600" y="477"/>
      <point x="484" y="596"/>
    </contour>
    <contour>
      <point x="328" y="0" type="move" name="bottom"/>
    </contour>
    <contour>
      <point x="328" y="587" type="move" name="top"/>
    </contour>
  </outline>
</glyph>
<glyph name="florin" format="1">
  <advance width="375"/>
  <unicode hex="0192"/>
  <outline>
    <contour>
      <point x="76" y="-228" type="curve"/>
      <point x="147" y="-228"/>
      <point x="216" y="-149"/>
      <point x="216" y="54" type="curve"/>
      <point x="216" y="378" type="line"/>
      <point x="214" y="428" type="line"/>
      <point x="214" y="515" type="line" smooth="yes"/>
      <point x="214" y="614"/>
      <point x="243" y="654"/>
      <point x="276" y="664" type="curve"/>
      <point x="314" y="627" type="line" smooth="yes"/>
      <point x="330" y="611"/>
      <point x="343" y="605"/>
      <point x="362" y="605" type="curve"/>
      <point x="381" y="605"/>
      <point x="394" y="617"/>
      <point x="394" y="636" type="curve"/>
      <point x="394" y="670"/>
      <point x="354" y="698"/>
      <point x="299" y="698" type="curve"/>
      <point x="208" y="698"/>
      <point x="139" y="619"/>
      <point x="139" y="486" type="curve"/>
      <point x="139" y="-5" type="line"/>
      <point x="139" y="-144"/>
      <point x="112" y="-184"/>
      <point x="99" y="-194" type="curve"/>
      <point x="61" y="-157" type="line" smooth="yes"/>
      <point x="45" y="-141"/>
      <point x="32" y="-135"/>
      <point x="13" y="-135" type="curve"/>
      <point x="-6" y="-135"/>
      <point x="-19" y="-147"/>
      <point x="-19" y="-166" type="curve"/>
      <point x="-19" y="-200"/>
      <point x="21" y="-228"/>
    </contour>
    <contour>
      <point x="67" y="411" type="curve"/>
      <point x="67" y="378" type="line"/>
      <point x="327" y="378" type="line"/>
      <point x="327" y="428" type="line"/>
      <point x="214" y="428" type="line"/>
      <point x="139" y="429" type="line"/>
      <point x="114" y="421"/>
      <point x="92" y="415"/>
    </contour>
  </outline>
</glyph>
<glyph name="Ohorn" format="1">
  <advance width="689"/>
  <unicode hex="01A0"/>
  <note>
    Ohorn
  </note>
  <outline>
    <contour>
      <point x="667" y="651" type="curve"/>
      <point x="667" y="703"/>
      <point x="627" y="719"/>
      <point x="577" y="710" type="curve"/>
      <point x="575" y="659" type="line" smooth="yes"/>
      <point x="573" y="600"/>
      <point x="546" y="579"/>
      <point x="502" y="579" type="curve"/>
      <point x="464" y="579"/>
      <point x="417" y="596"/>
      <point x="356" y="596" type="curve"/>
      <point x="180" y="596"/>
      <point x="52" y="466"/>
      <point x="52" y="291" type="curve"/>
      <point x="52" y="114"/>
      <point x="175" y="-9"/>
      <point x="350" y="-9" type="curve"/>
      <point x="504" y="-9"/>
      <point x="637" y="119"/>
      <point x="637" y="298" type="curve"/>
      <point x="637" y="412"/>
      <point x="587" y="504"/>
      <point x="506" y="555" type="curve"/>
      <point x="475" y="534" type="line"/>
      <point x="602" y="513"/>
      <point x="667" y="593"/>
    </contour>
    <contour>
      <point x="360" y="45" type="curve"/>
      <point x="241" y="45"/>
      <point x="156" y="155"/>
      <point x="156" y="310" type="curve"/>
      <point x="156" y="456"/>
      <point x="226" y="546"/>
      <point x="341" y="546" type="curve"/>
      <point x="457" y="546"/>
      <point x="536" y="435"/>
      <point x="536" y="274" type="curve"/>
      <point x="536" y="134"/>
      <point x="467" y="45"/>
    </contour>
    <contour>
      <point x="344" y="0" type="move" name="bottom"/>
    </contour>
    <contour>
      <point x="344" y="294" type="move" name="center"/>
    </contour>
    <contour>
      <point x="344" y="587" type="move" name="top"/>
    </contour>
    <contour>
      <point x="19" y="587" type="move" name="topleft"/>
    </contour>
  </outline>
</glyph>
<glyph name="Uhorn" format="1">
  <advance width="668"/>
  <unicode hex="01AF"/>
  <note>
    Uhorn
  </note>
  <outline>
    <contour>
      <point x="343" y="-9" type="curve"/>
      <point x="466" y="-9"/>
      <point x="558" y="67"/>
      <point x="558" y="235" type="curve"/>
      <point x="558" y="369" type="line" smooth="yes"/>
      <point x="558" y="484"/>
      <point x="562" y="529"/>
      <point x="566" y="555" type="curve"/>
      <point x="554" y="538" type="line"/>
      <point x="647" y="543"/>
      <point x="700" y="595"/>
      <point x="700" y="653" type="curve"/>
      <point x="700" y="705"/>
      <point x="660" y="721"/>
      <point x="610" y="712" type="curve"/>
      <point x="608" y="661" type="line" smooth="yes"/>
      <point x="606" y="602"/>
      <point x="589" y="586"/>
      <point x="524" y="586" type="curve"/>
      <point x="492" y="586"/>
      <point x="462" y="587"/>
      <point x="431" y="588" type="curve"/>
      <point x="429" y="547" type="line"/>
      <point x="453" y="547"/>
      <point x="484" y="539"/>
      <point x="491" y="534" type="curve"/>
      <point x="494" y="528"/>
      <point x="498" y="490"/>
      <point x="498" y="369" type="curve"/>
      <point x="498" y="240" type="line" smooth="yes"/>
      <point x="498" y="108"/>
      <point x="440" y="57"/>
      <point x="353" y="57" type="curve"/>
      <point x="261" y="57"/>
      <point x="199" y="107"/>
      <point x="198" y="233" type="curve"/>
      <point x="198" y="387" type="line"/>
      <point x="197" y="496"/>
      <point x="201" y="525"/>
      <point x="205" y="534" type="curve"/>
      <point x="212" y="539"/>
      <point x="243" y="547"/>
      <point x="267" y="547" type="curve"/>
      <point x="265" y="588" type="line"/>
      <point x="233" y="587"/>
      <point x="188" y="586"/>
      <point x="154" y="586" type="curve"/>
      <point x="121" y="586"/>
      <point x="76" y="587"/>
      <point x="45" y="588" type="curve"/>
      <point x="43" y="547" type="line"/>
      <point x="67" y="547"/>
      <point x="98" y="539"/>
      <point x="105" y="534" type="curve"/>
      <point x="108" y="528"/>
      <point x="111" y="496"/>
      <point x="111" y="387" type="curve"/>
      <point x="111" y="221" type="line" smooth="yes"/>
      <point x="111" y="75"/>
      <point x="198" y="-9"/>
    </contour>
    <contour>
      <point x="348" y="0" type="move" name="bottom"/>
    </contour>
    <contour>
      <point x="595" y="9" type="move" name="ogonek"/>
    </contour>
    <contour>
      <point x="349" y="587" type="move" name="top"/>
    </contour>
  </outline>
</glyph>
<glyph name="Oogonek" format="1">
  <advance width="689"/>
  <unicode hex="01EA"/>
  <outline>
    <contour>
      <point x="377" y="-223" type="curve"/>
      <point x="420" y="-223"/>
      <point x="456" y="-203"/>
      <point x="482" y="-173" type="curve"/>
      <point x="460" y="-146" type="line"/>
      <point x="439" y="-167"/>
      <point x="417" y="-181"/>
      <point x="391" y="-181" type="curve"/>
      <point x="356" y="-181"/>
      <point x="333" y="-158"/>
      <point x="333" y="-122" type="curve"/>
      <point x="333" y="-74"/>
      <point x="372" y="-21"/>
      <point x="453" y="11" type="curve"/>
      <point x="556" y="52"/>
      <point x="637" y="158"/>
      <point x="637" y="298" type="curve"/>
      <point x="637" y="474"/>
      <point x="520" y="596"/>
      <point x="353" y="596" type="curve"/>
      <point x="180" y="596"/>
      <point x="52" y="466"/>
      <point x="52" y="291" type="curve"/>
      <point x="52" y="114"/>
      <point x="175" y="-9"/>
      <point x="350" y="-9" type="curve"/>
      <point x="379" y="-9" type="line"/>
      <point x="413" y="19" type="line"/>
      <point x="319" y="-17"/>
      <point x="263" y="-71"/>
      <point x="263" y="-132" type="curve"/>
      <point x="263" y="-183"/>
      <point x="307" y="-223"/>
    </contour>
    <contour>
      <point x="360" y="45" type="curve"/>
      <point x="241" y="45"/>
      <point x="156" y="155"/>
      <point x="156" y="310" type="curve"/>
      <point x="156" y="456"/>
      <point x="226" y="546"/>
      <point x="341" y="546" type="curve"/>
      <point x="457" y="546"/>
      <point x="536" y="435"/>
      <point x="536" y="274" type="curve"/>
      <point x="536" y="134"/>
      <point x="467" y="45"/>
    </contour>
    <contour>
      <point x="344" y="294" type="move" name="center"/>
    </contour>
    <contour>
      <point x="344" y="587" type="move" name="top"/>
    </contour>
    <contour>
      <point x="19" y="587" type="move" name="topleft"/>
    </contour>
    <contour>
      <point x="670" y="587" type="move" name="topright"/>
    </contour>
  </outline>
</glyph>
<glyph name="oogonek" format="1">
  <advance width="518"/>
  <unicode hex="01EB"/>
  <outline>
    <contour>
      <point x="280" y="-223" type="curve"/>
      <point x="323" y="-223"/>
      <point x="359" y="-203"/>
      <point x="385" y="-173" type="curve"/>
      <point x="363" y="-146" type="line"/>
      <point x="342" y="-167"/>
      <point x="320" y="-181"/>
      <point x="294" y="-181" type="curve"/>
      <point x="259" y="-181"/>
      <point x="236" y="-158"/>
      <point x="236" y="-122" type="curve"/>
      <point x="236" y="-78"/>
      <point x="265" y="-37"/>
      <point x="364" y="20" type="curve"/>
      <point x="423" y="53"/>
      <point x="472" y="125"/>
      <point x="472" y="218" type="curve"/>
      <point x="472" y="349"/>
      <point x="390" y="438"/>
      <point x="266" y="438" type="curve"/>
      <point x="146" y="438"/>
      <point x="46" y="349"/>
      <point x="46" y="214" type="curve"/>
      <point x="46" y="83"/>
      <point x="132" y="-8"/>
      <point x="263" y="-8" type="curve"/>
      <point x="289" y="-8" type="line"/>
      <point x="323" y="17" type="line"/>
      <point x="228" y="-18"/>
      <point x="166" y="-71"/>
      <point x="166" y="-132" type="curve"/>
      <point x="166" y="-183"/>
      <point x="210" y="-223"/>
    </contour>
    <contour>
      <point x="272" y="39" type="curve"/>
      <point x="193" y="39"/>
      <point x="136" y="116"/>
      <point x="136" y="229" type="curve"/>
      <point x="136" y="329"/>
      <point x="183" y="393"/>
      <point x="255" y="393" type="curve"/>
      <point x="332" y="393"/>
      <point x="384" y="316"/>
      <point x="384" y="200" type="curve"/>
      <point x="384" y="105"/>
      <point x="339" y="39"/>
    </contour>
    <contour>
      <point x="259" y="215" type="move" name="center"/>
    </contour>
    <contour>
      <point x="259" y="430" type="move" name="top"/>
    </contour>
    <contour>
      <point x="498" y="430" type="move" name="topright"/>
    </contour>
  </outline>
</glyph>
<glyph name="schwa" format="1">
  <advance width="467"/>
  <unicode hex="0259"/>
  <outline>
    <contour>
      <point x="222" y="438" type="curve"/>
      <point x="144" y="438"/>
      <point x="81" y="401"/>
      <point x="45" y="335" type="curve"/>
      <point x="71" y="312" type="line"/>
      <point x="105" y="354"/>
      <point x="144" y="373"/>
      <point x="197" y="373" type="curve"/>
      <point x="283" y="373"/>
      <point x="337" y="305"/>
      <point x="337" y="197" type="curve"/>
      <point x="337" y="185" type="line" smooth="yes"/>
      <point x="337" y="92"/>
      <point x="295" y="35"/>
      <point x="228" y="35" type="curve"/>
      <point x="166" y="35"/>
      <point x="128" y="80"/>
      <point x="128" y="154" type="curve"/>
      <point x="128" y="175" type="line"/>
      <point x="116" y="161" type="line"/>
      <point x="358" y="161" type="line"/>
      <point x="358" y="206" type="line"/>
      <point x="47" y="206" type="line"/>
      <point x="47" y="189" type="line" smooth="yes"/>
      <point x="47" y="67"/>
      <point x="116" y="-7"/>
      <point x="225" y="-8" type="curve"/>
      <point x="338" y="-9"/>
      <point x="423" y="80"/>
      <point x="423" y="224" type="curve"/>
      <point x="423" y="352"/>
      <point x="342" y="438"/>
    </contour>
  </outline>
</glyph>
<glyph name="primemod" format="1">
  <advance width="600"/>
  <unicode hex="02B9"/>
  <note>
    acutecomb
  </note>
  <outline>
    <contour>
      <point x="280" y="496" type="line"/>
      <point x="320" y="482" type="line"/>
      <point x="460" y="654" type="line"/>
      <point x="379" y="677" type="line"/>
    </contour>
    <contour>
      <point x="300" y="430" type="move" name="_top"/>
    </contour>
    <contour>
      <point x="300" y="687" type="move" name="top"/>
    </contour>
  </outline>
</glyph>
<glyph name="commaturnedmod" format="1">
  <advance width="600"/>
  <unicode hex="02BB"/>
  <note>
    uni02BB
  </note>
  <outline>
    <contour>
      <point x="378" y="694" type="curve"/>
      <point x="366" y="720" type="line"/>
      <point x="293" y="698"/>
      <point x="247" y="647"/>
      <point x="247" y="591" type="curve"/>
      <point x="247" y="551"/>
      <point x="271" y="526"/>
      <point x="307" y="526" type="curve"/>
      <point x="333" y="526"/>
      <point x="353" y="543"/>
      <point x="353" y="566" type="curve"/>
      <point x="353" y="609"/>
      <point x="308" y="604"/>
      <point x="308" y="636" type="curve"/>
      <point x="308" y="658"/>
      <point x="333" y="681"/>
    </contour>
    <contour>
      <point x="300" y="430" type="move" name="_top"/>
    </contour>
    <contour>
      <point x="300" y="668" type="move" name="top"/>
    </contour>
  </outline>
</glyph>
<glyph name="apostrophemod" format="1">
  <advance width="600"/>
  <unicode hex="02BC"/>
  <note>
    uni02BB
  </note>
  <outline>
    <contour>
      <point x="247" y="552" type="curve"/>
      <point x="259" y="526" type="line"/>
      <point x="332" y="548"/>
      <point x="378" y="599"/>
      <point x="378" y="655" type="curve"/>
      <point x="378" y="695"/>
      <point x="354" y="720"/>
      <point x="318" y="720" type="curve"/>
      <point x="292" y="720"/>
      <point x="272" y="703"/>
      <point x="272" y="680" type="curve"/>
      <point x="272" y="637"/>
      <point x="317" y="642"/>
      <point x="317" y="610" type="curve"/>
      <point x="317" y="588"/>
      <point x="292" y="565"/>
    </contour>
    <contour>
      <point x="300" y="430" type="move" name="_top"/>
    </contour>
    <contour>
      <point x="300" y="668" type="move" name="top"/>
    </contour>
  </outline>
</glyph>
<glyph name="ringhalfleft" format="1">
  <advance width="600"/>
  <unicode hex="02BF"/>
  <outline>
    <contour>
      <point x="300" y="653" type="curve"/>
      <point x="300" y="685" type="line"/>
      <point x="244" y="685"/>
      <point x="200" y="643"/>
      <point x="200" y="589" type="curve"/>
      <point x="200" y="535"/>
      <point x="244" y="493"/>
      <point x="300" y="493" type="curve"/>
      <point x="300" y="527" type="line"/>
      <point x="267" y="527"/>
      <point x="241" y="554"/>
      <point x="241" y="590" type="curve"/>
      <point x="241" y="627"/>
      <point x="267" y="653"/>
    </contour>
    <contour>
      <point x="300" y="430" type="move" name="_top"/>
    </contour>
    <contour>
      <point x="300" y="687" type="move" name="top"/>
    </contour>
  </outline>
</glyph>
<glyph name="verticallinemod" format="1">
  <advance width="600"/>
  <unicode hex="02C8"/>
  <outline>
    <contour>
      <point x="273" y="650" type="line"/>
      <point x="273" y="530" type="line"/>
      <point x="328" y="530" type="line"/>
      <point x="328" y="650" type="line"/>
    </contour>
    <contour>
      <point x="300" y="430" type="move" name="_top"/>
    </contour>
    <contour>
      <point x="300" y="687" type="move" name="top"/>
    </contour>
  </outline>
</glyph>
<glyph name="gravecomb" format="1">
  <advance width="600"/>
  <unicode hex="0300"/>
  <note>
    gravecomb
  </note>
  <outline>
    <contour>
      <point x="139" y="654" type="line"/>
      <point x="279" y="482" type="line"/>
      <point x="321" y="496" type="line"/>
      <point x="222" y="677" type="line"/>
    </contour>
    <contour>
      <point x="300" y="430" type="move" name="_top"/>
    </contour>
    <contour>
      <point x="300" y="687" type="move" name="top"/>
    </contour>
  </outline>
</glyph>
